<svg width="184" height="413" viewBox="0 0 184 413" fill="none" xmlns="http://www.w3.org/2000/svg">
<g filter="url(#filter0_f)">
<path d="M-34.0257 214.677C-33.1251 214.124 -31.9998 214.085 -31.0635 214.575L97.9865 282.169C100.049 283.249 100.148 286.164 98.1649 287.382L-23.1041 361.878C-24.0048 362.431 -25.1301 362.47 -26.0664 361.979L-155.117 294.386C-157.179 293.306 -157.279 290.391 -155.295 289.173L-34.0257 214.677Z" fill="#FBA727"/>
<path d="M-24.9598 52.3014C-24.99 50.0291 -22.5812 48.5495 -20.5681 49.6039L103.818 114.754C104.771 115.253 105.384 116.226 105.424 117.302L110.763 263.543C110.846 265.824 108.452 267.359 106.414 266.331L-21.3558 201.883C-22.3541 201.38 -22.9896 200.363 -23.0045 199.244L-24.9598 52.3014Z" fill="#FBA727"/>
<path d="M-169.542 133.997C-170.443 134.551 -170.986 135.537 -170.972 136.594L-169.16 271.526C-169.129 273.854 -166.573 275.261 -164.59 274.042L-38.4667 196.565C-37.5661 196.011 -37.023 195.025 -37.0372 193.968L-38.8485 59.0356C-38.8798 56.7079 -41.435 55.3011 -43.4186 56.5196L-169.542 133.997Z" fill="#FBA727"/>
</g>
<defs>
<filter id="filter0_f" x="-240.966" y="0.50885" width="424.204" height="411.979" filterUnits="userSpaceOnUse" color-interpolation-filters="sRGB">
<feFlood flood-opacity="0" result="BackgroundImageFix"/>
<feBlend mode="normal" in="SourceGraphic" in2="BackgroundImageFix" result="shape"/>
<feGaussianBlur stdDeviation="5" result="effect1_foregroundBlur"/>
</filter>
</defs>
</svg>
