<svg width="494" height="313" viewBox="0 0 494 313" fill="none" xmlns="http://www.w3.org/2000/svg">
<g filter="url(#filter0_d)">
<rect x="144.189" y="209.958" width="20.9466" height="20.9466" rx="10" fill="white"/>
</g>
<g clip-path="url(#clip0)">
<path d="M158.691 216.261H156.341C156.203 216.261 156.09 216.374 156.09 216.512V218.612H153.991C153.852 218.612 153.74 218.724 153.74 218.863V220.962H151.64C151.502 220.962 151.39 221.074 151.39 221.213V223.563C151.39 223.702 151.502 223.814 151.64 223.814H158.691C158.83 223.814 158.942 223.702 158.942 223.563V216.512C158.942 216.374 158.83 216.261 158.691 216.261Z" fill="#0B2F64"/>
<path d="M150.637 217.765C150.702 217.765 150.766 217.741 150.815 217.692L152.392 216.115V216.512C152.392 216.651 152.504 216.763 152.642 216.763C152.781 216.763 152.893 216.651 152.893 216.512V215.51C152.893 215.371 152.781 215.259 152.642 215.259H151.64C151.501 215.259 151.389 215.371 151.389 215.51C151.389 215.648 151.501 215.76 151.64 215.76H152.037L150.46 217.337C150.362 217.435 150.362 217.594 150.46 217.692C150.509 217.741 150.573 217.765 150.637 217.765Z" fill="#0B2F64"/>
<path d="M151.891 219.52C151.891 219.381 151.778 219.269 151.64 219.269H151.242L152.82 217.692C152.918 217.594 152.918 217.435 152.82 217.337C152.722 217.239 152.563 217.239 152.465 217.337L150.888 218.915V218.517C150.888 218.379 150.776 218.266 150.637 218.266C150.499 218.266 150.387 218.379 150.387 218.517V219.52C150.387 219.658 150.499 219.77 150.637 219.77H151.64C151.778 219.77 151.891 219.658 151.891 219.52Z" fill="#0B2F64"/>
</g>
<g filter="url(#filter1_d)">
<rect x="363.746" y="102.674" width="20.9466" height="20.9466" rx="10" fill="white"/>
</g>
<g clip-path="url(#clip1)">
<path d="M378.246 108.978H375.896C375.757 108.978 375.645 109.09 375.645 109.228V111.328H373.545C373.407 111.328 373.295 111.44 373.295 111.579V113.678H371.195C371.057 113.678 370.944 113.791 370.944 113.929V116.279C370.944 116.418 371.057 116.53 371.195 116.53H378.246C378.385 116.53 378.497 116.418 378.497 116.279V109.228C378.497 109.09 378.385 108.978 378.246 108.978Z" fill="#0B2F64"/>
<path d="M370.192 110.481C370.256 110.481 370.32 110.457 370.369 110.408L371.946 108.831V109.228C371.946 109.367 372.059 109.479 372.197 109.479C372.336 109.479 372.448 109.367 372.448 109.228V108.226C372.448 108.087 372.336 107.975 372.197 107.975H371.195C371.056 107.975 370.944 108.087 370.944 108.226C370.944 108.364 371.056 108.476 371.195 108.476H371.592L370.015 110.054C369.917 110.151 369.917 110.31 370.015 110.408C370.064 110.457 370.128 110.481 370.192 110.481Z" fill="#0B2F64"/>
<path d="M371.445 112.236C371.445 112.097 371.333 111.985 371.195 111.985H370.797L372.374 110.408C372.472 110.31 372.472 110.151 372.374 110.054C372.276 109.956 372.118 109.956 372.02 110.054L370.443 111.631V111.233C370.443 111.095 370.33 110.983 370.192 110.983C370.054 110.983 369.941 111.095 369.941 111.233V112.236C369.941 112.374 370.054 112.486 370.192 112.486H371.195C371.333 112.486 371.445 112.374 371.445 112.236Z" fill="#0B2F64"/>
</g>
<g filter="url(#filter2_d)">
<rect x="27.7197" y="148.09" width="20.9466" height="20.9466" rx="10" fill="white"/>
</g>
<g clip-path="url(#clip2)">
<path d="M42.2197 154.394H39.8693C39.731 154.394 39.6187 154.506 39.6187 154.644V156.744H37.519C37.3806 156.744 37.2684 156.856 37.2684 156.995V159.094H35.1686C35.0302 159.094 34.918 159.207 34.918 159.345V161.695C34.918 161.834 35.0302 161.946 35.1686 161.946H42.2197C42.3582 161.946 42.4704 161.834 42.4704 161.695V154.644C42.4704 154.506 42.3582 154.394 42.2197 154.394Z" fill="#0B2F64"/>
<path d="M34.1657 155.897C34.2298 155.897 34.294 155.873 34.3429 155.824L35.9201 154.247V154.644C35.9201 154.783 36.0323 154.895 36.1707 154.895C36.3092 154.895 36.4214 154.783 36.4214 154.644V153.642C36.4214 153.503 36.3092 153.391 36.1707 153.391H35.1682C35.0298 153.391 34.9176 153.503 34.9176 153.642C34.9176 153.78 35.0298 153.892 35.1682 153.892H35.5656L33.9885 155.469C33.8906 155.567 33.8906 155.726 33.9885 155.824C34.0374 155.873 34.1015 155.897 34.1657 155.897Z" fill="#0B2F64"/>
<path d="M35.4188 157.652C35.4188 157.513 35.3066 157.401 35.1682 157.401H34.7708L36.3479 155.824C36.4458 155.726 36.4458 155.567 36.3479 155.469C36.2501 155.372 36.0914 155.372 35.9935 155.469L34.4163 157.047V156.649C34.4163 156.511 34.3041 156.399 34.1657 156.399C34.0272 156.399 33.915 156.511 33.915 156.649V157.652C33.915 157.79 34.0272 157.902 34.1657 157.902H35.1682C35.3066 157.902 35.4188 157.79 35.4188 157.652Z" fill="#0B2F64"/>
</g>
<path d="M454.438 102.576H423.026V123.082H401.648V129.19H366.891V152.167H454.438V102.576Z" fill="#C4C4C4"/>
<path d="M257.965 169.037H381.579V153.912H257.965V169.037Z" fill="#C4C4C4"/>
<path d="M455.756 152.47H488.345V125.128H455.756V152.47Z" fill="#CFCFCF"/>
<path d="M246.138 169.869V254.103H278.174V308.786H331.477L488.346 252.17V153.022H382.293V169.869H246.138Z" fill="#FFB6B7"/>
<path d="M124.046 101.549H86.8896L86.6368 142.378L99.6766 153.067H124.046V101.549Z" fill="#FFB6B7"/>
<path d="M8.82648 4.30725L8.82617 100.48H125.757L125.648 153.067H343.17V127.711H345.305V101.549H487.924V50.4236H425.582V6.44227H109.599V4.30725H8.82648Z" fill="#FFB6B7"/>
<path d="M215.068 255.528V309.211H277.43V255.528H215.068Z" fill="#F8EB8E"/>
<path d="M65.7662 309.354H8.36133V255.426H65.7662V309.354Z" fill="#F8EB8E"/>
<path d="M66.8957 255.426V309.354H112.069V255.426H66.8957Z" fill="#F8EB8E"/>
<path d="M8.36133 190.96H67.8368V254.861H8.36133V190.96Z" fill="#F8EB8E"/>
<path d="M50.4343 102.037L8.52344 102.037V144.805H50.4343V102.037Z" fill="#C4C4C4"/>
<path d="M85.5419 101.875H52.2246V130.518H85.5419V101.875Z" fill="#3BC1C0"/>
<path d="M64.7833 114.752C65.9102 114.606 66.6757 113.758 66.4931 112.858C66.3104 111.957 65.2487 111.346 64.1217 111.492C62.9947 111.638 62.2292 112.486 62.4119 113.386C62.5945 114.287 63.6563 114.898 64.7833 114.752Z" fill="#FBFCFC"/>
<path d="M67.018 115.568H61.8885C61.7376 115.568 61.5975 115.631 61.5181 115.733C61.4388 115.836 61.4316 115.964 61.4991 116.072L64.0639 120.169C64.1376 120.287 64.2883 120.362 64.4533 120.362C64.6182 120.362 64.7689 120.287 64.8426 120.169L67.4074 116.072C67.4749 115.964 67.4677 115.836 67.3884 115.733C67.309 115.631 67.1689 115.568 67.018 115.568Z" fill="#FBFCFC"/>
<path d="M68.8826 109.98C68.6422 109.98 68.4473 110.136 68.4473 110.328V121.504C68.4473 121.696 68.6422 121.852 68.8826 121.852C69.1231 121.852 69.318 121.696 69.318 121.504V110.328C69.318 110.136 69.1231 109.98 68.8826 109.98Z" fill="#FBFCFC"/>
<path d="M73.6426 114.754C74.7696 114.608 75.5351 113.759 75.3524 112.859C75.1697 111.959 74.108 111.347 72.981 111.493C71.854 111.639 71.0885 112.487 71.2712 113.388C71.4539 114.288 72.5156 114.9 73.6426 114.754Z" fill="#FBFCFC"/>
<path d="M76.2677 119.858L73.703 115.761C73.6293 115.643 73.4785 115.568 73.3136 115.568C73.1487 115.568 72.9979 115.643 72.9242 115.761L70.3594 119.858C70.292 119.966 70.2992 120.094 70.3785 120.197C70.4578 120.299 70.598 120.362 70.7488 120.362H75.8784C76.0292 120.362 76.1694 120.299 76.2487 120.197C76.328 120.094 76.3352 119.966 76.2677 119.858Z" fill="#FBFCFC"/>
<path d="M67.8374 173.55H8.54785V190.489H67.8374V173.55Z" fill="#F8EB8E"/>
<path d="M455.455 102.674V123.49H488.352V102.674H455.455Z" fill="#CFCFCF"/>
<path d="M332.234 312.089H4.54996L4.70037 180.139H1.05371V171.022H9.71473V147.775H1.05371V138.202H4.70037V0.768799H113.416V3.04793H180.652V6.01087H202.076V3.04793H334.495V6.01087H356.147V3.04793H429.992V47.0198H449.593V49.7708H470.105V47.0198H492.946V255.736L332.234 312.089Z" stroke="#E1E1E1"/>
<path d="M193.152 309.256H112.942V254.261H68.7536V144.512H52.1836V132.265H86.0445V142.831L99.9734 153.878H257.272V169.728H245.265V254.261H214.285V284.76H193.152V309.256Z" fill="#FAF2E5"/>
<defs>
<filter id="filter0_d" x="134.189" y="199.958" width="40.9466" height="40.9466" filterUnits="userSpaceOnUse" color-interpolation-filters="sRGB">
<feFlood flood-opacity="0" result="BackgroundImageFix"/>
<feColorMatrix in="SourceAlpha" type="matrix" values="0 0 0 0 0 0 0 0 0 0 0 0 0 0 0 0 0 0 127 0"/>
<feOffset/>
<feGaussianBlur stdDeviation="5"/>
<feColorMatrix type="matrix" values="0 0 0 0 0 0 0 0 0 0 0 0 0 0 0 0 0 0 0.08 0"/>
<feBlend mode="normal" in2="BackgroundImageFix" result="effect1_dropShadow"/>
<feBlend mode="normal" in="SourceGraphic" in2="effect1_dropShadow" result="shape"/>
</filter>
<filter id="filter1_d" x="353.746" y="92.6743" width="40.9466" height="40.9466" filterUnits="userSpaceOnUse" color-interpolation-filters="sRGB">
<feFlood flood-opacity="0" result="BackgroundImageFix"/>
<feColorMatrix in="SourceAlpha" type="matrix" values="0 0 0 0 0 0 0 0 0 0 0 0 0 0 0 0 0 0 127 0"/>
<feOffset/>
<feGaussianBlur stdDeviation="5"/>
<feColorMatrix type="matrix" values="0 0 0 0 0 0 0 0 0 0 0 0 0 0 0 0 0 0 0.08 0"/>
<feBlend mode="normal" in2="BackgroundImageFix" result="effect1_dropShadow"/>
<feBlend mode="normal" in="SourceGraphic" in2="effect1_dropShadow" result="shape"/>
</filter>
<filter id="filter2_d" x="17.7197" y="138.09" width="40.9466" height="40.9466" filterUnits="userSpaceOnUse" color-interpolation-filters="sRGB">
<feFlood flood-opacity="0" result="BackgroundImageFix"/>
<feColorMatrix in="SourceAlpha" type="matrix" values="0 0 0 0 0 0 0 0 0 0 0 0 0 0 0 0 0 0 127 0"/>
<feOffset/>
<feGaussianBlur stdDeviation="5"/>
<feColorMatrix type="matrix" values="0 0 0 0 0 0 0 0 0 0 0 0 0 0 0 0 0 0 0.08 0"/>
<feBlend mode="normal" in2="BackgroundImageFix" result="effect1_dropShadow"/>
<feBlend mode="normal" in="SourceGraphic" in2="effect1_dropShadow" result="shape"/>
</filter>
<clipPath id="clip0">
<rect x="150.387" y="215.259" width="8.55494" height="8.55494" fill="white"/>
</clipPath>
<clipPath id="clip1">
<rect x="369.941" y="107.975" width="8.55494" height="8.55494" fill="white"/>
</clipPath>
<clipPath id="clip2">
<rect x="33.915" y="153.391" width="8.55494" height="8.55494" fill="white"/>
</clipPath>
</defs>
</svg>
