<svg width="481" height="307" viewBox="0 0 481 307" fill="none" xmlns="http://www.w3.org/2000/svg">
<path d="M110.282 1.19434H3.75661V11.0828H10.1263V55.1411H14.3446V89.7315H10.1263V135.665M110.282 3.30225H114.929V4.89585H128.427V3.30225H265.008V4.80211H268.289V3.30225H332.877V4.80211H346.563V3.30225H411.525V13.4263V20.6444V51.9539L355.656 52.6101V54.1099V97.7933H426.805V101.168H456.709V97.7933H480.144V161.443V249.935L325.94 305.242H208.857V306.367H55.9655L9.09495 259.684L8.62625 176.255H1.2207V166.505H9.37637V145.039H1.2207V135.665" stroke="#CFCFCF"/>
<path d="M407.636 7.98584H354.314V50.1097H407.636V7.98584Z" stroke="#CFCFCF"/>
<path d="M392.387 120.757V143.753H478.621V100.773H457.816V102.963H424.417V100.773H411.824V120.757H392.387Z" fill="#CFCFCF"/>
<path d="M334.548 141.642H13.4531V91.1275H15.2435V53.3542H13.4531V4.48163H107.316V7.32599H351.614V97.3969H334.548V141.642Z" fill="#CFCFCF"/>
<path d="M20.7305 190.83H10.5361V170.012H41.763L20.7305 190.83Z" fill="#CFCFCF"/>
<path d="M58.6921 230.499L20.2279 268.963L11.0303 259.896V191.826H20.2279L58.6921 230.499Z" fill="#F8EB8E"/>
<path d="M54.1777 170.101L87.1222 202.488L59.467 229.259L21.1235 191.276L42.4322 170.101H54.1777Z" fill="#F8EB8E"/>
<path d="M66.2467 169.968H55.9609L88.0136 201.542L100.691 188.027H107.269V142.58H66.2467V169.968Z" fill="#F8EB8E"/>
<path d="M126.883 188.027V142.58H108.225V188.027H126.883Z" fill="#F8EB8E"/>
<path d="M158.816 142.58V188.027H127.311V142.58H158.816Z" fill="#F8EB8E"/>
<path d="M159.575 142.692V188.348H212.652V142.692H159.575Z" fill="#F8EB8E"/>
<path d="M20.6475 269.517L47.5282 296.814L98.3715 245.554H188.948V305.566H207.91V249.513H234.435V142.616H213.186V188.601H101.46L20.6475 269.517Z" fill="#FAF2E5"/>
<path d="M208.743 303.803H234.36V250.022H208.743V303.803Z" fill="#F8EB8E"/>
<path d="M187.781 246.169V305.127H159.253V246.169H187.781Z" fill="#F8EB8E"/>
<path d="M126.654 246.549V304.982H108.097L108.18 295.55L78.9941 266.709L98.7735 246.549L126.654 246.549Z" fill="#F8EB8E"/>
<path d="M158.722 246.549V304.982H127.302V246.549L158.722 246.549Z" fill="#F8EB8E"/>
<path d="M78.5129 266.842L48.2383 297.117L56.329 304.946H107.222V295.942L78.5129 266.842Z" fill="#F8EB8E"/>
<path d="M325.276 303.969H234.877V141.833H335.794V127.007H391.274V144.703H479.277V249.446L325.276 303.969Z" fill="#FDE5EC"/>
<path d="M33.6641 275.409L25.4045 283.787L25.4067 281.051C25.4069 280.746 25.1597 280.5 24.8546 280.503C24.5495 280.506 24.302 280.756 24.3017 281.062L24.2986 285.137C24.2985 285.137 24.2986 285.137 24.2986 285.138C24.2987 285.442 24.5468 285.688 24.8525 285.684C24.8527 285.684 24.853 285.684 24.8532 285.684L28.9258 285.625C29.2309 285.621 29.4773 285.37 29.476 285.065C29.4748 284.759 29.2265 284.515 28.9214 284.52L26.1871 284.559L34.4467 276.181C34.6621 275.963 34.6615 275.613 34.4454 275.4C34.2293 275.186 33.8795 275.191 33.6641 275.409Z" fill="#0B2F64"/>
<path d="M31.0303 291.217L39.2899 282.839L36.5556 282.878C36.2505 282.883 36.0021 282.639 36.0009 282.334C35.9997 282.028 36.2461 281.777 36.5512 281.773L40.6237 281.714C40.624 281.714 40.6242 281.714 40.6245 281.714C40.9292 281.71 41.1782 281.955 41.1785 282.261C41.1784 282.261 41.1785 282.261 41.1785 282.261L41.1753 286.336C41.1751 286.642 40.9276 286.892 40.6224 286.895C40.3173 286.898 40.0701 286.652 40.0704 286.347L40.0725 283.611L31.8129 291.989C31.5975 292.208 31.2477 292.212 31.0316 291.998C30.8155 291.785 30.8149 291.435 31.0303 291.217Z" fill="#0B2F64"/>
<path d="M406.906 282.119L400.751 270.459L402.981 271.933C403.23 272.097 403.45 272.015 403.473 271.749C403.495 271.484 403.312 271.135 403.063 270.97L399.741 268.775C399.741 268.775 399.741 268.775 399.741 268.775C399.492 268.611 399.271 268.693 399.25 268.96C399.25 268.96 399.25 268.96 399.25 268.961L398.965 272.519C398.944 272.785 399.128 273.134 399.377 273.297C399.626 273.46 399.845 273.376 399.867 273.11L400.058 270.721L406.212 282.381C406.373 282.685 406.658 282.873 406.85 282.8C407.041 282.728 407.066 282.423 406.906 282.119Z" fill="#0B2F64"/>
<path d="M391.518 272.633L397.673 284.292L397.864 281.904C397.885 281.637 398.105 281.553 398.353 281.716C398.602 281.88 398.787 282.228 398.766 282.495L398.481 286.053C398.481 286.053 398.481 286.053 398.481 286.053C398.46 286.319 398.24 286.403 397.99 286.239C397.99 286.239 397.99 286.239 397.99 286.239L394.668 284.043C394.419 283.879 394.236 283.53 394.258 283.264C394.281 282.998 394.501 282.916 394.75 283.081L396.98 284.555L390.825 272.895C390.664 272.591 390.689 272.286 390.881 272.213C391.072 272.141 391.358 272.329 391.518 272.633Z" fill="#0B2F64"/>
<path d="M16.0348 151.257H4.30969L6.25199 149.324C6.46872 149.108 6.46955 148.757 6.25385 148.541C6.03815 148.324 5.68758 148.323 5.47085 148.539L2.57793 151.418C2.57774 151.418 2.5776 151.418 2.57743 151.418C2.36126 151.634 2.36057 151.986 2.57738 152.202C2.57757 152.202 2.57771 152.202 2.57788 152.203L5.4708 155.082C5.68749 155.297 6.03806 155.296 6.25379 155.08C6.46949 154.863 6.46866 154.512 6.25194 154.297L4.30969 152.364H16.0348C16.3406 152.364 16.5884 152.116 16.5884 151.81C16.5884 151.504 16.3406 151.257 16.0348 151.257Z" fill="#0B2F64"/>
<path d="M2.96815 160.479H14.6932L12.7509 158.546C12.5342 158.33 12.5334 157.98 12.7491 157.763C12.9648 157.546 13.3154 157.546 13.5321 157.761L16.425 160.64C16.4252 160.64 16.4253 160.641 16.4255 160.641C16.6417 160.857 16.6424 161.208 16.4256 161.425C16.4254 161.425 16.4252 161.425 16.4251 161.425L13.5321 164.304C13.3154 164.52 12.9649 164.519 12.7491 164.302C12.5334 164.085 12.5343 163.735 12.751 163.519L14.6932 161.586H2.96815C2.66237 161.586 2.4145 161.338 2.4145 161.033C2.4145 160.727 2.66237 160.479 2.96815 160.479Z" fill="#0B2F64"/>
<path d="M418.259 11.3481H406.534L408.477 9.41519C408.693 9.19949 408.694 8.84894 408.478 8.63222C408.263 8.41547 407.912 8.41466 407.695 8.63034L404.803 11.5093C404.802 11.5095 404.802 11.5097 404.802 11.5098C404.586 11.7255 404.585 12.0772 404.802 12.2936C404.802 12.2938 404.802 12.294 404.802 12.2942L407.695 15.1731C407.912 15.3888 408.263 15.388 408.478 15.1712C408.694 14.9545 408.693 14.604 408.477 14.3883L406.534 12.4554H418.259C418.565 12.4554 418.813 12.2075 418.813 11.9017C418.813 11.5959 418.565 11.3481 418.259 11.3481Z" fill="#0B2F64"/>
<path d="M405.194 20.5706H416.919L414.977 18.6377C414.76 18.422 414.759 18.0715 414.975 17.8548C415.19 17.638 415.541 17.6372 415.758 17.8529L418.651 20.7318C418.651 20.732 418.651 20.7322 418.651 20.7324C418.867 20.9481 418.868 21.2997 418.651 21.5162C418.651 21.5163 418.651 21.5165 418.651 21.5167L415.758 24.3957C415.541 24.6113 415.19 24.6106 414.975 24.3938C414.759 24.177 414.76 23.8265 414.977 23.6108L416.919 21.6779H405.194C404.888 21.6779 404.64 21.43 404.64 21.1243C404.64 20.8185 404.888 20.5706 405.194 20.5706Z" fill="#0B2F64"/>
<path d="M362.286 44.5425V56.2676L360.353 54.3253C360.138 54.1086 359.787 54.1077 359.57 54.3234C359.354 54.5391 359.353 54.8897 359.568 55.1064L362.447 57.9993C362.448 57.9995 362.448 57.9997 362.448 57.9998C362.664 58.216 363.015 58.2167 363.232 57.9999C363.232 57.9997 363.232 57.9996 363.232 57.9994L366.111 55.1065C366.327 54.8898 366.326 54.5392 366.109 54.3235C365.893 54.1078 365.542 54.1086 365.326 54.3253L363.393 56.2676V44.5425C363.393 44.2367 363.146 43.9888 362.84 43.9888C362.534 43.9888 362.286 44.2367 362.286 44.5425Z" fill="#0B2F64"/>
<path d="M371.51 57.6091V45.884L369.577 47.8263C369.361 48.0431 369.011 48.0439 368.794 47.8282C368.577 47.6125 368.576 47.2619 368.792 47.0452L371.671 44.1523C371.671 44.1521 371.671 44.1519 371.672 44.1518C371.887 43.9356 372.239 43.9349 372.455 44.1517C372.456 44.1519 372.456 44.1521 372.456 44.1522L375.335 47.0451C375.551 47.2618 375.55 47.6124 375.333 47.8281C375.116 48.0438 374.766 48.043 374.55 47.8263L372.617 45.884V57.6091C372.617 57.9149 372.369 58.1628 372.063 58.1628C371.758 58.1628 371.51 57.9149 371.51 57.6091Z" fill="#0B2F64"/>
<path d="M358.147 67.897H346.422L348.364 65.9641C348.581 65.7484 348.582 65.3979 348.366 65.1812C348.15 64.9644 347.8 64.9636 347.583 65.1793L344.69 68.0583C344.69 68.0584 344.69 68.0586 344.69 68.0588C344.474 68.2745 344.473 68.6262 344.69 68.8426C344.69 68.8427 344.69 68.8429 344.69 68.8431L347.583 71.7221C347.8 71.9377 348.15 71.937 348.366 71.7202C348.582 71.5035 348.581 71.1529 348.364 70.9372L346.422 69.0043H358.147C358.453 69.0043 358.701 68.7565 358.701 68.4507C358.701 68.1449 358.453 67.897 358.147 67.897Z" fill="#0B2F64"/>
<path d="M345.079 77.1197H356.805L354.862 75.1868C354.646 74.9711 354.645 74.6206 354.86 74.4038C355.076 74.1871 355.427 74.1863 355.643 74.4019L358.536 77.2809C358.537 77.2811 358.537 77.2813 358.537 77.2814C358.753 77.4971 358.754 77.8488 358.537 78.0652C358.537 78.0654 358.537 78.0656 358.536 78.0658L355.643 80.9447C355.427 81.1604 355.076 81.1596 354.86 80.9428C354.645 80.7261 354.646 80.3756 354.862 80.1599L356.805 78.227H345.079C344.774 78.227 344.526 77.9791 344.526 77.6733C344.526 77.3676 344.774 77.1197 345.079 77.1197Z" fill="#0B2F64"/>
<path d="M378.368 93.1693V104.894L376.435 102.952C376.22 102.735 375.869 102.735 375.652 102.95C375.436 103.166 375.435 103.517 375.65 103.733L378.529 106.626C378.53 106.626 378.53 106.627 378.53 106.627C378.746 106.843 379.097 106.844 379.314 106.627C379.314 106.627 379.314 106.626 379.314 106.626L382.193 103.733C382.409 103.517 382.408 103.166 382.191 102.95C381.975 102.735 381.624 102.735 381.408 102.952L379.476 104.894V93.1693C379.476 92.8635 379.228 92.6157 378.922 92.6157C378.616 92.6157 378.368 92.8635 378.368 93.1693Z" fill="#0B2F64"/>
<path d="M387.592 106.237V94.5116L385.659 96.4539C385.443 96.6706 385.093 96.6715 384.876 96.4558C384.659 96.2401 384.658 95.8895 384.874 95.6728L387.753 92.7798C387.753 92.7796 387.753 92.7795 387.754 92.7793C387.969 92.5632 388.321 92.5625 388.537 92.7793C388.538 92.7795 388.538 92.7796 388.538 92.7798L391.417 95.6727C391.633 95.8894 391.632 96.24 391.415 96.4557C391.198 96.6714 390.848 96.6706 390.632 96.4538L388.699 94.5116V106.237C388.699 106.542 388.451 106.79 388.146 106.79C387.84 106.79 387.592 106.542 387.592 106.237Z" fill="#0B2F64"/>
<g filter="url(#filter0_d)">
<rect x="113.068" y="203.66" width="20.4311" height="20.4311" rx="10" fill="white"/>
</g>
<g clip-path="url(#clip0)">
<path d="M127.211 209.808H124.918C124.783 209.808 124.674 209.918 124.674 210.053V212.101H122.626C122.491 212.101 122.381 212.21 122.381 212.345V214.393H120.333C120.198 214.393 120.089 214.503 120.089 214.638V216.93C120.089 217.065 120.198 217.175 120.333 217.175H127.211C127.346 217.175 127.455 217.065 127.455 216.93V210.053C127.455 209.918 127.346 209.808 127.211 209.808Z" fill="#0B2F64"/>
<path d="M119.356 211.275C119.418 211.275 119.481 211.251 119.529 211.203L121.067 209.665V210.053C121.067 210.188 121.176 210.297 121.312 210.297C121.447 210.297 121.556 210.188 121.556 210.053V209.075C121.556 208.94 121.447 208.83 121.312 208.83H120.334C120.199 208.83 120.089 208.94 120.089 209.075C120.089 209.21 120.199 209.319 120.334 209.319H120.721L119.183 210.858C119.087 210.953 119.087 211.108 119.183 211.203C119.231 211.251 119.293 211.275 119.356 211.275Z" fill="#0B2F64"/>
<path d="M120.578 212.986C120.578 212.851 120.469 212.742 120.334 212.742H119.946L121.484 211.203C121.58 211.108 121.58 210.953 121.484 210.858C121.389 210.762 121.234 210.762 121.139 210.858L119.6 212.396V212.008C119.6 211.873 119.491 211.764 119.356 211.764C119.221 211.764 119.111 211.873 119.111 212.008V212.986C119.111 213.121 119.221 213.231 119.356 213.231H120.334C120.469 213.231 120.578 213.121 120.578 212.986Z" fill="#0B2F64"/>
</g>
<g filter="url(#filter1_d)">
<rect x="351.614" y="101.832" width="20.4311" height="20.4311" rx="10" fill="white"/>
</g>
<g clip-path="url(#clip1)">
<path d="M365.757 107.98H363.464C363.329 107.98 363.22 108.089 363.22 108.224V110.273H361.172C361.037 110.273 360.927 110.382 360.927 110.517V112.565H358.879C358.744 112.565 358.635 112.675 358.635 112.81V115.102C358.635 115.237 358.744 115.347 358.879 115.347H365.757C365.892 115.347 366.001 115.237 366.001 115.102V108.224C366.001 108.089 365.892 107.98 365.757 107.98Z" fill="#0B2F64"/>
<path d="M357.902 109.447C357.964 109.447 358.027 109.423 358.075 109.375L359.613 107.837V108.224C359.613 108.359 359.722 108.469 359.857 108.469C359.992 108.469 360.102 108.359 360.102 108.224V107.247C360.102 107.112 359.992 107.002 359.857 107.002H358.88C358.745 107.002 358.635 107.112 358.635 107.247C358.635 107.382 358.745 107.491 358.88 107.491H359.267L357.729 109.029C357.633 109.125 357.633 109.28 357.729 109.375C357.777 109.423 357.839 109.447 357.902 109.447Z" fill="#0B2F64"/>
<path d="M359.124 111.158C359.124 111.023 359.015 110.913 358.88 110.913H358.492L360.03 109.375C360.126 109.28 360.126 109.125 360.03 109.029C359.935 108.934 359.78 108.934 359.685 109.029L358.146 110.568V110.18C358.146 110.045 358.037 109.936 357.902 109.936C357.767 109.936 357.657 110.045 357.657 110.18V111.158C357.657 111.293 357.767 111.402 357.902 111.402H358.88C359.015 111.402 359.124 111.293 359.124 111.158Z" fill="#0B2F64"/>
</g>
<g filter="url(#filter2_d)">
<rect x="27.8076" y="145.612" width="20.4311" height="20.4311" rx="10" fill="white"/>
</g>
<g clip-path="url(#clip2)">
<path d="M41.9502 151.76H39.6577C39.5227 151.76 39.4132 151.869 39.4132 152.004V154.052H37.3652C37.2301 154.052 37.1207 154.162 37.1207 154.297V156.345H35.0726C34.9376 156.345 34.8281 156.454 34.8281 156.589V158.882C34.8281 159.017 34.9376 159.126 35.0726 159.126H41.9502C42.0852 159.126 42.1947 159.017 42.1947 158.882V152.004C42.1947 151.869 42.0852 151.76 41.9502 151.76Z" fill="#0B2F64"/>
<path d="M34.0951 153.227C34.1576 153.227 34.2202 153.203 34.2679 153.155L35.8063 151.617V152.004C35.8063 152.139 35.9157 152.249 36.0508 152.249C36.1858 152.249 36.2952 152.139 36.2952 152.004V151.026C36.2952 150.891 36.1858 150.782 36.0508 150.782H35.0729C34.9379 150.782 34.8284 150.891 34.8284 151.026C34.8284 151.161 34.9379 151.271 35.0729 151.271H35.4606L33.9222 152.809C33.8267 152.905 33.8267 153.059 33.9222 153.155C33.9699 153.203 34.0325 153.227 34.0951 153.227Z" fill="#0B2F64"/>
<path d="M35.3174 154.938C35.3174 154.803 35.2079 154.693 35.0729 154.693H34.6853L36.2236 153.155C36.3191 153.059 36.3191 152.905 36.2236 152.809C36.1282 152.714 35.9734 152.714 35.8779 152.809L34.3395 154.348V153.96C34.3395 153.825 34.2301 153.715 34.0951 153.715C33.96 153.715 33.8506 153.825 33.8506 153.96V154.938C33.8506 155.073 33.96 155.182 34.0951 155.182H35.0729C35.2079 155.182 35.3174 155.073 35.3174 154.938Z" fill="#0B2F64"/>
</g>
<defs>
<filter id="filter0_d" x="103.068" y="193.66" width="40.4311" height="40.4311" filterUnits="userSpaceOnUse" color-interpolation-filters="sRGB">
<feFlood flood-opacity="0" result="BackgroundImageFix"/>
<feColorMatrix in="SourceAlpha" type="matrix" values="0 0 0 0 0 0 0 0 0 0 0 0 0 0 0 0 0 0 127 0"/>
<feOffset/>
<feGaussianBlur stdDeviation="5"/>
<feColorMatrix type="matrix" values="0 0 0 0 0 0 0 0 0 0 0 0 0 0 0 0 0 0 0.08 0"/>
<feBlend mode="normal" in2="BackgroundImageFix" result="effect1_dropShadow"/>
<feBlend mode="normal" in="SourceGraphic" in2="effect1_dropShadow" result="shape"/>
</filter>
<filter id="filter1_d" x="341.614" y="91.8317" width="40.4311" height="40.4311" filterUnits="userSpaceOnUse" color-interpolation-filters="sRGB">
<feFlood flood-opacity="0" result="BackgroundImageFix"/>
<feColorMatrix in="SourceAlpha" type="matrix" values="0 0 0 0 0 0 0 0 0 0 0 0 0 0 0 0 0 0 127 0"/>
<feOffset/>
<feGaussianBlur stdDeviation="5"/>
<feColorMatrix type="matrix" values="0 0 0 0 0 0 0 0 0 0 0 0 0 0 0 0 0 0 0.08 0"/>
<feBlend mode="normal" in2="BackgroundImageFix" result="effect1_dropShadow"/>
<feBlend mode="normal" in="SourceGraphic" in2="effect1_dropShadow" result="shape"/>
</filter>
<filter id="filter2_d" x="17.8076" y="135.612" width="40.4311" height="40.4311" filterUnits="userSpaceOnUse" color-interpolation-filters="sRGB">
<feFlood flood-opacity="0" result="BackgroundImageFix"/>
<feColorMatrix in="SourceAlpha" type="matrix" values="0 0 0 0 0 0 0 0 0 0 0 0 0 0 0 0 0 0 127 0"/>
<feOffset/>
<feGaussianBlur stdDeviation="5"/>
<feColorMatrix type="matrix" values="0 0 0 0 0 0 0 0 0 0 0 0 0 0 0 0 0 0 0.08 0"/>
<feBlend mode="normal" in2="BackgroundImageFix" result="effect1_dropShadow"/>
<feBlend mode="normal" in="SourceGraphic" in2="effect1_dropShadow" result="shape"/>
</filter>
<clipPath id="clip0">
<rect x="119.111" y="208.83" width="8.34442" height="8.34442" fill="white"/>
</clipPath>
<clipPath id="clip1">
<rect x="357.657" y="107.002" width="8.34442" height="8.34442" fill="white"/>
</clipPath>
<clipPath id="clip2">
<rect x="33.8506" y="150.782" width="8.34442" height="8.34442" fill="white"/>
</clipPath>
</defs>
</svg>
