<svg width="447" height="284" viewBox="0 0 447 284" fill="none" xmlns="http://www.w3.org/2000/svg">
<path d="M412.004 135.947H441.788V228.969L431.588 232.233V234.681L352.845 261.609H347.949V132.275H412.004V135.947Z" fill="#DFFBBC"/>
<path d="M22.1885 93.6814V119.021H81.5563V93.6814H22.1885Z" fill="#3BC1C0"/>
<path d="M442.832 112.143V93.6814H413.872V112.143H442.832Z" fill="#CFCFCF"/>
<path d="M286.811 92.9573V130.605H302.376V162.099H312.874V130.605H411.7V92.9573H383.826V111.781H363.192V116.849H299.48V92.9573H286.811Z" fill="#CFCFCF"/>
<path d="M414.233 132.415H443.555V113.591H414.233V132.415Z" fill="#CFCFCF"/>
<path d="M61.2853 157.755H6.26172V279.749H101.105V231.241H69.6114V172.597H61.2853V157.755Z" fill="#F8EB8E"/>
<path d="M5.89941 130.605H21.1031V93.3195H5.89941V130.605Z" fill="#FFB6B7"/>
<path d="M5.89941 91.1475H82.643V132.777H194.139V91.1475H442.832V45.8977H387.446V7.16379H98.571V3.54382H5.89941V91.1475Z" fill="#FFB6B7"/>
<path d="M194.501 158.841H81.9189V135.311H194.501V158.841Z" fill="#FFB6B7"/>
<path d="M194.863 159.927L250.973 171.149H300.567V131.691H285.725V92.5955H194.863V159.927Z" fill="#DFFBBC"/>
<g filter="url(#filter0_d)">
<rect x="326.091" y="94.1309" width="19.001" height="19.001" rx="9.50051" fill="white"/>
</g>
<g clip-path="url(#clip0)">
<path d="M339.244 99.8486H337.112C336.986 99.8486 336.884 99.9504 336.884 100.076V101.981H334.98C334.854 101.981 334.752 102.083 334.752 102.208V104.113H332.847C332.722 104.113 332.62 104.215 332.62 104.34V106.472C332.62 106.598 332.722 106.7 332.847 106.7H339.244C339.369 106.7 339.471 106.598 339.471 106.472V100.076C339.471 99.9504 339.369 99.8486 339.244 99.8486Z" fill="#0B2F64"/>
<path d="M331.938 101.213C331.996 101.213 332.055 101.191 332.099 101.146L333.53 99.7155V100.076C333.53 100.202 333.632 100.303 333.757 100.303C333.883 100.303 333.984 100.202 333.984 100.076V99.1666C333.984 99.041 333.883 98.9392 333.757 98.9392H332.848C332.722 98.9392 332.62 99.041 332.62 99.1666C332.62 99.2921 332.722 99.3939 332.848 99.3939H333.208L331.778 100.825C331.689 100.913 331.689 101.057 331.778 101.146C331.822 101.191 331.88 101.213 331.938 101.213Z" fill="#0B2F64"/>
<path d="M333.075 102.804C333.075 102.679 332.973 102.577 332.848 102.577H332.487L333.918 101.146C334.007 101.057 334.007 100.913 333.918 100.825C333.829 100.736 333.685 100.736 333.596 100.825L332.166 102.255V101.895C332.166 101.769 332.064 101.667 331.938 101.667C331.813 101.667 331.711 101.769 331.711 101.895V102.804C331.711 102.93 331.813 103.032 331.938 103.032H332.848C332.973 103.032 333.075 102.93 333.075 102.804Z" fill="#0B2F64"/>
</g>
<g filter="url(#filter1_d)">
<rect x="21.2754" y="135.328" width="19.001" height="19.001" rx="9.50051" fill="white"/>
</g>
<g clip-path="url(#clip1)">
<path d="M34.4283 141.046H32.2962C32.1707 141.046 32.0688 141.148 32.0688 141.274V143.178H30.1641C30.0386 143.178 29.9368 143.28 29.9368 143.406V145.311H28.032C27.9065 145.311 27.8047 145.412 27.8047 145.538V147.67C27.8047 147.796 27.9065 147.897 28.032 147.897H34.4283C34.5538 147.897 34.6556 147.796 34.6556 147.67V141.274C34.6556 141.148 34.5538 141.046 34.4283 141.046Z" fill="#0B2F64"/>
<path d="M27.1229 142.411C27.1811 142.411 27.2393 142.388 27.2836 142.344L28.7143 140.913V141.274C28.7143 141.399 28.8161 141.501 28.9417 141.501C29.0673 141.501 29.169 141.399 29.169 141.274V140.364C29.169 140.239 29.0673 140.137 28.9417 140.137H28.0323C27.9067 140.137 27.8049 140.239 27.8049 140.364C27.8049 140.49 27.9067 140.592 28.0323 140.592H28.3928L26.9621 142.022C26.8733 142.111 26.8733 142.255 26.9621 142.344C27.0065 142.388 27.0647 142.411 27.1229 142.411Z" fill="#0B2F64"/>
<path d="M28.2596 144.002C28.2596 143.876 28.1579 143.775 28.0323 143.775H27.6718L29.1024 142.344C29.1912 142.255 29.1912 142.111 29.1024 142.022C29.0137 141.934 28.8698 141.934 28.7809 142.022L27.3502 143.453V143.093C27.3502 142.967 27.2484 142.865 27.1229 142.865C26.9973 142.865 26.8955 142.967 26.8955 143.093V144.002C26.8955 144.128 26.9973 144.229 27.1229 144.229H28.0323C28.1579 144.229 28.2596 144.128 28.2596 144.002Z" fill="#0B2F64"/>
</g>
<path d="M314.322 132.777V169.339H345.454V132.777L314.322 132.777Z" fill="#DFFBBC"/>
<path d="M385.998 132.777H348.712V201.919H385.998V132.777Z" fill="#DFFBBC"/>
<path d="M22.1885 120.831V130.967H62.0084V172.235H71.0583V229.431H102.19V280.473H175.314V257.305H195.861V278.663H218.754V280.473H296.946V278.663H302.014L345.091 263.097V172.235H312.512V163.909H302.014V172.235L193.776 160.289H80.8323V120.831H22.1885Z" fill="#CFCFCF"/>
<path d="M100.718 283.373H3.61144L4.02261 162.904H1.19629V153.911H8.64754V133.87H1.19629V125.648H4.02261L5.30731 33.921H4.02261V0.519043H101.916V2.57457H163.068V5.40088H182.852V2.57457H303.099V5.40088H322.626V2.57457H390.201V41.3723H406.902V44.7125H426.686V41.3723H446.471V231.764L354.23 263.367V265.423L302.842 283.373H297.555H100.718Z" stroke="#CFCFCF"/>
<defs>
<filter id="filter0_d" x="316.091" y="84.1309" width="39.001" height="39.001" filterUnits="userSpaceOnUse" color-interpolation-filters="sRGB">
<feFlood flood-opacity="0" result="BackgroundImageFix"/>
<feColorMatrix in="SourceAlpha" type="matrix" values="0 0 0 0 0 0 0 0 0 0 0 0 0 0 0 0 0 0 127 0"/>
<feOffset/>
<feGaussianBlur stdDeviation="5"/>
<feColorMatrix type="matrix" values="0 0 0 0 0 0 0 0 0 0 0 0 0 0 0 0 0 0 0.08 0"/>
<feBlend mode="normal" in2="BackgroundImageFix" result="effect1_dropShadow"/>
<feBlend mode="normal" in="SourceGraphic" in2="effect1_dropShadow" result="shape"/>
</filter>
<filter id="filter1_d" x="11.2754" y="125.328" width="39.001" height="39.001" filterUnits="userSpaceOnUse" color-interpolation-filters="sRGB">
<feFlood flood-opacity="0" result="BackgroundImageFix"/>
<feColorMatrix in="SourceAlpha" type="matrix" values="0 0 0 0 0 0 0 0 0 0 0 0 0 0 0 0 0 0 127 0"/>
<feOffset/>
<feGaussianBlur stdDeviation="5"/>
<feColorMatrix type="matrix" values="0 0 0 0 0 0 0 0 0 0 0 0 0 0 0 0 0 0 0.08 0"/>
<feBlend mode="normal" in2="BackgroundImageFix" result="effect1_dropShadow"/>
<feBlend mode="normal" in="SourceGraphic" in2="effect1_dropShadow" result="shape"/>
</filter>
<clipPath id="clip0">
<rect x="331.711" y="98.9392" width="7.76035" height="7.76035" fill="white"/>
</clipPath>
<clipPath id="clip1">
<rect x="26.8955" y="140.137" width="7.76035" height="7.76035" fill="white"/>
</clipPath>
</defs>
</svg>
