<svg width="50" height="49" viewBox="0 0 50 49" fill="none" xmlns="http://www.w3.org/2000/svg">
<g clip-path="url(#clip0)">
<path d="M44.1407 22.8851C42.4734 22.0685 39.3472 22.0591 39.215 22.0591C38.8186 22.0591 38.4972 22.3739 38.4972 22.7622C38.4972 23.1505 38.8186 23.4653 39.215 23.4653C40.0217 23.4654 42.3638 23.5871 43.4987 24.143C43.6018 24.1935 43.7113 24.2173 43.8192 24.2173C44.0824 24.2173 44.336 24.0748 44.4617 23.8285C44.639 23.4812 44.4953 23.0588 44.1407 22.8851Z" fill="#0B2F64"/>
<path d="M47.7192 32.8957L44.7548 32.066C44.6269 32.0302 44.5375 31.9142 44.5375 31.7838V30.8145C44.7786 30.6508 45.0087 30.4676 45.2238 30.2631C46.266 29.2724 46.8399 27.9435 46.8399 26.5211V25.1836L47.1265 24.6221C47.4411 24.0057 47.6073 23.3156 47.6073 22.6265V19.0031C47.6073 18.6148 47.286 18.3 46.8896 18.3H39.9824C37.4707 18.3 35.4273 20.3017 35.4273 22.7621V22.804C35.4273 23.377 35.5656 23.9508 35.8271 24.4633L36.1947 25.1835V26.3319C36.1947 28.152 37.1103 29.785 38.4972 30.7677L38.4974 31.7836C38.4974 31.9402 38.4974 32.0051 37.9047 32.171L36.4582 32.5758L32.274 31.0854C32.289 30.892 32.2224 30.6953 32.0784 30.5471L30.7413 29.171V26.861C30.8826 26.7469 31.022 26.6298 31.157 26.5058C32.8438 24.9571 33.8112 22.7704 33.8112 20.5067V18.6619C34.3205 17.5761 34.5786 16.4272 34.5786 15.244V7.7262C34.5786 7.33788 34.2572 7.02307 33.8608 7.02307H23.1163C19.3351 7.02307 16.2589 10.0366 16.2589 13.7405V15.2442C16.2589 16.4274 16.517 17.5763 17.0264 18.662V20.2493C17.0264 22.8777 18.2194 25.2456 20.0962 26.8068V29.1711L18.7592 30.5472C18.6151 30.6954 18.5485 30.8921 18.5635 31.0855L14.1473 32.6585C13.8273 32.7725 13.5299 32.9269 13.26 33.114L12.5665 32.7743C14.6308 31.8941 15.2848 30.6561 15.3161 30.5946C15.4172 30.3967 15.4172 30.1637 15.3161 29.9658C14.7987 28.9519 14.736 27.0937 14.6857 25.6007C14.6689 25.1036 14.653 24.634 14.6227 24.2159C14.378 20.8433 11.7607 18.3 8.53453 18.3C5.30837 18.3 2.69099 20.8432 2.44637 24.2159C2.41604 24.6341 2.40015 25.1037 2.3834 25.6009C2.33306 27.0938 2.27028 28.9518 1.75291 29.9657C1.65185 30.1636 1.65185 30.3966 1.75291 30.5945C1.7843 30.656 2.4369 31.8915 4.50533 32.7727L2.57911 33.7161C1.54935 34.2209 0.909668 35.2348 0.909668 36.3625V41.5571C0.909668 41.9454 1.23104 42.2602 1.62744 42.2602C2.02384 42.2602 2.34521 41.9454 2.34521 41.5571V36.3625C2.34521 35.7708 2.68085 35.2387 3.22109 34.9741L5.6197 33.7993L6.45404 34.576C7.03744 35.1191 7.78584 35.3905 8.53453 35.3905C9.28302 35.3905 10.0318 35.1189 10.615 34.576L11.4493 33.7994L12.2313 34.1824C11.8631 34.7597 11.6541 35.4365 11.6541 36.1456V41.5573C11.6541 41.9456 11.9754 42.2604 12.3718 42.2604C12.7682 42.2604 13.0896 41.9456 13.0896 41.5573V36.1456C13.0896 35.1803 13.7118 34.3101 14.6379 33.9802L19.294 32.3217L21.2323 35.1699C21.4801 35.534 21.8772 35.7676 22.3217 35.8107C22.3713 35.8155 22.4206 35.8178 22.4698 35.8178C22.862 35.8178 23.2376 35.6666 23.5184 35.3916L24.7009 34.2333V41.5574C24.7009 41.9457 25.0223 42.2605 25.4187 42.2605C25.8151 42.2605 26.1364 41.9457 26.1364 41.5574V34.2333L27.3189 35.3916C27.5996 35.6667 27.9753 35.8179 28.3676 35.8179C28.4167 35.8179 28.466 35.8156 28.5155 35.8108C28.9602 35.7677 29.3572 35.5341 29.605 35.17L31.5434 32.3219L36.1994 33.9804C37.1255 34.3103 37.7477 35.1805 37.7477 36.1458V41.5575C37.7477 41.9458 38.0691 42.2606 38.4655 42.2606C38.8619 42.2606 39.1833 41.9458 39.1833 41.5575V36.1458C39.1833 35.1681 38.7868 34.2513 38.1216 33.5732L38.299 33.5236C38.4778 33.4735 38.7219 33.405 38.9669 33.2873L40.7995 35.0825V41.5575C40.7995 41.9458 41.1209 42.2606 41.5173 42.2606C41.9137 42.2606 42.235 41.9458 42.235 41.5575V35.0825L44.0549 33.2998C44.1517 33.348 44.2533 33.3887 44.3603 33.4186L47.3248 34.2483C48.0014 34.4376 48.4741 35.0514 48.4741 35.7409V41.5575C48.4741 41.9458 48.7955 42.2606 49.1919 42.2606C49.5883 42.2606 49.9097 41.9458 49.9097 41.5575V35.7409C49.9097 34.4267 49.0089 33.2568 47.7192 32.8957ZM5.51442 31.6538C4.1718 31.1806 3.49834 30.5496 3.21085 30.2051C3.40685 29.7032 3.53394 29.1283 3.61998 28.5214C4.01581 29.4512 4.67874 30.2448 5.51442 30.8111V31.6538ZM9.62631 33.5568C9.0141 34.1266 8.05505 34.1265 7.44303 33.5567L6.7755 32.9353C6.88815 32.7286 6.95007 32.4942 6.95007 32.2487V31.4992C7.45079 31.6525 7.98309 31.7352 8.53472 31.7352C9.08568 31.7352 9.6177 31.6521 10.1193 31.4997L10.1192 32.2486C10.1192 32.4942 10.181 32.7287 10.2937 32.9355L9.62631 33.5568ZM8.53491 30.3289C6.39154 30.3289 4.64793 28.6208 4.64793 26.5213C4.64793 26.133 4.32656 25.8182 3.93015 25.8182C3.88996 25.8182 3.85072 25.8222 3.81234 25.8285C3.81445 25.768 3.81646 25.7074 3.81856 25.6475C3.83455 25.1641 3.84996 24.7074 3.87838 24.3157C3.97006 23.0523 4.48542 21.8882 5.32953 21.0375C6.18119 20.1791 7.31948 19.7064 8.53472 19.7064C9.74996 19.7064 10.8882 20.1791 11.7399 21.0375C12.584 21.8882 13.0994 23.0523 13.1911 24.3157C13.2194 24.7073 13.2349 25.1639 13.2512 25.6473C13.2526 25.6888 13.254 25.7309 13.2555 25.7727C12.4745 24.5941 11.2685 23.7255 9.71014 23.235C8.27048 22.7819 7.03228 22.8099 6.98002 22.8112C6.79206 22.8164 6.61367 22.8934 6.48323 23.026L5.18817 24.3417C4.91303 24.6213 4.92126 25.0664 5.20664 25.3359C5.49203 25.6054 5.94643 25.5973 6.22157 25.3178L7.29919 24.2231C8.22722 24.2675 11.2129 24.6077 12.374 27.1124C12.0819 28.9581 10.4624 30.3289 8.53491 30.3289ZM11.5546 31.6562L11.5547 30.8176C12.3897 30.2544 13.0536 29.4622 13.4497 28.5255C13.5358 29.1309 13.6628 29.7045 13.8584 30.2053C13.5725 30.5465 12.8959 31.1831 11.5546 31.6562ZM18.4619 20.2492V18.5047C18.4619 18.3989 18.4375 18.2944 18.3905 18.199C17.9286 17.2621 17.6945 16.2679 17.6945 15.2442V13.7406C17.6945 10.812 20.1268 8.42941 23.1163 8.42941H33.1431V15.2443C33.1431 16.268 32.9089 17.2622 32.447 18.1991C32.4 18.2944 32.3756 18.399 32.3756 18.5048V20.5069C32.3756 22.411 31.5942 24.1772 30.1753 25.48C29.9982 25.6426 29.8143 25.795 29.6242 25.937C29.62 25.9398 29.616 25.9429 29.6119 25.9459C28.2827 26.9344 26.6546 27.4149 24.9543 27.307C21.3137 27.0761 18.4619 23.976 18.4619 20.2492ZM22.5034 34.3971C22.4984 34.402 22.4868 34.4135 22.4634 34.4111C22.44 34.4088 22.4308 34.3954 22.4269 34.3896L20.1946 31.1095L20.913 30.3701L24.2994 32.6376L22.5034 34.3971ZM25.4188 31.6837L21.5318 29.081V27.7685C22.5375 28.3011 23.6637 28.6342 24.8614 28.7102C25.0506 28.7222 25.2386 28.7281 25.4261 28.7281C26.7986 28.7281 28.1195 28.4067 29.3057 27.7967V29.081L25.4188 31.6837ZM28.4106 34.3898C28.4067 34.3956 28.3975 34.409 28.3742 34.4113C28.3507 34.4142 28.3392 34.4021 28.3342 34.3973L26.5381 32.6379L29.9246 30.3703L30.643 31.1097L28.4106 34.3898ZM41.5173 33.7966L39.8884 32.201C39.9168 32.0746 39.9329 31.9361 39.9328 31.7834L39.9327 31.4867C40.3847 31.632 40.8611 31.7182 41.3541 31.7327C41.4094 31.7344 41.4642 31.7351 41.5194 31.7351C42.0641 31.7351 42.5958 31.6545 43.1019 31.5006V31.7838C43.1019 31.924 43.1199 32.0614 43.1538 32.1935L41.5173 33.7966ZM44.224 29.254C43.4633 29.9772 42.4583 30.3591 41.3973 30.3271C39.3201 30.266 37.6303 28.4738 37.6303 26.3321V25.0176C37.6303 24.9084 37.6044 24.8008 37.5545 24.7032L37.1111 23.8345C36.9487 23.5162 36.8628 23.16 36.8628 22.8041V22.7622C36.8628 21.0771 38.2623 19.7063 39.9824 19.7063H46.1718V22.6266C46.1718 23.0986 46.0579 23.5712 45.8425 23.9933L45.4801 24.7032C45.4303 24.8009 45.4044 24.9084 45.4044 25.0176V26.5212C45.4044 27.5599 44.9852 28.5304 44.224 29.254Z" fill="#0B2F64"/>
<path d="M46.1221 36.3433C45.7257 36.3433 45.4043 36.6581 45.4043 37.0464V41.5572C45.4043 41.9455 45.7257 42.2603 46.1221 42.2603C46.5185 42.2603 46.8398 41.9455 46.8398 41.5572V37.0464C46.8398 36.6582 46.5185 36.3433 46.1221 36.3433Z" fill="#0B2F64"/>
<path d="M4.69727 37.2727C4.30086 37.2727 3.97949 37.5875 3.97949 37.9758V41.5572C3.97949 41.9455 4.30086 42.2603 4.69727 42.2603C5.09367 42.2603 5.41504 41.9455 5.41504 41.5572V37.9758C5.41504 37.5876 5.09367 37.2727 4.69727 37.2727Z" fill="#0B2F64"/>
<path d="M31.2985 15.4989C28.5838 12.8396 22.9039 13.348 20.5877 13.69C19.8582 13.7977 19.3287 14.4025 19.3287 15.1281V16.7479C19.3287 17.1362 19.6501 17.451 20.0465 17.451C20.4429 17.451 20.7643 17.1362 20.7643 16.7479V15.128C20.7643 15.1041 20.7804 15.0836 20.8018 15.0804C21.727 14.9438 23.5628 14.7331 25.4649 14.8573C27.7032 15.0033 29.3245 15.5537 30.2835 16.4932C30.5638 16.7678 31.0183 16.7678 31.2985 16.4932C31.5788 16.2186 31.5788 15.7734 31.2985 15.4989Z" fill="#0B2F64"/>
<path d="M16.9767 37.8469C16.5803 37.8469 16.2589 38.1617 16.2589 38.55V41.5573C16.2589 41.9456 16.5803 42.2604 16.9767 42.2604C17.3731 42.2604 17.6945 41.9456 17.6945 41.5573V38.55C17.6945 38.1618 17.3731 37.8469 16.9767 37.8469Z" fill="#0B2F64"/>
<path d="M33.8608 37.8469C33.4644 37.8469 33.143 38.1617 33.143 38.55V41.5573C33.143 41.9456 33.4644 42.2604 33.8608 42.2604C34.2572 42.2604 34.5786 41.9456 34.5786 41.5573V38.55C34.5786 38.1618 34.2572 37.8469 33.8608 37.8469Z" fill="#0B2F64"/>
</g>
<defs>
<clipPath id="clip0">
<rect x="0.909668" y="0.641968" width="49" height="48" fill="white"/>
</clipPath>
</defs>
</svg>
