<svg width="39" height="40" viewBox="0 0 39 40" fill="none" xmlns="http://www.w3.org/2000/svg">
<g clip-path="url(#clip0)">
<path d="M33.2523 11.0437H6.33564C3.27975 11.0437 0.793945 13.5949 0.793945 16.7311V32.9811C0.793945 36.1173 3.27975 38.6686 6.33564 38.6686H33.2523C36.3081 38.6686 38.794 36.1174 38.794 32.9811V16.7311C38.7939 13.5949 36.3081 11.0437 33.2523 11.0437ZM37.2106 32.9812C37.2106 35.2204 35.4357 37.0437 33.2523 37.0437H6.33564C4.1522 37.0437 2.37733 35.2204 2.37733 32.9812V16.7311C2.37733 14.4919 4.15227 12.6687 6.33564 12.6687H33.2523C35.4358 12.6687 37.2106 14.4919 37.2106 16.7311V32.9812Z" fill="#0B2F64"/>
<path d="M31.6689 22.4187C30.3595 22.4187 29.2939 23.5123 29.2939 24.8562C29.2939 26.2001 30.3595 27.2937 31.6689 27.2937C32.9784 27.2937 34.0439 26.2001 34.0439 24.8562C34.0439 23.5123 32.9784 22.4187 31.6689 22.4187ZM31.6689 25.6687C31.2335 25.6687 30.8773 25.3047 30.8773 24.8562C30.8773 24.4077 31.2335 24.0437 31.6689 24.0437C32.1044 24.0437 32.4606 24.4077 32.4606 24.8562C32.4606 25.3047 32.1044 25.6687 31.6689 25.6687Z" fill="#0B2F64"/>
<path d="M38.0022 19.1687H31.6689C28.6131 19.1687 26.1272 21.7199 26.1272 24.8562C26.1272 27.9925 28.6131 30.5438 31.6689 30.5438H38.0022C38.4392 30.5438 38.7939 30.1797 38.7939 29.7312V19.9812C38.7939 19.5327 38.4392 19.1687 38.0022 19.1687ZM37.2106 28.9187H31.6689C29.4855 28.9187 27.7106 27.0955 27.7106 24.8562C27.7106 22.617 29.4856 20.7938 31.6689 20.7938H37.2106V28.9187Z" fill="#0B2F64"/>
<path d="M33.1684 11.4921L29.8165 4.61182C29.1404 3.22404 27.9735 2.20197 26.5327 1.73397C25.0919 1.26756 23.5655 1.41382 22.2324 2.14834L5.96042 11.1411C5.57567 11.3523 5.43161 11.8464 5.63898 12.2413C5.84642 12.6361 6.32773 12.784 6.71092 12.5712L22.986 3.58159C23.936 3.05509 25.03 2.94944 26.056 3.28422C27.0852 3.61732 27.918 4.34857 28.401 5.33987L31.7529 12.2201C31.8922 12.5044 32.1709 12.6686 32.4607 12.6686C32.5794 12.6686 32.6997 12.6409 32.8137 12.5824C33.2048 12.381 33.3632 11.8935 33.1684 11.4921Z" fill="#0B2F64"/>
<path d="M29.9922 4.97251C29.7832 4.57603 29.3019 4.42978 28.9187 4.64101L17.1562 11.141C16.7714 11.3539 16.6274 11.8462 16.8347 12.2411C16.9772 12.5141 17.2495 12.6685 17.5314 12.6685C17.6581 12.6685 17.7879 12.6377 17.9082 12.5726L29.6708 6.07266C30.0555 5.85976 30.1997 5.36738 29.9922 4.97251Z" fill="#0B2F64"/>
<path d="M15.0439 6.1687H9.50225C4.70164 6.1687 0.793945 10.1776 0.793945 15.1062V16.7312C0.793945 17.1797 1.14864 17.5437 1.58564 17.5437C2.02264 17.5437 2.37733 17.1797 2.37733 16.7312V15.1062C2.37733 11.0746 5.57408 7.79368 9.50233 7.79368H15.0439C15.4809 7.79368 15.8356 7.42965 15.8356 6.98115C15.8356 6.53265 15.4809 6.1687 15.0439 6.1687Z" fill="#0B2F64"/>
<path d="M30.0856 6.1687C29.6486 6.1687 29.2939 6.53273 29.2939 6.98123C29.2939 7.42973 29.6486 7.79375 30.0856 7.79375C34.0139 7.79375 37.2106 11.0746 37.2106 15.1063V16.7312C37.2106 17.1797 37.5653 17.5438 38.0023 17.5438C38.4393 17.5438 38.794 17.1797 38.794 16.7312V15.1063C38.7939 10.1776 34.8863 6.1687 30.0856 6.1687Z" fill="#0B2F64"/>
</g>
<defs>
<clipPath id="clip0">
<rect x="0.793945" y="0.567505" width="38" height="39" fill="white"/>
</clipPath>
</defs>
</svg>
