<svg width="47" height="47" viewBox="0 0 47 47" fill="none" xmlns="http://www.w3.org/2000/svg">
<g clip-path="url(#clip0)">
<path d="M23.3647 23.1211C23.8606 23.1211 24.2631 22.7186 24.2631 22.2227C24.2631 21.7268 23.8606 21.3242 23.3647 21.3242C22.8688 21.3242 22.4662 21.7268 22.4662 22.2227C22.4662 22.7186 22.8688 23.1211 23.3647 23.1211Z" fill="#0B2F64"/>
<path d="M42.7709 15.9336H37.4579L29.2849 4.68944C28.5507 3.43127 26.9335 2.98346 25.649 3.69484C24.347 4.41815 23.8788 6.05815 24.6025 7.36053C24.6232 7.39738 24.646 7.43283 24.6716 7.46652L31.0821 15.9336H15.6473L22.0578 7.46652C22.083 7.43283 22.1062 7.39738 22.1269 7.36053C22.8488 6.06131 22.3859 4.41991 21.0793 3.69414C19.7976 2.98416 18.1804 3.43162 17.4449 4.68873L9.27154 15.9336H3.95849C1.97702 15.9336 0.364746 17.5459 0.364746 19.5273C0.364746 21.0901 1.379 22.4508 2.80772 22.9323C2.96003 23.0502 3.15025 23.1211 3.35731 23.1211C3.39872 23.1211 3.43768 23.1235 3.47839 23.1292C3.86514 23.1811 4.17152 23.4745 4.24171 23.8584L7.29814 40.674C7.53153 41.956 8.64685 42.8867 9.95028 42.8867H36.7791C38.0826 42.8867 39.1979 41.956 39.4313 40.6736L42.4877 23.8588C42.5579 23.4745 42.8646 23.1811 43.2528 23.1292C43.2921 23.1235 43.331 23.1211 43.3721 23.1211C43.5806 23.1211 43.7722 23.0495 43.9245 22.9302C45.3543 22.4455 46.3647 21.0873 46.3647 19.5273C46.3647 17.5459 44.7524 15.9336 42.7709 15.9336ZM26.1488 6.44069C25.9435 6.01568 26.1028 5.49803 26.5205 5.2664C26.9553 5.0253 27.5035 5.18077 27.7432 5.61279C27.7607 5.64508 27.7807 5.67596 27.8021 5.70544L35.2363 15.9336H33.3356L26.1488 6.44069ZM18.9273 5.70579C18.9487 5.67631 18.968 5.64578 18.9859 5.6142C19.2263 5.18182 19.7748 5.026 20.2079 5.2657C20.6262 5.49803 20.7863 6.01498 20.5806 6.44069L13.3938 15.9336H11.4931L18.9273 5.70579ZM42.7709 21.3242H26.9584C26.4622 21.3242 26.06 21.7264 26.06 22.2227C26.06 22.7189 26.4622 23.112 26.9584 23.112H40.8302C40.7831 23.246 40.7459 23.385 40.72 23.5282L37.6632 40.3521C37.5856 40.7796 37.2136 41.0898 36.7791 41.0898H9.95028C9.51545 41.0898 9.1438 40.7796 9.06589 40.3525L6.00945 23.537C5.98348 23.3938 5.94628 23.2548 5.89925 23.1211H19.771C20.2672 23.1211 20.6694 22.7189 20.6694 22.2227C20.6694 21.7264 20.2672 21.3242 19.771 21.3242H3.95849C2.95933 21.3242 2.16162 20.51 2.16162 19.5273C2.16162 18.5366 2.96775 17.7305 3.95849 17.7305H42.7709C43.7616 17.7305 44.5678 18.5366 44.5678 19.5273C44.5678 20.5251 43.7515 21.3242 42.7709 21.3242Z" fill="#0B2F64"/>
<path d="M23.3647 25.8164C21.8784 25.8164 20.6694 27.0254 20.6694 28.5117V35.6992C20.6694 37.1855 21.8784 38.3945 23.3647 38.3945C24.851 38.3945 26.06 37.1855 26.06 35.6992V28.5117C26.06 27.0226 24.8538 25.8164 23.3647 25.8164ZM24.2631 35.6992C24.2631 36.1948 23.8603 36.5977 23.3647 36.5977C22.8692 36.5977 22.4663 36.1948 22.4663 35.6992V28.5117C22.4663 28.0162 22.8692 27.6133 23.3647 27.6133C23.8606 27.6133 24.2631 28.0158 24.2631 28.5117V35.6992Z" fill="#0B2F64"/>
<path d="M32.3491 38.3945C33.8354 38.3945 35.0444 37.1855 35.0444 35.6992V28.5117C35.0444 27.0226 33.8382 25.8164 32.3491 25.8164C30.8628 25.8164 29.6538 27.0254 29.6538 28.5117V35.6992C29.6538 37.1855 30.8628 38.3945 32.3491 38.3945ZM31.4506 28.5117C31.4506 28.0162 31.8535 27.6133 32.3491 27.6133C32.845 27.6133 33.2475 28.0158 33.2475 28.5117V35.6992C33.2475 36.1948 32.8446 36.5977 32.3491 36.5977C31.8535 36.5977 31.4506 36.1948 31.4506 35.6992V28.5117Z" fill="#0B2F64"/>
<path d="M14.3803 25.8164C12.8941 25.8164 11.685 27.0254 11.685 28.5117V35.6992C11.685 37.1855 12.8941 38.3945 14.3803 38.3945C15.8666 38.3945 17.0756 37.1855 17.0756 35.6992V28.5117C17.0756 27.0226 15.8694 25.8164 14.3803 25.8164ZM15.2788 35.6992C15.2788 36.1948 14.8759 36.5977 14.3803 36.5977C13.8848 36.5977 13.4819 36.1948 13.4819 35.6992V28.5117C13.4819 28.0162 13.8848 27.6133 14.3803 27.6133C14.8762 27.6133 15.2788 28.0155 15.2788 28.5117V35.6992Z" fill="#0B2F64"/>
<g clip-path="url(#clip1)">
<path d="M202.273 -95.5848H-160.393C-201.567 -95.5848 -235.06 -62.0918 -235.06 -20.9188V192.414C-235.06 233.587 -201.567 267.081 -160.393 267.081H202.274C243.447 267.081 276.941 233.588 276.941 192.414V-20.9188C276.94 -62.0918 243.447 -95.5848 202.273 -95.5848ZM255.607 192.415C255.607 221.812 231.692 245.748 202.274 245.748H-160.393C-189.812 245.748 -213.726 221.812 -213.726 192.415V-20.9188C-213.726 -50.3158 -189.811 -74.2518 -160.393 -74.2518H202.274C231.693 -74.2518 255.607 -50.3158 255.607 -20.9188V192.415Z" fill="black"/>
</g>
</g>
<defs>
<clipPath id="clip0">
<rect x="0.364746" y="0.122192" width="46" height="46" fill="white"/>
</clipPath>
<clipPath id="clip1">
<rect x="-235.06" y="-233.118" width="512" height="512" fill="white"/>
</clipPath>
</defs>
</svg>
