<svg width="51" height="51" viewBox="0 0 51 51" fill="none" xmlns="http://www.w3.org/2000/svg">
<g clip-path="url(#clip0)">
<path d="M48.4145 20.9002L47.3248 19.7463L43.5 9.4365C42.8483 7.69505 41.1816 6.5412 39.3226 6.53052H12.0043C10.1453 6.53052 8.47861 7.69505 7.8269 9.4365L4.05554 19.6181L2.48502 21.0711C1.1175 22.2356 0.326904 23.945 0.326904 25.7399V40.7613C0.337588 43.2186 2.33545 45.2057 4.79272 45.2057H7.61323C10.0705 45.2057 12.0684 43.2186 12.079 40.7613V38.5818H38.5748V40.7613C38.5855 43.2186 40.5833 45.2057 43.0406 45.2057H45.8611C48.3184 45.2057 50.3162 43.2186 50.3269 40.7613V25.3446C50.3162 23.6673 49.6325 22.0647 48.4145 20.9002ZM9.83545 10.163C10.1773 9.25488 11.0427 8.66727 12.0043 8.66727H39.3333C40.2949 8.66727 41.1602 9.26556 41.5021 10.163L44.8355 19.1374H42.3461C41.7585 15.1309 38.0299 12.3639 34.0235 12.9621C30.829 13.4322 28.3184 15.9429 27.8483 19.1374H6.50212L9.83545 10.163ZM40.1666 19.1374H30.0064C30.594 16.3275 33.3504 14.5327 36.1602 15.1203C38.1688 15.5476 39.7393 17.1181 40.1666 19.1374ZM9.94229 40.7613C9.93161 42.0433 8.89528 43.069 7.61323 43.069H4.79272C3.51066 43.069 2.47434 42.0433 2.46366 40.7613V37.9621C3.10468 38.3788 3.9487 38.5818 4.79272 38.5818H9.94229V40.7613ZM48.1902 40.7613C48.1795 42.0433 47.1431 43.069 45.8611 43.069H43.0406C41.7585 43.069 40.7222 42.0327 40.7115 40.7613V38.5818H45.8611C46.7051 38.5818 47.5491 38.3788 48.1902 37.9621V40.7613ZM45.8611 36.445H4.79272C3.52135 36.4557 2.47434 35.4408 2.46366 34.1587V25.7399C2.46366 24.5647 2.98716 23.4429 3.8846 22.6844C3.89528 22.6737 3.91665 22.6523 3.92733 22.6416L5.38032 21.2741H45.8397L46.8654 22.3745C46.876 22.3959 46.9081 22.4066 46.9188 22.428C47.7201 23.1865 48.1795 24.2442 48.1795 25.3446V34.1587H48.1902C48.1795 35.4301 47.1325 36.4557 45.8611 36.445Z" fill="#0B2F64"/>
<path d="M14.4295 25.5476H6.41664C5.82904 25.5476 5.34827 26.0284 5.34827 26.616V32.1715C5.34827 32.7591 5.82904 33.2399 6.41664 33.2399H14.4295C15.0171 33.2399 15.4978 32.7591 15.4978 32.1715V26.616C15.4978 26.0284 15.0171 25.5476 14.4295 25.5476ZM13.3611 31.1032H7.48502V27.6844H13.3611V31.1032Z" fill="#0B2F64"/>
<path d="M44.2372 25.5476H36.2244C35.6368 25.5476 35.156 26.0284 35.156 26.616V32.1715C35.156 32.7591 35.6368 33.2399 36.2244 33.2399H44.2372C44.8248 33.2399 45.3056 32.7591 45.3056 32.1715V26.616C45.3056 26.0284 44.8248 25.5476 44.2372 25.5476ZM43.1688 31.1032H37.2928V27.6844H43.1688V31.1032Z" fill="#0B2F64"/>
<path d="M30.4872 30.0349H20.1666C19.579 30.0349 19.0983 30.5157 19.0983 31.1033C19.0983 31.6909 19.579 32.1717 20.1666 32.1717H30.4872C31.0748 32.1717 31.5555 31.6909 31.5555 31.1033C31.5555 30.5157 31.0748 30.0349 30.4872 30.0349Z" fill="#0B2F64"/>
<path d="M30.4872 26.7229H20.1666C19.579 26.7229 19.0983 27.2037 19.0983 27.7913C19.0983 28.3789 19.579 28.8597 20.1666 28.8597H30.4872C31.0748 28.8597 31.5555 28.3789 31.5555 27.7913C31.5555 27.2037 31.0748 26.7229 30.4872 26.7229Z" fill="#0B2F64"/>
</g>
<defs>
<clipPath id="clip0">
<rect x="0.326904" y="0.868164" width="50" height="50" fill="white"/>
</clipPath>
</defs>
</svg>
