<svg width="51" height="51" viewBox="0 0 51 51" fill="none" xmlns="http://www.w3.org/2000/svg">
<g clip-path="url(#clip0)">
<path d="M33.8374 0.239746C33.2981 0.239746 32.8608 0.677051 32.8608 1.21631V5.7085C32.8608 6.24775 33.2981 6.68506 33.8374 6.68506C34.3767 6.68506 34.814 6.24775 34.814 5.7085V1.21631C34.814 0.677051 34.3767 0.239746 33.8374 0.239746Z" fill="#0B2F64"/>
<path d="M11.3765 30.7085C10.8374 30.7085 10.3999 31.146 10.3999 31.6851C10.3999 32.2241 10.8374 32.6616 11.3765 32.6616C11.9155 32.6616 12.353 32.2241 12.353 31.6851C12.353 31.146 11.9155 30.7085 11.3765 30.7085Z" fill="#0B2F64"/>
<path d="M47.5093 28.7554C47.5093 26.6015 45.7569 24.8491 43.603 24.8491H36.3128C37.4414 21.9582 37.8982 18.5555 37.8102 15.5265C37.7934 14.9484 37.7712 14.6142 37.7412 14.4037C37.6907 12.2937 35.9581 10.5913 33.8374 10.5913C31.6835 10.5913 29.9312 12.3437 29.9312 14.4976V15.4741C29.9312 21.6505 22.0001 25.1207 16.0147 26.6088C15.5622 25.5742 14.5292 24.8491 13.3296 24.8491H3.56396C3.02471 24.8491 2.5874 25.2864 2.5874 25.8257V49.2632C2.5874 49.8024 3.02471 50.2397 3.56396 50.2397H13.3296C14.5212 50.2397 15.5482 49.5242 16.0055 48.5006C16.5011 48.6277 16.9611 48.7479 17.3858 48.8588C20.7955 49.7493 22.6737 50.2397 27.2417 50.2397H37.7437C39.8976 50.2397 41.6499 48.4874 41.6499 46.3335C41.6499 45.5304 41.4061 44.7833 40.9888 44.1618C42.4974 43.6342 43.603 42.1928 43.603 40.4741C43.603 39.6739 43.3651 38.9244 42.9491 38.3001C44.4511 37.7716 45.5562 36.3335 45.5562 34.6147C45.5562 33.8116 45.3123 33.0646 44.895 32.4431C46.4036 31.9154 47.5093 30.474 47.5093 28.7554ZM14.3062 47.3101C14.3062 47.8485 13.8681 48.2866 13.3296 48.2866H4.54053V26.8022H13.3296C13.8681 26.8022 14.3062 27.2403 14.3062 27.7788V47.3101ZM43.603 30.7085C41.5084 30.7085 41.0091 30.7085 38.7202 30.7085C38.181 30.7085 37.7437 31.1458 37.7437 31.6851C37.7437 32.2243 38.181 32.6616 38.7202 32.6616H41.6499C42.7269 32.6616 43.603 33.5378 43.603 34.6147C43.603 35.6935 42.7286 36.5679 41.6499 36.5679H36.7671C36.2278 36.5679 35.7905 37.0052 35.7905 37.5444C35.7905 38.0837 36.2278 38.521 36.7671 38.521H39.6968C40.7609 38.521 41.6499 39.3711 41.6499 40.4741C41.6499 41.5528 40.7755 42.4272 39.6968 42.4272C37.6021 42.4272 37.1028 42.4272 34.814 42.4272C34.2747 42.4272 33.8374 42.8646 33.8374 43.4038C33.8374 43.9431 34.2747 44.3804 34.814 44.3804H37.7437C38.8206 44.3804 39.6968 45.2565 39.6968 46.3335C39.6968 47.4104 38.8206 48.2866 37.7437 48.2866H27.2417C22.9246 48.2866 21.2385 47.8463 17.8794 46.969C17.3873 46.8405 16.8476 46.6996 16.2593 46.5496V28.5625C23.3265 26.8791 31.8843 22.7701 31.8843 15.4741V14.4976C31.8843 13.4206 32.7604 12.5444 33.8374 12.5444C34.9124 12.5444 35.7885 13.4192 35.7905 14.4945V14.4976C35.7905 14.922 36.3202 20.1307 34.1962 24.8491H30.9077C30.3685 24.8491 29.9312 25.2864 29.9312 25.8257C29.9312 26.3649 30.3685 26.8022 30.9077 26.8022C31.5896 26.8022 42.4899 26.8022 43.603 26.8022C44.68 26.8022 45.5562 27.6784 45.5562 28.7554C45.5562 29.8341 44.6817 30.7085 43.603 30.7085Z" fill="#0B2F64"/>
<path d="M11.3765 34.6147C10.8372 34.6147 10.3999 35.0521 10.3999 35.5913V43.4038C10.3999 43.9431 10.8372 44.3804 11.3765 44.3804C11.9157 44.3804 12.353 43.9431 12.353 43.4038V35.5913C12.353 35.0521 11.9157 34.6147 11.3765 34.6147Z" fill="#0B2F64"/>
<path d="M26.0249 12.5444H22.1187C21.5794 12.5444 21.1421 12.9817 21.1421 13.521C21.1421 14.0603 21.5794 14.4976 22.1187 14.4976H26.0249C26.5642 14.4976 27.0015 14.0603 27.0015 13.521C27.0015 12.9817 26.5642 12.5444 26.0249 12.5444Z" fill="#0B2F64"/>
<path d="M45.5562 12.5444H41.6499C41.1106 12.5444 40.6733 12.9817 40.6733 13.521C40.6733 14.0603 41.1106 14.4976 41.6499 14.4976H45.5562C46.0954 14.4976 46.5327 14.0603 46.5327 13.521C46.5327 12.9817 46.0954 12.5444 45.5562 12.5444Z" fill="#0B2F64"/>
<path d="M42.814 4.54424C42.4326 4.16299 41.8144 4.16299 41.4329 4.54424L38.6713 7.30586C38.2899 7.68721 38.2899 8.30557 38.6713 8.68701C39.0528 9.06836 39.6709 9.06826 40.0524 8.68701L42.814 5.92539C43.1954 5.54404 43.1954 4.92568 42.814 4.54424Z" fill="#0B2F64"/>
<path d="M29.0035 7.30586L26.2419 4.54424C25.8604 4.16299 25.2423 4.16299 24.8607 4.54424C24.4794 4.92559 24.4794 5.54395 24.8607 5.92539L27.6223 8.68701C28.004 9.06836 28.622 9.06826 29.0035 8.68701C29.3848 8.30566 29.3848 7.6873 29.0035 7.30586Z" fill="#0B2F64"/>
</g>
<defs>
<clipPath id="clip0">
<rect x="0.0483398" y="0.239746" width="50" height="50" fill="white"/>
</clipPath>
</defs>
</svg>
