<svg width="65" height="64" viewBox="0 0 65 64" fill="none" xmlns="http://www.w3.org/2000/svg">
<g clip-path="url(#clip0)">
<path d="M45.7092 50.6851L43.7141 49.7962L37.2818 45.7771C36.9582 45.5748 36.7796 45.2057 36.8267 44.8367C37.1174 42.5604 36.5891 40.2753 35.8697 38.9533C35.9068 38.7399 35.9721 38.3174 35.9824 38.1134C36.9484 36.5077 37.0488 35.6957 37.4363 34.8556C37.5359 34.6402 37.6199 34.3983 37.6792 34.156C37.8006 33.6607 37.4909 33.1619 36.9876 33.0425C36.4842 32.923 35.9777 33.2278 35.8563 33.7233C35.7587 34.1212 35.6504 34.1585 35.3209 35.1403C34.211 38.4472 31.246 40.8437 30.3638 41.4994C29.616 42.0551 29.4657 42.5853 28.3528 44.2061C27.6848 45.2278 26.1596 45.0003 25.9794 44.1826C25.8906 43.7799 26.1369 43.5267 26.1414 43.5144C26.5285 43.0263 26.5859 42.3586 26.2878 41.814C26.2514 41.7478 26.2788 41.7945 28.1812 40.7182C28.915 40.3109 28.2445 40.696 33.0955 33.6527C33.6729 32.8143 32.5439 32.5507 32.3307 28.0811L35.4879 27.8106C35.6626 28.3501 35.7844 28.9888 35.8513 29.718C35.8978 30.2257 36.3554 30.6001 36.8694 30.5542C37.3852 30.5084 37.7656 30.0597 37.7189 29.552C37.6391 28.6813 37.4859 27.9046 37.2647 27.228C37.5711 26.9009 37.7437 26.4543 37.7014 25.9771L37.4862 23.542C37.3592 22.1057 36.4631 20.9138 35.2243 20.322C34.0133 18.5523 34.3585 16.4979 34.4997 15.8872C37.3551 12.8052 38.5577 9.88459 38.0723 7.20327C37.4833 3.95052 34.6059 2.27498 34.0897 1.99825C33.7743 1.77651 32.4238 0.885283 30.5705 0.485256C28.6057 0.0608661 25.6949 0.116114 22.9836 2.78489C21.1636 4.57646 21.0016 6.58705 22.8024 8.31267C22.4454 9.59236 22.3874 10.9198 22.3788 11.4173L21.6521 13.1082C21.4847 13.4976 21.4947 13.9399 21.6795 14.3217C22.1759 15.347 23.3449 15.1201 23.3933 15.3744C23.7959 17.5027 24.9694 18.856 26.6131 19.0871C27.7208 19.2428 28.1223 20.4856 28.2612 21.1812C27.7776 21.5887 27.3845 22.0858 27.0946 22.6687C25.7899 25.2928 24.5323 31.7891 25.5755 36.8735L23.6331 41.1159C22.0911 44.4838 22.9625 47.0866 22.9826 49.6269C23.0165 50.1139 23.4284 50.4866 23.9171 50.4866C24.4633 50.4866 24.8904 50.0321 24.8534 49.5005C24.5971 45.7632 24.5975 45.9392 24.5881 45.5505C25.7456 47.1414 28.6094 47.2252 29.9303 45.2046L31.1527 43.335C31.4415 42.8936 31.7257 42.9207 33.1354 41.5919C32.6493 42.7005 31.9295 43.8703 30.8683 44.7927C30.2397 45.3391 29.879 46.1384 29.879 46.9853C29.879 48.568 29.879 53.7222 29.879 56.4119H25.3344L25.1531 53.8076C25.1176 53.299 24.67 52.9153 24.1536 52.9498C23.637 52.9846 23.247 53.425 23.2824 53.9337L23.4716 56.6527C21.3481 57.3538 19.6559 58.8398 19.0537 60.5861C18.564 62.0074 19.7969 63.4542 21.4025 63.273C30.8415 63.227 30.258 63.2335 30.3275 63.2275C31.4462 63.1333 31.9997 62.2211 31.9465 61.1243L31.7544 57.3111V51.582L38.1647 55.6992C38.4213 55.8639 38.6989 55.9723 38.9828 56.0289C39.2832 58.989 41.4714 63.0355 44.0823 61.7455C44.7416 61.4199 45.183 60.8039 45.2751 60.0874C46.5822 54.8588 47.0151 53.1395 47.0246 53.0794C47.1815 52.0851 46.641 51.1005 45.7092 50.6851ZM34.8588 22.2729C35.2989 22.6366 35.5684 23.1442 35.6177 23.7021L35.8147 25.9296C33.9173 26.0921 32.9569 26.1745 31.684 26.2836L31.475 23.9201C31.3183 22.1469 33.4343 21.0949 34.8588 22.2729ZM24.3089 4.09042C28.327 0.13531 32.833 3.37711 33.0259 3.51948C33.0702 3.55246 33.1174 3.58137 33.167 3.60598C33.1929 3.6189 35.7542 4.9232 36.2258 7.52726C36.5671 9.41197 35.7473 11.5459 33.7873 13.8823L33.2415 13.0004C33.2253 12.5141 33.6592 11.393 32.7423 10.4061C31.807 9.39954 30.5924 9.75589 29.9994 9.68575C27.6744 9.12872 23.929 7.67282 23.4543 6.02805C23.3931 5.8169 23.2078 5.17447 24.3089 4.09042ZM26.8775 17.2599C25.7861 17.1065 25.3805 15.8012 25.2359 15.0366C24.9761 13.665 23.577 13.4611 23.5439 13.4426L24.1779 11.9672C24.3454 11.5772 24.1504 11.1007 24.4463 9.51188C26.4548 10.6695 29.5154 11.5396 29.8918 11.5318C30.4338 11.5306 30.9155 11.5295 31.0755 11.5291C31.3008 11.5291 31.4782 11.7196 31.4574 11.9415C31.4043 12.9552 31.2203 13.2827 31.4789 13.7003L32.6459 15.5855C32.4769 16.3644 32.242 18.0936 32.9174 19.9051C31.9275 19.8325 30.8845 19.9318 29.956 20.2441C29.4954 18.6966 28.5059 17.4889 26.8775 17.2599ZM28.7782 23.4803C29.0267 22.9804 29.3973 22.5849 29.8857 22.2967C29.3185 23.6474 29.7407 24.5821 29.8503 26.8299C29.8857 27.2305 30.0837 27.6097 30.444 27.8739C30.478 28.9209 30.6297 31.0506 31.2787 33.0021C30.863 33.6084 30.027 34.8323 29.2062 36.0612C29.1314 36.0559 29.4898 36.06 27.3274 36.0579C26.5574 31.5962 27.6034 25.8433 28.7782 23.4803ZM27.1603 37.9033H27.9939C27.6761 38.397 27.4096 38.824 27.239 39.1217L26.3854 39.5958L27.1603 37.9033ZM30.0603 61.3861C20.7842 61.4334 21.3285 61.4196 21.2039 61.4372C20.9964 61.4679 20.7757 61.3328 20.8284 61.1797C21.3514 59.6633 23.0656 58.6293 24.5694 58.2581H29.9237C30.055 61.0968 30.0899 61.1473 30.0603 61.3861ZM39.1884 54.1536L31.7534 49.3781C31.8413 47.3361 31.5265 46.6823 32.1085 46.1765C33.4674 44.9955 34.3542 43.5158 34.932 42.1483C35.0409 42.8529 35.0837 43.6867 34.9663 44.6061C34.8291 45.6805 35.3434 46.7517 36.2768 47.3352L41.9598 50.8862L39.8653 54.0151C39.7174 54.2361 39.4141 54.2985 39.1884 54.1536ZM45.1745 52.767C43.3368 60.128 43.4273 59.7121 43.4153 59.843C43.3938 60.0774 43.1306 60.2077 42.9232 60.0822C41.7461 59.3716 40.9738 57.3422 40.8324 55.6421C41.4501 55.2086 41.4865 54.864 43.6102 51.7762L44.9362 52.3669C45.0937 52.4371 45.1888 52.599 45.1745 52.767Z" fill="#0B2F64"/>
</g>
<defs>
<clipPath id="clip0">
<rect x="0.997803" y="0.28833" width="64" height="63" fill="white"/>
</clipPath>
</defs>
</svg>
