<svg width="48" height="48" viewBox="0 0 48 48" fill="none" xmlns="http://www.w3.org/2000/svg">
<g clip-path="url(#clip0)">
<path d="M3.28384 9.96543H4.8505V10.7488C4.8505 11.1814 5.20121 11.5321 5.63384 11.5321C6.06646 11.5321 6.41717 11.1814 6.41717 10.7488V9.96543H7.98384C9.28171 9.96543 10.3338 8.9133 10.3338 7.61543V6.04876H11.1172C11.5498 6.04876 11.9005 5.69805 11.9005 5.26543C11.9005 4.83281 11.5498 4.4821 11.1172 4.4821H10.3338V2.91543C10.3338 1.61756 9.28171 0.56543 7.98384 0.56543H3.28384C1.98597 0.56543 0.933838 1.61756 0.933838 2.91543V7.61543C0.933838 8.9133 1.98597 9.96543 3.28384 9.96543ZM2.5005 2.91543C2.5005 2.48281 2.85121 2.1321 3.28384 2.1321H7.98384C8.41646 2.1321 8.76717 2.48281 8.76717 2.91543V7.61543C8.76717 8.04805 8.41646 8.39876 7.98384 8.39876H3.28384C2.85121 8.39876 2.5005 8.04805 2.5005 7.61543V2.91543Z" fill="#48505B"/>
<path d="M14.2505 16.232V31.8987C14.2505 33.1966 15.3026 34.2487 16.6005 34.2487H32.2672C33.565 34.2487 34.6171 33.1966 34.6171 31.8987V16.232C34.6171 14.9342 33.565 13.882 32.2672 13.882H16.6005C15.3026 13.882 14.2505 14.9342 14.2505 16.232ZM33.0505 16.232V31.8987C33.0505 32.3313 32.6998 32.682 32.2672 32.682H16.6005C16.1679 32.682 15.8172 32.3313 15.8172 31.8987V16.232C15.8172 15.7994 16.1679 15.4487 16.6005 15.4487H32.2672C32.6998 15.4487 33.0505 15.7994 33.0505 16.232Z" fill="#48505B"/>
<path d="M3.28384 47.5655H7.98384C9.28171 47.5655 10.3338 46.5134 10.3338 45.2155V43.6488H11.1172C11.5498 43.6488 11.9005 43.2981 11.9005 42.8655C11.9005 42.4329 11.5498 42.0822 11.1172 42.0822H10.3338V40.5155C10.3338 39.2176 9.28171 38.1655 7.98384 38.1655H6.41717V37.3821C6.41717 36.9495 6.06646 36.5988 5.63384 36.5988C5.20121 36.5988 4.8505 36.9495 4.8505 37.3821V38.1655H3.28384C1.98597 38.1655 0.933838 39.2176 0.933838 40.5155V45.2155C0.933838 46.5134 1.98597 47.5655 3.28384 47.5655ZM2.5005 40.5155C2.5005 40.0829 2.85121 39.7322 3.28384 39.7322H7.98384C8.41646 39.7322 8.76717 40.0829 8.76717 40.5155V45.2155C8.76717 45.6481 8.41646 45.9988 7.98384 45.9988H3.28384C2.85121 45.9988 2.5005 45.6481 2.5005 45.2155V40.5155Z" fill="#48505B"/>
<path d="M45.5838 0.56543H40.8838C39.586 0.56543 38.5338 1.61756 38.5338 2.91543V4.4821H37.7505C37.3179 4.4821 36.9672 4.83281 36.9672 5.26543C36.9672 5.69805 37.3179 6.04876 37.7505 6.04876H38.5338V7.61543C38.5338 8.9133 39.586 9.96543 40.8838 9.96543H42.4505V10.7488C42.4505 11.1814 42.8012 11.5321 43.2338 11.5321C43.6665 11.5321 44.0172 11.1814 44.0172 10.7488V9.96543H45.5838C46.8817 9.96543 47.9338 8.9133 47.9338 7.61543V2.91543C47.9338 1.61756 46.8817 0.56543 45.5838 0.56543ZM46.3672 7.61543C46.3672 8.04805 46.0165 8.39876 45.5838 8.39876H40.8838C40.4512 8.39876 40.1005 8.04805 40.1005 7.61543V2.91543C40.1005 2.48281 40.4512 2.1321 40.8838 2.1321H45.5838C46.0165 2.1321 46.3672 2.48281 46.3672 2.91543V7.61543Z" fill="#48505B"/>
<path d="M45.5838 38.1655H44.0172V37.3821C44.0172 36.9495 43.6665 36.5988 43.2338 36.5988C42.8012 36.5988 42.4505 36.9495 42.4505 37.3821V38.1655H40.8838C39.586 38.1655 38.5338 39.2176 38.5338 40.5155V42.0822H37.7505C37.3179 42.0822 36.9672 42.4329 36.9672 42.8655C36.9672 43.2981 37.3179 43.6488 37.7505 43.6488H38.5338V45.2155C38.5338 46.5134 39.586 47.5655 40.8838 47.5655H45.5838C46.8817 47.5655 47.9338 46.5134 47.9338 45.2155V40.5155C47.9338 39.2176 46.8817 38.1655 45.5838 38.1655ZM46.3672 45.2155C46.3672 45.6481 46.0165 45.9988 45.5838 45.9988H40.8838C40.4512 45.9988 40.1005 45.6481 40.1005 45.2155V40.5155C40.1005 40.0829 40.4512 39.7322 40.8838 39.7322H45.5838C46.0165 39.7322 46.3672 40.0829 46.3672 40.5155V45.2155Z" fill="#48505B"/>
<path d="M15.8172 4.48218H14.2505C13.8179 4.48218 13.4672 4.83289 13.4672 5.26551C13.4672 5.69813 13.8179 6.04884 14.2505 6.04884H15.8172C16.2498 6.04884 16.6005 5.69813 16.6005 5.26551C16.6005 4.83289 16.2498 4.48218 15.8172 4.48218Z" fill="#48505B"/>
<path d="M20.5172 6.04884C20.9499 6.04884 21.3006 5.69813 21.3006 5.26551C21.3006 4.83289 20.9499 4.48218 20.5172 4.48218H18.9506C18.5179 4.48218 18.1672 4.83289 18.1672 5.26551C18.1672 5.69813 18.5179 6.04884 18.9506 6.04884H20.5172Z" fill="#48505B"/>
<path d="M25.2172 6.04884C25.6498 6.04884 26.0005 5.69813 26.0005 5.26551C26.0005 4.83289 25.6498 4.48218 25.2172 4.48218H23.6505C23.2179 4.48218 22.8672 4.83289 22.8672 5.26551C22.8672 5.69813 23.2179 6.04884 23.6505 6.04884H25.2172Z" fill="#48505B"/>
<path d="M29.9171 6.04884C30.3498 6.04884 30.7005 5.69813 30.7005 5.26551C30.7005 4.83289 30.3498 4.48218 29.9171 4.48218H28.3505C27.9178 4.48218 27.5671 4.83289 27.5671 5.26551C27.5671 5.69813 27.9178 6.04884 28.3505 6.04884H29.9171Z" fill="#48505B"/>
<path d="M34.6172 4.48218H33.0505C32.6179 4.48218 32.2672 4.83289 32.2672 5.26551C32.2672 5.69813 32.6179 6.04884 33.0505 6.04884H34.6172C35.0498 6.04884 35.4005 5.69813 35.4005 5.26551C35.4005 4.83289 35.0498 4.48218 34.6172 4.48218Z" fill="#48505B"/>
<path d="M14.2505 43.6488H15.8172C16.2498 43.6488 16.6005 43.2981 16.6005 42.8655C16.6005 42.4329 16.2498 42.0822 15.8172 42.0822H14.2505C13.8179 42.0822 13.4672 42.4329 13.4672 42.8655C13.4672 43.2981 13.8179 43.6488 14.2505 43.6488Z" fill="#48505B"/>
<path d="M18.9506 42.0822C18.5179 42.0822 18.1672 42.4329 18.1672 42.8655C18.1672 43.2981 18.5179 43.6488 18.9506 43.6488H20.5172C20.9499 43.6488 21.3006 43.2981 21.3006 42.8655C21.3006 42.4329 20.9499 42.0822 20.5172 42.0822H18.9506Z" fill="#48505B"/>
<path d="M23.6505 42.0822C23.2179 42.0822 22.8672 42.4329 22.8672 42.8655C22.8672 43.2981 23.2179 43.6488 23.6505 43.6488H25.2172C25.6498 43.6488 26.0005 43.2981 26.0005 42.8655C26.0005 42.4329 25.6498 42.0822 25.2172 42.0822H23.6505Z" fill="#48505B"/>
<path d="M28.3505 42.0822C27.9178 42.0822 27.5671 42.4329 27.5671 42.8655C27.5671 43.2981 27.9178 43.6488 28.3505 43.6488H29.9171C30.3498 43.6488 30.7005 43.2981 30.7005 42.8655C30.7005 42.4329 30.3498 42.0822 29.9171 42.0822H28.3505Z" fill="#48505B"/>
<path d="M34.6172 42.0822H33.0505C32.6179 42.0822 32.2672 42.4329 32.2672 42.8655C32.2672 43.2981 32.6179 43.6488 33.0505 43.6488H34.6172C35.0498 43.6488 35.4005 43.2981 35.4005 42.8655C35.4005 42.4329 35.0498 42.0822 34.6172 42.0822Z" fill="#48505B"/>
<path d="M5.6338 31.8987C5.20117 31.8987 4.85046 32.2494 4.85046 32.682V34.2487C4.85046 34.6813 5.20117 35.032 5.6338 35.032C6.06642 35.032 6.41713 34.6813 6.41713 34.2487V32.682C6.41713 32.2494 6.06642 31.8987 5.6338 31.8987Z" fill="#48505B"/>
<path d="M6.41713 27.9821C6.41713 27.5495 6.06642 27.1988 5.6338 27.1988C5.20117 27.1988 4.85046 27.5495 4.85046 27.9821V29.5488C4.85046 29.9814 5.20117 30.3321 5.6338 30.3321C6.06642 30.3321 6.41713 29.9814 6.41713 29.5488V27.9821Z" fill="#48505B"/>
<path d="M6.41713 23.2822C6.41713 22.8496 6.06642 22.4988 5.6338 22.4988C5.20117 22.4988 4.85046 22.8496 4.85046 23.2822V24.8488C4.85046 25.2815 5.20117 25.6322 5.6338 25.6322C6.06642 25.6322 6.41713 25.2815 6.41713 24.8488V23.2822Z" fill="#48505B"/>
<path d="M6.41713 18.582C6.41713 18.1494 6.06642 17.7987 5.6338 17.7987C5.20117 17.7987 4.85046 18.1494 4.85046 18.582V20.1487C4.85046 20.5813 5.20117 20.932 5.6338 20.932C6.06642 20.932 6.41713 20.5813 6.41713 20.1487V18.582Z" fill="#48505B"/>
<path d="M6.41713 13.8821C6.41713 13.4495 6.06642 13.0988 5.6338 13.0988C5.20117 13.0988 4.85046 13.4495 4.85046 13.8821V15.4488C4.85046 15.8814 5.20117 16.2322 5.6338 16.2322C6.06642 16.2322 6.41713 15.8814 6.41713 15.4488V13.8821Z" fill="#48505B"/>
<path d="M42.4506 34.2487C42.4506 34.6813 42.8013 35.032 43.2339 35.032C43.6665 35.032 44.0172 34.6813 44.0172 34.2487V32.682C44.0172 32.2494 43.6665 31.8987 43.2339 31.8987C42.8013 31.8987 42.4506 32.2494 42.4506 32.682V34.2487Z" fill="#48505B"/>
<path d="M42.4506 29.5488C42.4506 29.9814 42.8013 30.3321 43.2339 30.3321C43.6665 30.3321 44.0172 29.9814 44.0172 29.5488V27.9821C44.0172 27.5495 43.6665 27.1988 43.2339 27.1988C42.8013 27.1988 42.4506 27.5495 42.4506 27.9821V29.5488Z" fill="#48505B"/>
<path d="M42.4506 24.8488C42.4506 25.2815 42.8013 25.6322 43.2339 25.6322C43.6665 25.6322 44.0172 25.2815 44.0172 24.8488V23.2822C44.0172 22.8496 43.6665 22.4988 43.2339 22.4988C42.8013 22.4988 42.4506 22.8496 42.4506 23.2822V24.8488Z" fill="#48505B"/>
<path d="M42.4506 20.1487C42.4506 20.5813 42.8013 20.932 43.2339 20.932C43.6665 20.932 44.0172 20.5813 44.0172 20.1487V18.582C44.0172 18.1494 43.6665 17.7987 43.2339 17.7987C42.8013 17.7987 42.4506 18.1494 42.4506 18.582V20.1487Z" fill="#48505B"/>
<path d="M43.2339 16.2322C43.6665 16.2322 44.0172 15.8814 44.0172 15.4488V13.8821C44.0172 13.4495 43.6665 13.0988 43.2339 13.0988C42.8013 13.0988 42.4506 13.4495 42.4506 13.8821V15.4488C42.4506 15.8814 42.8013 16.2322 43.2339 16.2322Z" fill="#48505B"/>
<path d="M22.0839 24.8487H23.6505V26.4154C23.6505 26.848 24.0012 27.1987 24.4339 27.1987C24.8665 27.1987 25.2172 26.848 25.2172 26.4154V24.8487H26.7839C27.2165 24.8487 27.5672 24.498 27.5672 24.0654C27.5672 23.6328 27.2165 23.2821 26.7839 23.2821H25.2172V21.7154C25.2172 21.2828 24.8665 20.9321 24.4339 20.9321C24.0012 20.9321 23.6505 21.2828 23.6505 21.7154V23.2821H22.0839C21.6512 23.2821 21.3005 23.6328 21.3005 24.0654C21.3005 24.498 21.6512 24.8487 22.0839 24.8487Z" fill="#48505B"/>
</g>
<defs>
<clipPath id="clip0">
<rect x="0.933838" y="0.56543" width="47" height="47" fill="white"/>
</clipPath>
</defs>
</svg>
