<svg width="47" height="47" viewBox="0 0 47 47" fill="none" xmlns="http://www.w3.org/2000/svg">
<path d="M41.779 2.65175C41.7132 2.55448 41.6245 2.47484 41.5207 2.41978C41.417 2.36473 41.3013 2.33594 41.1838 2.33594H10.2776C10.1601 2.33594 10.0445 2.36473 9.94071 2.41978C9.83695 2.47484 9.74827 2.55448 9.68242 2.65174C9.61657 2.74901 9.57556 2.86093 9.56298 2.97771C9.5504 3.09449 9.56663 3.21257 9.61025 3.32163L10.9963 6.78684V38.2734H9.55884C9.46445 38.2734 9.37099 38.292 9.28378 38.3281C9.19658 38.3643 9.11734 38.4172 9.0506 38.4839C8.98386 38.5507 8.93091 38.6299 8.89479 38.7171C8.85867 38.8043 8.84009 38.8978 8.84009 38.9922V41.1484H6.68384C6.58945 41.1484 6.49598 41.167 6.40878 41.2031C6.32158 41.2393 6.24234 41.2922 6.1756 41.3589C6.10886 41.4257 6.05591 41.5049 6.01979 41.5921C5.98367 41.6793 5.96509 41.7728 5.96509 41.8672V44.7422C5.96509 44.8366 5.98367 44.93 6.01979 45.0172C6.05591 45.1044 6.10886 45.1837 6.1756 45.2504C6.24234 45.3172 6.32158 45.3701 6.40878 45.4062C6.49598 45.4423 6.58945 45.4609 6.68384 45.4609H39.7463C39.8407 45.4609 39.9342 45.4423 40.0214 45.4062C40.1086 45.3701 40.1878 45.3172 40.2546 45.2504C40.3213 45.1837 40.3743 45.1044 40.4104 45.0172C40.4465 44.93 40.4651 44.8366 40.4651 44.7422V6.78684L41.8512 3.32163C41.8948 3.21258 41.911 3.09449 41.8984 2.97771C41.8859 2.86093 41.8449 2.74901 41.779 2.65175ZM40.1222 3.77344L39.2597 5.92969H12.2017L11.3392 3.77344H40.1222ZM10.2776 39.7109H22.4963V41.1484H10.2776V39.7109ZM19.6213 38.2734H16.0276V29.6484H19.6213V38.2734ZM7.40259 42.5859H22.4963V44.0234H7.40259V42.5859ZM23.9338 44.0234V42.5859H26.8088V41.1484H23.9338V38.9922C23.9338 38.8978 23.9153 38.8043 23.8791 38.7171C23.843 38.6299 23.7901 38.5507 23.7233 38.4839C23.6566 38.4172 23.5773 38.3643 23.4901 38.3281C23.4029 38.292 23.3095 38.2734 23.2151 38.2734H21.0588V28.9297C21.0588 28.8353 21.0403 28.7418 21.0041 28.6546C20.968 28.5674 20.9151 28.4882 20.8483 28.4214C20.7816 28.3547 20.7023 28.3018 20.6151 28.2656C20.5279 28.2295 20.4345 28.2109 20.3401 28.2109H15.3088C15.2144 28.2109 15.121 28.2295 15.0338 28.2656C14.9466 28.3018 14.8673 28.3547 14.8006 28.4214C14.7339 28.4882 14.6809 28.5674 14.6448 28.6546C14.6087 28.7418 14.5901 28.8353 14.5901 28.9297V38.2734H12.4338V27.4922H13.8713V26.0547H12.4338V10.2422H13.8713V8.80469H12.4338V7.36719H39.0276V17.4297H36.8713V18.8672H39.0276V26.7734H36.8713V28.2109H39.0276V39.7109H35.4338V41.1484H39.0276V44.0234H23.9338Z" fill="#48505B"/>
<path d="M19.6213 18.8672H16.0276C15.9332 18.8672 15.8397 18.8858 15.7525 18.9219C15.6653 18.958 15.5861 19.011 15.5193 19.0777C15.4526 19.1444 15.3997 19.2237 15.3635 19.3109C15.3274 19.3981 15.3088 19.4915 15.3088 19.5859V25.3359C15.3088 25.4303 15.3274 25.5238 15.3635 25.611C15.3997 25.6982 15.4526 25.7774 15.5193 25.8442C15.5861 25.9109 15.6653 25.9639 15.7525 26C15.8397 26.0361 15.9332 26.0547 16.0276 26.0547H19.6213C19.7157 26.0547 19.8092 26.0361 19.8964 26C19.9836 25.9639 20.0628 25.9109 20.1296 25.8442C20.1963 25.7774 20.2493 25.6982 20.2854 25.611C20.3215 25.5238 20.3401 25.4303 20.3401 25.3359V19.5859C20.3401 19.4915 20.3215 19.3981 20.2854 19.3109C20.2493 19.2237 20.1963 19.1444 20.1296 19.0777C20.0628 19.011 19.9836 18.958 19.8964 18.9219C19.8092 18.8858 19.7157 18.8672 19.6213 18.8672ZM18.9026 24.6172H16.7463V20.3047H18.9026V24.6172Z" fill="#48505B"/>
<path d="M19.6213 9.52344H16.0276C15.9332 9.52343 15.8397 9.54202 15.7525 9.57814C15.6653 9.61426 15.5861 9.66721 15.5193 9.73395C15.4526 9.80069 15.3997 9.87993 15.3635 9.96713C15.3274 10.0543 15.3088 10.1478 15.3088 10.2422V15.9922C15.3088 16.0866 15.3274 16.18 15.3635 16.2672C15.3997 16.3544 15.4526 16.4337 15.5193 16.5004C15.5861 16.5672 15.6653 16.6201 15.7525 16.6562C15.8397 16.6924 15.9332 16.7109 16.0276 16.7109H19.6213C19.7157 16.7109 19.8092 16.6924 19.8964 16.6562C19.9836 16.6201 20.0628 16.5672 20.1296 16.5004C20.1963 16.4337 20.2493 16.3544 20.2854 16.2672C20.3215 16.18 20.3401 16.0866 20.3401 15.9922V10.2422C20.3401 10.1478 20.3215 10.0543 20.2854 9.96713C20.2493 9.87993 20.1963 9.80069 20.1296 9.73395C20.0628 9.66721 19.9836 9.61426 19.8964 9.57814C19.8092 9.54202 19.7157 9.52343 19.6213 9.52344ZM18.9026 15.2734H16.7463V10.9609H18.9026V15.2734Z" fill="#48505B"/>
<path d="M27.5276 18.8672H23.9338C23.8394 18.8672 23.746 18.8858 23.6588 18.9219C23.5716 18.958 23.4923 19.011 23.4256 19.0777C23.3589 19.1444 23.3059 19.2237 23.2698 19.3109C23.2337 19.3981 23.2151 19.4915 23.2151 19.5859V25.3359C23.2151 25.4303 23.2337 25.5238 23.2698 25.611C23.3059 25.6982 23.3589 25.7774 23.4256 25.8442C23.4923 25.9109 23.5716 25.9639 23.6588 26C23.746 26.0361 23.8394 26.0547 23.9338 26.0547H27.5276C27.622 26.0547 27.7154 26.0361 27.8026 26C27.8898 25.9639 27.9691 25.9109 28.0358 25.8442C28.1026 25.7774 28.1555 25.6982 28.1916 25.611C28.2278 25.5238 28.2463 25.4303 28.2463 25.3359V19.5859C28.2463 19.4915 28.2278 19.3981 28.1916 19.3109C28.1555 19.2237 28.1026 19.1444 28.0358 19.0777C27.9691 19.011 27.8898 18.958 27.8026 18.9219C27.7154 18.8858 27.622 18.8672 27.5276 18.8672ZM26.8088 24.6172H24.6526V20.3047H26.8088V24.6172Z" fill="#48505B"/>
<path d="M27.5276 9.52344H23.9338C23.8394 9.52343 23.746 9.54202 23.6588 9.57814C23.5716 9.61426 23.4923 9.66721 23.4256 9.73395C23.3589 9.80069 23.3059 9.87993 23.2698 9.96713C23.2337 10.0543 23.2151 10.1478 23.2151 10.2422V15.9922C23.2151 16.0866 23.2337 16.18 23.2698 16.2672C23.3059 16.3544 23.3589 16.4337 23.4256 16.5004C23.4923 16.5672 23.5716 16.6201 23.6588 16.6562C23.746 16.6924 23.8394 16.7109 23.9338 16.7109H27.5276C27.622 16.7109 27.7154 16.6924 27.8026 16.6562C27.8898 16.6201 27.9691 16.5672 28.0358 16.5004C28.1026 16.4337 28.1555 16.3544 28.1916 16.2672C28.2278 16.18 28.2463 16.0866 28.2463 15.9922V10.2422C28.2463 10.1478 28.2278 10.0543 28.1916 9.96713C28.1555 9.87993 28.1026 9.80069 28.0358 9.73395C27.9691 9.66721 27.8898 9.61426 27.8026 9.57814C27.7154 9.54202 27.622 9.52343 27.5276 9.52344ZM26.8088 15.2734H24.6526V10.9609H26.8088V15.2734Z" fill="#48505B"/>
<path d="M31.8401 26.0547H35.4338C35.5282 26.0547 35.6217 26.0361 35.7089 26C35.7961 25.9639 35.8753 25.9109 35.9421 25.8442C36.0088 25.7774 36.0618 25.6982 36.0979 25.611C36.134 25.5238 36.1526 25.4303 36.1526 25.3359V19.5859C36.1526 19.4915 36.134 19.3981 36.0979 19.3109C36.0618 19.2237 36.0088 19.1444 35.9421 19.0777C35.8753 19.011 35.7961 18.958 35.7089 18.9219C35.6217 18.8858 35.5282 18.8672 35.4338 18.8672H31.8401C31.7457 18.8672 31.6522 18.8858 31.565 18.9219C31.4778 18.958 31.3986 19.011 31.3318 19.0777C31.2651 19.1444 31.2122 19.2237 31.176 19.3109C31.1399 19.3981 31.1213 19.4915 31.1213 19.5859V25.3359C31.1213 25.4303 31.1399 25.5238 31.176 25.611C31.2122 25.6982 31.2651 25.7774 31.3318 25.8442C31.3986 25.9109 31.4778 25.9639 31.565 26C31.6522 26.0361 31.7457 26.0547 31.8401 26.0547ZM32.5588 20.3047H34.7151V24.6172H32.5588V20.3047Z" fill="#48505B"/>
<path d="M27.5276 28.2109H23.9338C23.8394 28.2109 23.746 28.2295 23.6588 28.2656C23.5716 28.3018 23.4923 28.3547 23.4256 28.4214C23.3589 28.4882 23.3059 28.5674 23.2698 28.6546C23.2337 28.7418 23.2151 28.8353 23.2151 28.9297V34.6797C23.2151 34.7741 23.2337 34.8675 23.2698 34.9547C23.3059 35.0419 23.3589 35.1212 23.4256 35.1879C23.4923 35.2547 23.5716 35.3076 23.6588 35.3437C23.746 35.3798 23.8394 35.3984 23.9338 35.3984H27.5276C27.622 35.3984 27.7154 35.3798 27.8026 35.3437C27.8898 35.3076 27.9691 35.2547 28.0358 35.1879C28.1026 35.1212 28.1555 35.0419 28.1916 34.9547C28.2278 34.8675 28.2463 34.7741 28.2463 34.6797V28.9297C28.2463 28.8353 28.2278 28.7418 28.1916 28.6546C28.1555 28.5674 28.1026 28.4882 28.0358 28.4214C27.9691 28.3547 27.8898 28.3018 27.8026 28.2656C27.7154 28.2295 27.622 28.2109 27.5276 28.2109ZM26.8088 33.9609H24.6526V29.6484H26.8088V33.9609Z" fill="#48505B"/>
<path d="M31.8401 35.3984H35.4338C35.5282 35.3984 35.6217 35.3798 35.7089 35.3437C35.7961 35.3076 35.8753 35.2547 35.9421 35.1879C36.0088 35.1212 36.0618 35.0419 36.0979 34.9547C36.134 34.8675 36.1526 34.7741 36.1526 34.6797V28.9297C36.1526 28.8353 36.134 28.7418 36.0979 28.6546C36.0618 28.5674 36.0088 28.4882 35.9421 28.4214C35.8753 28.3547 35.7961 28.3018 35.7089 28.2656C35.6217 28.2295 35.5282 28.2109 35.4338 28.2109H31.8401C31.7457 28.2109 31.6522 28.2295 31.565 28.2656C31.4778 28.3018 31.3986 28.3547 31.3318 28.4214C31.2651 28.4882 31.2122 28.5674 31.176 28.6546C31.1399 28.7418 31.1213 28.8353 31.1213 28.9297V34.6797C31.1213 34.7741 31.1399 34.8675 31.176 34.9547C31.2122 35.0419 31.2651 35.1212 31.3318 35.1879C31.3986 35.2547 31.4778 35.3076 31.565 35.3437C31.6522 35.3798 31.7457 35.3984 31.8401 35.3984ZM32.5588 29.6484H34.7151V33.9609H32.5588V29.6484Z" fill="#48505B"/>
<path d="M31.8401 16.7109H35.4338C35.5282 16.7109 35.6217 16.6924 35.7089 16.6562C35.7961 16.6201 35.8753 16.5672 35.9421 16.5004C36.0088 16.4337 36.0618 16.3544 36.0979 16.2672C36.134 16.18 36.1526 16.0866 36.1526 15.9922V10.2422C36.1526 10.1478 36.134 10.0543 36.0979 9.96713C36.0618 9.87993 36.0088 9.80069 35.9421 9.73395C35.8753 9.66721 35.7961 9.61426 35.7089 9.57814C35.6217 9.54202 35.5282 9.52343 35.4338 9.52344H31.8401C31.7457 9.52343 31.6522 9.54202 31.565 9.57814C31.4778 9.61426 31.3986 9.66721 31.3318 9.73395C31.2651 9.80069 31.2122 9.87993 31.176 9.96713C31.1399 10.0543 31.1213 10.1478 31.1213 10.2422V15.9922C31.1213 16.0866 31.1399 16.18 31.176 16.2672C31.2122 16.3544 31.2651 16.4337 31.3318 16.5004C31.3986 16.5672 31.4778 16.6201 31.565 16.6562C31.6522 16.6924 31.7457 16.7109 31.8401 16.7109ZM32.5588 10.9609H34.7151V15.2734H32.5588V10.9609Z" fill="#48505B"/>
<path d="M33.2776 36.8359H35.4338V38.2734H33.2776V36.8359Z" fill="#48505B"/>
<path d="M30.4026 40.4297H32.5588V41.8672H30.4026V40.4297Z" fill="#48505B"/>
<path d="M21.0588 16.7109H23.2151V18.1484H21.0588V16.7109Z" fill="#48505B"/>
<path d="M26.8088 38.2734H28.2463V39.7109H26.8088V38.2734Z" fill="#48505B"/>
</svg>
