<svg width="174" height="367" viewBox="0 0 174 367" fill="none" xmlns="http://www.w3.org/2000/svg">
<g filter="url(#filter0_f)">
<path d="M185.837 181.367C186.837 181.025 187.583 180.182 187.802 179.148L218.136 35.3857C218.616 33.1079 216.432 31.1745 214.229 31.9277L78.4087 78.3726C77.4086 78.7146 76.6622 79.5577 76.444 80.5919L46.1098 224.354C45.6292 226.632 47.8132 228.565 50.0159 227.812L185.837 181.367Z" fill="#00D06E"/>
<path d="M317.886 278.609C319.618 280.079 322.293 279.164 322.762 276.941L352 138.375C352.222 137.321 351.863 136.229 351.058 135.514L240.777 37.4289C239.071 35.9117 236.363 36.78 235.858 39.0063L203.9 179.753C203.653 180.843 204.032 181.981 204.885 182.704L317.886 278.609Z" fill="#00D06E"/>
<path d="M161.509 338.511C160.509 338.853 159.403 338.643 158.597 337.959L54.8385 249.878C53.0638 248.371 53.6066 245.505 55.8093 244.752L197.065 196.449C198.065 196.107 199.171 196.316 199.977 197L303.736 285.082C305.51 286.588 304.968 289.454 302.765 290.207L161.509 338.511Z" fill="#00D06E"/>
</g>
<defs>
<filter id="filter0_f" x="0.393555" y="8.36652" width="395.842" height="357.661" filterUnits="userSpaceOnUse" color-interpolation-filters="sRGB">
<feFlood flood-opacity="0" result="BackgroundImageFix"/>
<feBlend mode="normal" in="SourceGraphic" in2="BackgroundImageFix" result="shape"/>
<feGaussianBlur stdDeviation="2" result="effect1_foregroundBlur"/>
</filter>
</defs>
</svg>
