<svg width="43" height="44" viewBox="0 0 43 44" fill="none" xmlns="http://www.w3.org/2000/svg">
<g clip-path="url(#clip0)">
<path d="M24.6354 35.0665C25.1484 34.4338 25.4307 33.638 25.4342 32.8157C25.4342 30.8365 23.867 29.2324 21.9342 29.2324C20.001 29.2324 18.4342 30.8365 18.4342 32.8157C18.4377 33.638 18.72 34.4338 19.233 35.0665C18.3464 35.3363 17.7377 36.1687 17.7343 37.1156V42.8489C17.7343 43.2447 18.0477 43.5656 18.4342 43.5656C18.8208 43.5656 19.1342 43.2447 19.1342 42.8489V37.1156C19.1342 36.7199 19.4477 36.399 19.8342 36.399H24.0342C24.4207 36.399 24.7342 36.7199 24.7342 37.1156V42.8489C24.7342 43.2447 25.0476 43.5656 25.4342 43.5656C25.8207 43.5656 26.1341 43.2447 26.1341 42.8489V37.1156C26.1307 36.1687 25.5216 35.3363 24.6354 35.0665ZM21.9342 30.6657C23.0939 30.6657 24.0342 31.628 24.0342 32.8157C24.0342 34.003 23.0939 34.9657 21.9342 34.9657C20.7745 34.9657 19.8342 34.003 19.8342 32.8157C19.8342 31.628 20.7745 30.6657 21.9342 30.6657Z" fill="#48505B"/>
<path d="M40.1233 25.8675C41.8329 25.0424 42.9267 23.284 42.9339 21.3492V19.9159C42.9315 17.9378 41.3657 16.3347 39.4339 16.3326H28.934C28.1609 16.3326 27.5341 16.9741 27.5341 17.766V21.3492C27.5412 23.284 28.635 25.0424 30.3446 25.8675C30.3969 27.1395 30.9216 28.3429 31.8109 29.2325H31.034C29.1019 29.2346 27.5365 30.8376 27.5341 32.8158V42.8489C27.5341 43.2447 27.8475 43.5656 28.234 43.5656C28.6206 43.5656 28.934 43.2447 28.934 42.8489V37.1157H30.334V42.8489C30.334 43.2447 30.6474 43.5656 31.034 43.5656C31.4206 43.5656 31.734 43.2447 31.734 42.8489V36.399C31.734 36.0033 31.4206 35.6824 31.034 35.6824H28.934V32.8158C28.934 31.6281 29.8743 30.6658 31.034 30.6658H32.434C32.434 32.2489 33.6873 33.5324 35.234 33.5324C36.7802 33.5324 38.0339 32.2489 38.0339 30.6658H39.4339C40.5936 30.6658 41.5339 31.6281 41.5339 32.8158V35.6824H39.4339C39.0473 35.6824 38.7339 36.0033 38.7339 36.399V42.8489C38.7339 43.2447 39.0473 43.5656 39.4339 43.5656C39.8205 43.5656 40.1339 43.2447 40.1339 42.8489V37.1157H41.5339V42.8489C41.5339 43.2447 41.8473 43.5656 42.2339 43.5656C42.6204 43.5656 42.9339 43.2447 42.9339 42.8489V32.8158C42.9315 30.8376 41.3657 29.2346 39.4339 29.2325H38.656C39.546 28.3429 40.0707 27.1395 40.1233 25.8675ZM31.734 25.6492V22.0659H35.234C35.6205 22.0659 35.9339 21.745 35.9339 21.3492C35.9339 20.9535 35.6205 20.6326 35.234 20.6326H31.034C30.6474 20.6326 30.334 20.9535 30.334 21.3492V24.2113C29.4539 23.5356 28.9354 22.4753 28.934 21.3492V17.766H39.4339C40.5936 17.766 41.5339 18.7283 41.5339 19.9159V21.3492C41.5325 22.4753 41.014 23.5356 40.1339 24.2113V21.3492C40.1339 20.9535 39.8205 20.6326 39.4339 20.6326H38.0339C37.6474 20.6326 37.3339 20.9535 37.3339 21.3492C37.3339 21.745 37.6474 22.0659 38.0339 22.0659H38.7339V25.6492C38.7339 27.628 37.1668 29.2325 35.234 29.2325C33.3008 29.2325 31.734 27.628 31.734 25.6492ZM35.234 32.0991C34.4608 32.0991 33.834 31.4573 33.834 30.6658H36.6339C36.6339 31.4573 36.0071 32.0991 35.234 32.0991Z" fill="#48505B"/>
<path d="M12.8343 29.2323H12.0564C13.0018 28.291 13.5346 26.9987 13.5343 25.649V21.3491C13.5343 20.9533 13.2209 20.6324 12.8343 20.6324H11.4343C11.0477 20.6324 10.7343 20.9533 10.7343 21.3491C10.7343 21.7449 11.0477 22.0658 11.4343 22.0658H12.1343V25.649C12.1343 27.6279 10.5672 29.2323 8.63435 29.2323C6.70117 29.2323 5.13439 27.6279 5.13439 25.649V22.0658H8.63435C9.02091 22.0658 9.33434 21.7449 9.33434 21.3491C9.33434 20.9533 9.02091 20.6324 8.63435 20.6324H4.4344C4.04783 20.6324 3.73441 20.9533 3.73441 21.3491V25.649C3.73407 26.9984 4.26658 28.291 5.2113 29.2323H4.4344C2.50225 29.2344 0.936841 30.8375 0.934448 32.8156V42.8488C0.934448 43.2446 1.24787 43.5655 1.63444 43.5655C2.02101 43.5655 2.33443 43.2446 2.33443 42.8488V37.1156H3.73441V42.8488C3.73441 43.2446 4.04783 43.5655 4.4344 43.5655C4.82097 43.5655 5.13439 43.2446 5.13439 42.8488V36.3989C5.13439 36.0031 4.82097 35.6822 4.4344 35.6822H2.33443V32.8156C2.33443 31.6279 3.2747 30.6656 4.4344 30.6656H5.83438V32.099C5.83404 32.289 5.90787 32.4716 6.03946 32.6064L7.93436 34.5464V37.8322C7.93436 38.228 8.24778 38.5489 8.63435 38.5489C9.02091 38.5489 9.33434 38.228 9.33434 37.8322V34.5464L11.2292 32.6064C11.3605 32.4716 11.4343 32.289 11.4343 32.099V30.6656H12.8343C13.994 30.6656 14.9343 31.6279 14.9343 32.8156V35.6822H12.8343C12.4477 35.6822 12.1343 36.0031 12.1343 36.3989V42.8488C12.1343 43.2446 12.4477 43.5655 12.8343 43.5655C13.2209 43.5655 13.5343 43.2446 13.5343 42.8488V37.1156H14.9343V42.8488C14.9343 43.2446 15.2477 43.5655 15.6343 43.5655C16.0208 43.5655 16.3342 43.2446 16.3342 42.8488V32.8156C16.3319 30.8375 14.7661 29.2344 12.8343 29.2323ZM10.0343 31.8022L8.63435 33.2355L7.23436 31.8022V30.6656H10.0343V31.8022Z" fill="#48505B"/>
<path d="M8.63435 14.8992C4.38382 14.9041 0.939233 18.4307 0.934448 22.7824V27.799C0.934448 28.1948 1.24787 28.5157 1.63444 28.5157C2.02101 28.5157 2.33443 28.1948 2.33443 27.799V22.7824C2.33443 19.2201 5.1549 16.3325 8.63435 16.3325C12.1138 16.3325 14.9343 19.2201 14.9343 22.7824V27.799C14.9343 28.1948 15.2477 28.5157 15.6343 28.5157C16.0208 28.5157 16.3342 28.1948 16.3342 27.799V22.7824C16.3291 18.4307 12.8849 14.9041 8.63435 14.8992Z" fill="#48505B"/>
<path d="M4.48914 13.2301L5.13444 12.9232V13.466C5.13444 13.8617 5.44787 14.1826 5.83444 14.1826C6.221 14.1826 6.53443 13.8617 6.53443 13.466V12.2577L21.0394 5.36262C21.6068 5.09248 22.2617 5.09248 22.8287 5.36262L37.334 12.2577V13.466C37.334 13.8617 37.6474 14.1826 38.034 14.1826C38.4206 14.1826 38.734 13.8617 38.734 13.466V12.9232L39.3793 13.2301C40.4313 13.7302 41.6803 13.2623 42.1687 12.1852C42.6571 11.1081 42.2005 9.82948 41.1481 9.32943L23.4183 0.901363C22.4773 0.453452 21.3911 0.453452 20.4502 0.901363L2.72002 9.32943C1.66799 9.82948 1.21101 11.1081 1.69943 12.1852C2.18785 13.2623 3.43676 13.7302 4.48914 13.2301ZM2.94902 11.0336C3.0126 10.8548 3.14316 10.7096 3.31167 10.6294L21.0394 2.20205C21.6068 1.93191 22.2617 1.93191 22.8287 2.20205L40.5588 10.6294C40.9095 10.796 41.062 11.2226 40.8989 11.5816C40.7362 11.941 40.3196 12.097 39.9686 11.9301L23.4183 4.06193C22.4773 3.61402 21.3911 3.61402 20.4502 4.06193L3.89955 11.9301C3.73105 12.0103 3.53827 12.0186 3.36396 11.9532C3.1893 11.8881 3.04746 11.7545 2.96919 11.5816C2.89024 11.4094 2.88237 11.2121 2.94697 11.0336H2.94902Z" fill="#48505B"/>
<path d="M25.4342 9.88269H18.4342C18.0477 9.88269 17.7343 10.2036 17.7343 10.5993V16.3326C17.7343 16.7284 18.0477 17.0493 18.4342 17.0493C18.8208 17.0493 19.1342 16.7284 19.1342 16.3326V14.1826H21.2342V16.3326C21.2342 16.7284 21.5476 17.0493 21.9342 17.0493C22.3208 17.0493 22.6342 16.7284 22.6342 16.3326V14.1826H24.7342V16.3326C24.7342 16.7284 25.0476 17.0493 25.4342 17.0493C25.8207 17.0493 26.1341 16.7284 26.1341 16.3326V10.5993C26.1341 10.2036 25.8207 9.88269 25.4342 9.88269ZM19.1342 12.7493V11.316H21.2342V12.7493H19.1342ZM22.6342 12.7493V11.316H24.7342V12.7493H22.6342Z" fill="#48505B"/>
</g>
<defs>
<clipPath id="clip0">
<rect x="0.933838" y="0.56543" width="42" height="43" fill="white"/>
</clipPath>
</defs>
</svg>
