<svg width="170" height="413" viewBox="0 0 170 413" fill="none" xmlns="http://www.w3.org/2000/svg">
<g filter="url(#filter0_f)">
<path d="M-47.4117 214.878C-46.5111 214.325 -45.3858 214.286 -44.4495 214.777L84.6005 282.37C86.6627 283.45 86.7624 286.365 84.7789 287.583L-36.4901 362.079C-37.3907 362.632 -38.516 362.671 -39.4524 362.18L-168.503 294.588C-170.565 293.507 -170.665 290.592 -168.681 289.374L-47.4117 214.878Z" fill="#FBA727"/>
<path d="M-38.3454 52.5025C-38.3756 50.2303 -35.9668 48.7507 -33.9537 49.8051L90.432 114.955C91.3858 115.455 91.9987 116.427 92.038 117.503L97.3773 263.744C97.4606 266.025 95.0665 267.56 93.0283 266.532L-34.7414 202.084C-35.7398 201.581 -36.3752 200.564 -36.3901 199.446L-38.3454 52.5025Z" fill="#FBA727"/>
<path d="M-182.928 134.199C-183.829 134.752 -184.372 135.738 -184.358 136.795L-182.546 271.727C-182.515 274.055 -179.96 275.462 -177.976 274.243L-51.8528 196.766C-50.9522 196.212 -50.4091 195.226 -50.4233 194.169L-52.2347 59.2367C-52.2659 56.909 -54.8211 55.5023 -56.8047 56.7208L-182.928 134.199Z" fill="#FBA727"/>
</g>
<defs>
<filter id="filter0_f" x="-254.352" y="0.710022" width="424.205" height="411.979" filterUnits="userSpaceOnUse" color-interpolation-filters="sRGB">
<feFlood flood-opacity="0" result="BackgroundImageFix"/>
<feBlend mode="normal" in="SourceGraphic" in2="BackgroundImageFix" result="shape"/>
<feGaussianBlur stdDeviation="5" result="effect1_foregroundBlur"/>
</filter>
</defs>
</svg>
