<svg width="12" height="12" viewBox="0 0 12 12" fill="none" xmlns="http://www.w3.org/2000/svg">
<path d="M11.2063 8.78436V10.4094C11.2069 10.5602 11.176 10.7095 11.1156 10.8478C11.0552 10.986 10.9665 11.1101 10.8554 11.212C10.7442 11.314 10.613 11.3917 10.4701 11.44C10.3272 11.4883 10.1757 11.5063 10.0255 11.4927C8.35869 11.3116 6.75762 10.742 5.35091 9.82977C4.04215 8.99813 2.93255 7.88853 2.10091 6.57977C1.18548 5.16668 0.615789 3.55781 0.43799 1.88352C0.424454 1.73373 0.442256 1.58277 0.490261 1.44024C0.538267 1.2977 0.615424 1.16673 0.716822 1.05565C0.818219 0.944572 0.941635 0.855823 1.07921 0.795055C1.21679 0.734287 1.36551 0.702831 1.51591 0.702689H3.14091C3.40378 0.700102 3.65863 0.79319 3.85794 0.964603C4.05726 1.13602 4.18745 1.37406 4.22424 1.63436C4.29283 2.15439 4.42003 2.665 4.60341 3.15644C4.67628 3.35031 4.69206 3.56102 4.64886 3.76358C4.60566 3.96615 4.50529 4.15208 4.35966 4.29936L3.67174 4.98727C4.44283 6.34336 5.56565 7.46618 6.92174 8.23727L7.60966 7.54936C7.75693 7.40372 7.94287 7.30336 8.14543 7.26016C8.34799 7.21696 8.5587 7.23273 8.75257 7.30561C9.24401 7.48899 9.75462 7.61619 10.2747 7.68477C10.5378 7.72189 10.7781 7.85443 10.9499 8.05717C11.1216 8.25991 11.2129 8.51871 11.2063 8.78436Z" fill="white"/>
</svg>
