<svg width="336" height="651" viewBox="0 0 336 651" fill="none" xmlns="http://www.w3.org/2000/svg">
<g opacity="0.05" filter="url(#filter0_f)">
<path d="M275.25 307.3C275.183 307.646 274.939 307.931 274.607 308.05L35.3205 394.055C34.5903 394.318 33.8523 393.684 34.0007 392.923L81.5423 148.88C81.6097 148.535 81.8541 148.25 82.1856 148.131L321.472 62.1252C322.203 61.8628 322.941 62.4959 322.792 63.2575L275.25 307.3Z" fill="#FBA727"/>
<path d="M471.384 505.478C471.949 505.984 471.769 506.908 471.056 507.165L240.364 590.08C240.027 590.202 239.65 590.133 239.377 589.9L45.3395 424.205C44.7608 423.711 44.9242 422.777 45.6363 422.509L279.415 334.417C279.764 334.285 280.157 334.359 280.434 334.607L471.384 505.478Z" fill="#FBA727"/>
<path d="M530.107 226.848C530.174 226.503 530.055 226.147 529.792 225.912L353.736 68.4061C353.158 67.8888 352.236 68.1986 352.088 68.9602L302.715 322.401C302.648 322.747 302.767 323.103 303.03 323.338L479.086 480.844C479.664 481.362 480.586 481.052 480.734 480.29L530.107 226.848Z" fill="#FBA727"/>
</g>
<defs>
<filter id="filter0_f" x="0.812012" y="0.125732" width="572.611" height="650.452" filterUnits="userSpaceOnUse" color-interpolation-filters="sRGB">
<feFlood flood-opacity="0" result="BackgroundImageFix"/>
<feBlend mode="normal" in="SourceGraphic" in2="BackgroundImageFix" result="shape"/>
<feGaussianBlur stdDeviation="10" result="effect1_foregroundBlur"/>
</filter>
</defs>
</svg>
