<svg width="334" height="625" viewBox="0 0 334 625" fill="none" xmlns="http://www.w3.org/2000/svg">
<g opacity="0.05">
<path d="M14.6157 303.974C14.8223 304.259 14.8635 304.632 14.7242 304.956L-74.8844 513.075C-75.1913 513.788 -76.1577 513.894 -76.6128 513.266L-206.564 333.823C-206.771 333.538 -206.812 333.165 -206.672 332.841L-117.064 124.722C-116.757 124.009 -115.791 123.902 -115.336 124.531L14.6157 303.974Z" fill="#EF003D"/>
<path d="M263.114 296.928C263.868 296.861 264.421 297.624 264.121 298.32L177.732 498.962C177.59 499.291 177.283 499.52 176.926 499.56L-49.024 525.065C-49.7802 525.151 -50.3508 524.394 -50.0606 523.69L34.8373 317.888C34.9794 317.544 35.3014 317.307 35.6726 317.274L263.114 296.928Z" fill="#EF003D"/>
<path d="M117.499 88.9586C117.293 88.6732 116.951 88.5177 116.6 88.5491L-93.0526 107.329C-93.8255 107.398 -94.2285 108.283 -93.7733 108.911L41.1883 295.273C41.3949 295.558 41.7365 295.714 42.0874 295.682L251.74 276.903C252.513 276.834 252.916 275.949 252.461 275.32L117.499 88.9586Z" fill="#EF003D"/>
</g>
</svg>
