<svg width="51" height="51" viewBox="0 0 51 51" fill="none" xmlns="http://www.w3.org/2000/svg">
<g clip-path="url(#clip0)">
<path d="M45.9625 41.7661V25.237C48.5108 24.0682 50.2896 21.4635 50.2896 18.4423C50.2896 18.3904 50.2876 18.3393 50.2865 18.2878C50.3048 17.9822 50.2255 17.674 50.053 17.4108C50.0523 17.4096 50.0515 17.4085 50.0508 17.4073L46.6995 12.2514C46.6927 12.2407 46.6858 12.2297 46.6789 12.219L44.0396 8.159V5.2213C44.0396 2.83521 42.0986 0.894287 39.7125 0.894287H10.8666C8.48047 0.894287 6.53955 2.83521 6.53955 5.2213V8.159L0.528351 17.4073C0.527588 17.4089 0.526825 17.4104 0.526062 17.4115C0.357834 17.6683 0.280014 17.9666 0.292984 18.2626C0.291458 18.3225 0.289551 18.382 0.289551 18.4423C0.289551 21.4635 2.06834 24.0682 4.61656 25.237V41.7661C2.20949 41.8916 0.289551 43.8894 0.289551 46.327C0.289551 48.8454 2.33842 50.8943 4.85689 50.8943H45.7222C48.2407 50.8943 50.2896 48.8454 50.2896 46.327C50.2896 43.8894 48.3696 41.8916 45.9625 41.7661ZM44.1242 22.8494C44.0312 22.8753 43.9377 22.8982 43.8439 22.9177C43.8419 22.9181 43.8397 22.9184 43.8378 22.9192C43.652 22.9577 43.4643 22.9833 43.2758 22.997C43.2598 22.9982 43.243 22.9993 43.227 23.0005C43.1374 23.0058 43.0477 23.0096 42.9577 23.0096C42.8867 23.0096 42.8162 23.0073 42.746 23.0043C42.7235 23.0031 42.7014 23.0012 42.6788 22.9997C42.6308 22.9966 42.5831 22.9932 42.5354 22.9883C42.5099 22.986 42.4843 22.9829 42.4587 22.9802C42.4141 22.9749 42.3695 22.9692 42.3252 22.9627C42.2997 22.9589 42.2745 22.9551 42.2493 22.9509C42.2032 22.9432 42.157 22.9348 42.1112 22.9257C42.0895 22.9215 42.0674 22.9173 42.046 22.9127C41.9815 22.899 41.9182 22.8841 41.8549 22.8673C41.8522 22.8666 41.8495 22.8662 41.8469 22.8654C41.7809 22.8479 41.7156 22.8288 41.6512 22.8082C41.631 22.8017 41.6115 22.7948 41.5917 22.788C41.5466 22.7735 41.5024 22.7582 41.4581 22.7418C41.4353 22.733 41.4124 22.7243 41.3895 22.7155C41.3487 22.6995 41.3078 22.6831 41.2674 22.6659C41.2445 22.6564 41.222 22.6468 41.1995 22.6365C41.1572 22.6182 41.1156 22.5984 41.0744 22.5786C41.0549 22.569 41.0355 22.5602 41.0164 22.5507C40.9607 22.5225 40.9054 22.4939 40.8512 22.4637C40.847 22.4614 40.8428 22.4592 40.8386 22.4569C40.7799 22.4241 40.7223 22.3897 40.6655 22.3546C40.6487 22.3439 40.6319 22.3329 40.6151 22.3222C40.5754 22.2966 40.5358 22.2711 40.4968 22.244C40.477 22.2307 40.4576 22.2169 40.4381 22.2028C40.4022 22.1776 40.3668 22.1517 40.3313 22.125C40.3122 22.1105 40.2928 22.096 40.2737 22.0811C40.2378 22.0529 40.202 22.0239 40.1669 21.9949C40.1505 21.9812 40.1337 21.9674 40.1173 21.9537C40.0715 21.9144 40.0265 21.8744 39.9822 21.8335C39.9777 21.829 39.9723 21.8248 39.9677 21.8202C39.9185 21.7744 39.8708 21.7271 39.8239 21.6794C39.8106 21.6657 39.7976 21.6516 39.7843 21.6378C39.7511 21.6028 39.7183 21.5677 39.6862 21.5318C39.6702 21.5143 39.6546 21.4959 39.6389 21.478C39.6103 21.4448 39.5817 21.4109 39.5535 21.3769C39.5378 21.3578 39.5226 21.3392 39.5073 21.3197C39.4791 21.2842 39.4512 21.2476 39.4241 21.211C39.4108 21.1934 39.3974 21.1759 39.3845 21.158C39.3505 21.1107 39.3173 21.0626 39.2849 21.0141C39.28 21.0065 39.2746 20.9993 39.2693 20.9916C39.2323 20.9352 39.1964 20.8776 39.1617 20.8192C39.1518 20.8028 39.1426 20.786 39.1331 20.7692C39.1087 20.7273 39.0846 20.6849 39.0618 20.6418C39.0499 20.6205 39.0389 20.5983 39.0278 20.5766C39.0072 20.5373 38.9874 20.498 38.9683 20.458C38.9572 20.4351 38.9465 20.4118 38.9359 20.3889C38.9168 20.3477 38.8985 20.3061 38.8806 20.2642C38.8714 20.2424 38.8619 20.2211 38.8531 20.1993C38.8321 20.1471 38.8119 20.0944 38.7924 20.0418C38.7882 20.03 38.7837 20.0185 38.7795 20.0067C38.7566 19.9422 38.7348 19.8766 38.7146 19.811C38.7089 19.7915 38.7036 19.7721 38.6978 19.7526C38.6875 19.7168 38.6776 19.6805 38.6681 19.6447H47.2489C46.8353 21.1995 45.6391 22.426 44.1242 22.8494ZM35.4221 19.8106C35.4019 19.8766 35.3802 19.9418 35.3573 20.0067C35.3531 20.0185 35.3485 20.0296 35.3443 20.0414C35.3249 20.0944 35.3047 20.1471 35.2837 20.1989C35.2749 20.2211 35.2654 20.2424 35.2562 20.2642C35.2383 20.3058 35.22 20.3473 35.2013 20.3885C35.1906 20.4118 35.1795 20.4347 35.1685 20.4576C35.1494 20.4976 35.1296 20.5373 35.1093 20.5766C35.0979 20.5983 35.0868 20.6201 35.075 20.6418C35.0521 20.6849 35.0281 20.7269 35.0037 20.7692C34.9941 20.7856 34.985 20.8028 34.9751 20.8192C34.9404 20.8772 34.9045 20.9348 34.8675 20.9913C34.8622 20.9989 34.8568 21.0065 34.8519 21.0141C34.8194 21.0626 34.7862 21.1107 34.7523 21.1576C34.7393 21.1755 34.726 21.1931 34.7126 21.211C34.6855 21.2476 34.6577 21.2838 34.6295 21.3197C34.6142 21.3388 34.5989 21.3578 34.5833 21.3765C34.5551 21.4109 34.5268 21.4444 34.4978 21.478C34.4822 21.4959 34.4666 21.5139 34.4505 21.5318C34.4185 21.5677 34.3857 21.6028 34.3525 21.6375C34.3392 21.6516 34.3262 21.6657 34.3128 21.679C34.2659 21.7271 34.2182 21.7744 34.169 21.8202C34.1644 21.8244 34.1591 21.829 34.1545 21.8332C34.1103 21.8744 34.0653 21.914 34.0195 21.9533C34.0031 21.9674 33.9863 21.9808 33.9699 21.9945C33.9348 22.0239 33.8989 22.0525 33.8631 22.0807C33.844 22.0956 33.8246 22.1105 33.8055 22.125C33.7704 22.1513 33.7349 22.1772 33.6991 22.2028C33.6792 22.2165 33.6598 22.2303 33.6399 22.244C33.601 22.2707 33.5613 22.2966 33.5217 22.3222C33.5049 22.3329 33.4885 22.3439 33.4713 22.3542C33.4145 22.3897 33.3569 22.4241 33.2981 22.4569C33.2939 22.4592 33.2897 22.4611 33.2855 22.4633C33.2314 22.4935 33.1761 22.5225 33.1204 22.5503C33.1013 22.5599 33.0818 22.569 33.0624 22.5782C33.0212 22.5984 32.9796 22.6178 32.9373 22.6365C32.9147 22.6465 32.8922 22.656 32.8694 22.6659C32.8289 22.6827 32.7885 22.6991 32.7473 22.7151C32.7244 22.7243 32.7015 22.733 32.6786 22.7414C32.6344 22.7578 32.5901 22.7731 32.5455 22.788C32.5253 22.7945 32.5058 22.8017 32.4856 22.8078C32.4211 22.8284 32.3559 22.8475 32.2899 22.865C32.2872 22.8658 32.2846 22.8666 32.2819 22.8673C32.2186 22.8837 32.1549 22.8986 32.0912 22.9127C32.0694 22.9173 32.0473 22.9211 32.0255 22.9253C31.9798 22.9345 31.9336 22.9432 31.8875 22.9509C31.8623 22.9551 31.8371 22.9589 31.8115 22.9623C31.7673 22.9688 31.7227 22.9745 31.678 22.9799C31.6525 22.9829 31.6273 22.9856 31.6013 22.9883C31.554 22.9928 31.506 22.9963 31.4579 22.9993C31.4354 23.0008 31.4133 23.0027 31.3908 23.0039C31.3206 23.0073 31.25 23.0092 31.1791 23.0092C31.1077 23.0092 31.0372 23.0073 30.967 23.0039C30.9445 23.0027 30.9223 23.0008 30.9002 22.9993C30.8521 22.9963 30.8041 22.9928 30.7564 22.9883C30.7308 22.9856 30.7053 22.9829 30.6801 22.9799C30.6351 22.9745 30.5905 22.9688 30.5462 22.9623C30.521 22.9585 30.4958 22.9551 30.4707 22.9509C30.4241 22.9432 30.3784 22.9345 30.3322 22.9253C30.3105 22.9211 30.2887 22.9173 30.267 22.9127C30.2029 22.899 30.1392 22.8837 30.0762 22.8673C30.0736 22.8666 30.0709 22.8658 30.0678 22.865C30.0022 22.8475 29.937 22.8284 29.8721 22.8078C29.8523 22.8017 29.8325 22.7945 29.8126 22.788C29.768 22.7731 29.7234 22.7578 29.6795 22.7414C29.6562 22.733 29.6333 22.7243 29.6105 22.7151C29.5696 22.6991 29.5288 22.6827 29.4884 22.6659C29.4659 22.656 29.443 22.6465 29.4205 22.6365C29.3785 22.6178 29.3369 22.5984 29.2954 22.5782C29.2759 22.569 29.2565 22.5599 29.2374 22.5503C29.1817 22.5225 29.1268 22.4935 29.0722 22.4633C29.0684 22.4611 29.0638 22.4592 29.0596 22.4569C29.0013 22.4241 28.9436 22.3897 28.8864 22.3542C28.8696 22.3439 28.8532 22.3329 28.8365 22.3222C28.7964 22.2966 28.7571 22.2707 28.7178 22.244C28.698 22.2303 28.6785 22.2165 28.6591 22.2028C28.6232 22.1772 28.5877 22.1513 28.5526 22.125C28.5332 22.1105 28.5141 22.0956 28.495 22.0807C28.4588 22.0525 28.4233 22.0239 28.3882 21.9945C28.3714 21.9808 28.3547 21.9674 28.3386 21.9533C28.2929 21.9144 28.2478 21.8744 28.2036 21.8332C28.1986 21.829 28.1937 21.8244 28.1887 21.8202C28.1399 21.774 28.0918 21.7271 28.0449 21.679C28.0316 21.6653 28.0186 21.6512 28.0056 21.6375C27.9724 21.6028 27.9392 21.5677 27.9072 21.5318C27.8916 21.5139 27.8759 21.4959 27.8603 21.478C27.8313 21.4444 27.8027 21.4109 27.7748 21.3765C27.7592 21.3578 27.7439 21.3388 27.7287 21.3197C27.7001 21.2838 27.6726 21.2476 27.6451 21.211C27.6322 21.1931 27.6188 21.1755 27.6058 21.1576C27.5715 21.1107 27.5383 21.0626 27.5063 21.0141C27.5009 21.0065 27.4956 20.9989 27.4906 20.9913C27.4536 20.9348 27.4178 20.8772 27.3831 20.8192C27.3731 20.8028 27.364 20.7856 27.3544 20.7692C27.3297 20.7269 27.306 20.6846 27.2827 20.6418C27.2713 20.6201 27.2598 20.5983 27.2488 20.5766C27.2286 20.5373 27.2087 20.4976 27.1893 20.4576C27.1782 20.4347 27.1675 20.4118 27.1568 20.3885C27.1378 20.3477 27.1195 20.3058 27.1019 20.2642C27.0928 20.2424 27.0832 20.2211 27.0744 20.1989C27.0531 20.1471 27.0329 20.0944 27.0138 20.0414C27.0096 20.03 27.0046 20.0185 27.0004 20.0067C26.9776 19.9418 26.9562 19.8766 26.936 19.8106C26.9299 19.7912 26.9249 19.7717 26.9192 19.7522C26.9085 19.7168 26.899 19.6805 26.8894 19.6443H35.4687C35.4592 19.6805 35.4492 19.7164 35.4389 19.7522C35.4332 19.7717 35.4279 19.7912 35.4221 19.8106ZM23.6431 19.8106C23.6229 19.8766 23.6015 19.9418 23.5787 20.0067C23.5745 20.0185 23.5695 20.0296 23.5653 20.0414C23.5462 20.0944 23.526 20.1471 23.5047 20.1989C23.4959 20.2211 23.4863 20.2424 23.4772 20.2642C23.4596 20.3058 23.4413 20.3473 23.4223 20.3885C23.4116 20.4118 23.4009 20.4347 23.3898 20.4576C23.3704 20.4976 23.3505 20.5373 23.3303 20.5766C23.3193 20.5983 23.3078 20.6201 23.2964 20.6418C23.2731 20.6849 23.2495 20.7269 23.2247 20.7692C23.2151 20.7856 23.206 20.8028 23.196 20.8192C23.1613 20.8772 23.1259 20.9348 23.0885 20.9913C23.0835 20.9989 23.0782 21.0065 23.0728 21.0141C23.0408 21.0626 23.0076 21.1107 22.9733 21.1576C22.9607 21.1755 22.9469 21.1931 22.934 21.211C22.9065 21.2476 22.879 21.2838 22.8504 21.3197C22.8352 21.3388 22.8199 21.3578 22.8043 21.3765C22.7764 21.4109 22.7478 21.4444 22.7188 21.478C22.7032 21.4959 22.6875 21.5139 22.6719 21.5318C22.6399 21.5677 22.6067 21.6028 22.5735 21.6375C22.5605 21.6516 22.5475 21.6657 22.5342 21.679C22.4873 21.7271 22.4392 21.7744 22.3904 21.8202C22.3854 21.8244 22.3805 21.829 22.3755 21.8332C22.3313 21.8744 22.2862 21.914 22.2405 21.9533C22.2244 21.9674 22.2077 21.9808 22.1909 21.9945C22.1558 22.0239 22.1203 22.0525 22.0841 22.0807C22.065 22.0956 22.0459 22.1105 22.0265 22.125C21.9914 22.1513 21.9559 22.1772 21.92 22.2028C21.9006 22.2165 21.8811 22.2303 21.8613 22.244C21.822 22.2707 21.7827 22.2966 21.7426 22.3222C21.7259 22.3329 21.7095 22.3439 21.6927 22.3542C21.6355 22.3897 21.5779 22.4241 21.5195 22.4569C21.5153 22.4592 21.5107 22.4611 21.5069 22.4633C21.4523 22.4935 21.3974 22.5225 21.3417 22.5503C21.3226 22.5599 21.3032 22.569 21.2837 22.5782C21.2422 22.5984 21.2006 22.6178 21.1586 22.6365C21.1361 22.6465 21.1132 22.656 21.0907 22.6659C21.0503 22.6827 21.0095 22.6991 20.9686 22.7151C20.9458 22.7243 20.9229 22.733 20.8996 22.7414C20.8557 22.7578 20.8111 22.7731 20.7665 22.788C20.7466 22.7945 20.7268 22.8017 20.707 22.8078C20.6421 22.8284 20.5769 22.8475 20.5113 22.865C20.5082 22.8658 20.5055 22.8666 20.5029 22.8673C20.4399 22.8837 20.3762 22.8986 20.3121 22.9127C20.2904 22.9173 20.2686 22.9211 20.2469 22.9253C20.2007 22.9345 20.155 22.9432 20.1084 22.9509C20.0833 22.9551 20.0581 22.9589 20.0329 22.9623C19.9886 22.9688 19.944 22.9745 19.899 22.9799C19.8738 22.9829 19.8483 22.9856 19.8227 22.9883C19.775 22.9928 19.727 22.9963 19.6789 22.9993C19.6568 23.0008 19.6346 23.0027 19.6121 23.0039C19.5419 23.0073 19.4714 23.0092 19.4 23.0092C19.3291 23.0092 19.2585 23.0073 19.1883 23.0039C19.1658 23.0027 19.1437 23.0008 19.1212 22.9993C19.0731 22.9963 19.0254 22.9928 18.9778 22.9883C18.9522 22.9856 18.9266 22.9829 18.9011 22.9799C18.8564 22.9745 18.8118 22.9688 18.7676 22.9623C18.742 22.9585 18.7168 22.9551 18.6917 22.9509C18.6455 22.9432 18.5993 22.9345 18.5536 22.9253C18.5318 22.9211 18.5097 22.9173 18.4879 22.9127C18.4239 22.899 18.3602 22.8837 18.2972 22.8673C18.2945 22.8666 18.2919 22.8658 18.2892 22.865C18.2232 22.8475 18.158 22.8284 18.0935 22.8078C18.0733 22.8017 18.0538 22.7945 18.0336 22.788C17.989 22.7731 17.9447 22.7578 17.9005 22.7414C17.8776 22.733 17.8547 22.7243 17.8318 22.7151C17.7906 22.6991 17.7502 22.6827 17.7097 22.6659C17.6869 22.656 17.6644 22.6465 17.6418 22.6365C17.5995 22.6178 17.5579 22.5984 17.5167 22.5782C17.4973 22.569 17.4778 22.5599 17.4587 22.5503C17.403 22.5225 17.3477 22.4935 17.2936 22.4633C17.2894 22.4611 17.2852 22.4592 17.281 22.4569C17.2222 22.4241 17.1646 22.3897 17.1078 22.3542C17.0906 22.3439 17.0742 22.3329 17.0574 22.3222C17.0178 22.2966 16.9781 22.2707 16.9392 22.244C16.9193 22.2303 16.8999 22.2165 16.8801 22.2028C16.8442 22.1772 16.8087 22.1513 16.7736 22.125C16.7545 22.1105 16.7351 22.0956 16.716 22.0807C16.6802 22.0525 16.6443 22.0239 16.6092 21.9945C16.5928 21.9808 16.576 21.9674 16.5596 21.9533C16.5138 21.9144 16.4688 21.8744 16.4246 21.8332C16.42 21.829 16.4147 21.8244 16.4101 21.8202C16.3609 21.774 16.3132 21.7271 16.2663 21.679C16.2529 21.6653 16.2399 21.6512 16.2266 21.6375C16.1934 21.6028 16.1606 21.5677 16.1286 21.5318C16.1125 21.5139 16.0969 21.4959 16.0813 21.478C16.0523 21.4444 16.024 21.4109 15.9958 21.3765C15.9802 21.3578 15.9649 21.3388 15.9496 21.3197C15.9214 21.2838 15.8936 21.2476 15.8665 21.211C15.8531 21.1931 15.8398 21.1755 15.8268 21.1576C15.7929 21.1107 15.7597 21.0626 15.7272 21.0141C15.7223 21.0065 15.7169 20.9989 15.7116 20.9913C15.6746 20.9348 15.6387 20.8772 15.604 20.8192C15.5941 20.8028 15.585 20.7856 15.5754 20.7692C15.551 20.7269 15.527 20.6846 15.5041 20.6418C15.4923 20.6201 15.4812 20.5983 15.4698 20.5766C15.4495 20.5373 15.4297 20.4976 15.4106 20.4576C15.3996 20.4347 15.3885 20.4118 15.3778 20.3885C15.3591 20.3477 15.3408 20.3058 15.3229 20.2642C15.3137 20.2424 15.3042 20.2211 15.2954 20.1989C15.2744 20.1471 15.2542 20.0944 15.2348 20.0414C15.2306 20.03 15.226 20.0185 15.2218 20.0067C15.1989 19.9418 15.1772 19.8766 15.157 19.8106C15.1512 19.7912 15.1459 19.7717 15.1402 19.7522C15.1299 19.7168 15.1199 19.6805 15.1104 19.6443H23.6897C23.6801 19.6805 23.6702 19.7164 23.6599 19.7522C23.6542 19.7717 23.6492 19.7912 23.6431 19.8106ZM9.19115 9.37283C9.34335 9.13861 9.42422 8.86548 9.42422 8.58662V5.2213C9.42422 4.42593 10.0712 3.77896 10.8666 3.77896H39.7125C40.5079 3.77896 41.1549 4.42593 41.1549 5.2213V8.58662C41.1549 8.86548 41.2357 9.13861 41.388 9.37283L46.1891 16.7596H4.38959L9.19115 9.37283ZM3.33025 19.6443H11.911C11.9015 19.6805 11.8916 19.7164 11.8813 19.7522C11.8755 19.7717 11.8702 19.7912 11.8645 19.8106C11.8443 19.8766 11.8225 19.9418 11.7996 20.0067C11.7954 20.0185 11.7909 20.0296 11.7867 20.0414C11.7672 20.0944 11.747 20.1471 11.726 20.1989C11.7172 20.2211 11.7077 20.2424 11.6985 20.2642C11.6806 20.3058 11.6623 20.3473 11.6432 20.3885C11.6326 20.4118 11.6219 20.4347 11.6108 20.4576C11.5917 20.4976 11.5719 20.5373 11.5513 20.5766C11.5402 20.5983 11.5288 20.6201 11.5173 20.6418C11.4945 20.6849 11.4704 20.7269 11.446 20.7692C11.4365 20.7856 11.4273 20.8028 11.4174 20.8192C11.3827 20.8772 11.3468 20.9348 11.3098 20.9913C11.3045 20.9989 11.2991 21.0065 11.2942 21.0141C11.2618 21.0626 11.2286 21.1107 11.1946 21.1576C11.1817 21.1755 11.1683 21.1931 11.155 21.211C11.1279 21.2476 11.1 21.2838 11.0718 21.3197C11.0565 21.3388 11.0413 21.3578 11.0256 21.3765C10.9974 21.4109 10.9692 21.4444 10.9402 21.478C10.9245 21.4959 10.9089 21.5139 10.8929 21.5318C10.8608 21.5677 10.828 21.6028 10.7948 21.6375C10.7815 21.6516 10.7685 21.6657 10.7552 21.679C10.7083 21.7271 10.6606 21.7744 10.6114 21.8202C10.6064 21.8244 10.6014 21.829 10.5969 21.8332C10.5526 21.8744 10.5076 21.914 10.4618 21.9533C10.4454 21.9674 10.4286 21.9808 10.4122 21.9945C10.3771 22.0239 10.3413 22.0525 10.3054 22.0807C10.2863 22.0956 10.2669 22.1105 10.2478 22.125C10.2123 22.1513 10.1769 22.1772 10.141 22.2028C10.1216 22.2165 10.1021 22.2303 10.0823 22.244C10.0434 22.2707 10.0037 22.2966 9.964 22.3222C9.94722 22.3329 9.93082 22.3439 9.91365 22.3542C9.85681 22.3897 9.79921 22.4241 9.74046 22.4569C9.73627 22.4592 9.73207 22.4611 9.72787 22.4633C9.67371 22.4935 9.61839 22.5225 9.5627 22.5503C9.54362 22.5599 9.52417 22.569 9.50471 22.5782C9.46352 22.5984 9.42194 22.6178 9.37959 22.6365C9.35709 22.6465 9.33458 22.656 9.31169 22.6659C9.27126 22.6827 9.23082 22.6991 9.18962 22.7151C9.16673 22.7243 9.14384 22.733 9.12096 22.7414C9.07671 22.7578 9.03207 22.7731 8.98744 22.788C8.96761 22.7945 8.94815 22.8017 8.92793 22.8078C8.86346 22.8284 8.79823 22.8475 8.73224 22.865C8.72957 22.8658 8.7269 22.8666 8.72423 22.8673C8.6609 22.8837 8.5972 22.8986 8.53311 22.9127C8.51175 22.9173 8.48962 22.9211 8.46788 22.9253C8.4221 22.9345 8.37595 22.9432 8.32979 22.9509C8.30461 22.9551 8.27943 22.9589 8.25388 22.9623C8.20963 22.9688 8.16499 22.9745 8.12036 22.9799C8.0948 22.9829 8.06963 22.9856 8.04369 22.9883C7.996 22.9928 7.94832 22.9963 7.90025 22.9993C7.87775 23.0008 7.85562 23.0027 7.83311 23.0039C7.76292 23.0077 7.69235 23.0096 7.6214 23.0096C7.53175 23.0096 7.44173 23.0062 7.35208 23.0005C7.33568 22.9993 7.31927 22.9986 7.30325 22.9974C7.11481 22.9833 6.92712 22.9577 6.74135 22.9192C6.73944 22.9188 6.73715 22.9184 6.73524 22.9181C6.6414 22.8982 6.54794 22.8753 6.45486 22.8494C4.94005 22.426 3.74376 21.1995 3.33025 19.6443ZM7.96091 25.8855C7.98151 25.8848 8.00172 25.884 8.02232 25.8828C8.13028 25.8767 8.23747 25.8683 8.34428 25.8577C8.36488 25.8558 8.38548 25.8535 8.40646 25.8512C8.51595 25.839 8.62505 25.8256 8.73338 25.8085C8.73758 25.8081 8.74216 25.8069 8.74635 25.8065C8.85202 25.7898 8.95692 25.7703 9.06145 25.7489C9.08014 25.7451 9.09921 25.7417 9.11829 25.7375C9.22128 25.7158 9.32314 25.6917 9.42461 25.6658C9.44521 25.6604 9.46542 25.6547 9.48602 25.6494C9.5894 25.6215 9.69202 25.5925 9.79349 25.5605C9.80112 25.5578 9.80875 25.5552 9.81638 25.5529C9.91365 25.5216 10.0102 25.488 10.1055 25.4529C10.1231 25.4464 10.1406 25.4407 10.1578 25.4339C10.2547 25.3976 10.3501 25.3591 10.445 25.3186C10.4649 25.3103 10.4847 25.3015 10.5049 25.2927C10.6007 25.2507 10.6957 25.2076 10.7891 25.1619C10.799 25.1569 10.8086 25.1519 10.8181 25.147C10.9074 25.1031 10.9951 25.0573 11.0821 25.0097C11.0974 25.0013 11.113 24.9929 11.1283 24.9845C11.2179 24.9349 11.306 24.883 11.3934 24.8296C11.4121 24.8182 11.4308 24.8063 11.4494 24.7945C11.5368 24.74 11.6234 24.6839 11.7085 24.6259C11.7191 24.6183 11.7298 24.6106 11.7405 24.6034C11.8206 24.5477 11.9 24.4901 11.9778 24.4314C11.9911 24.4214 12.0045 24.4119 12.0175 24.402C12.0987 24.3398 12.1784 24.2761 12.257 24.2105C12.2738 24.1964 12.2906 24.1823 12.3074 24.1681C12.386 24.1018 12.463 24.0342 12.5385 23.9644C12.5496 23.9545 12.5599 23.9446 12.5706 23.9347C12.6419 23.8679 12.7125 23.8 12.7812 23.7302C12.7915 23.7199 12.8021 23.71 12.8121 23.6997C12.8842 23.6261 12.9547 23.5509 13.0238 23.4742C13.0383 23.4582 13.0524 23.4422 13.0669 23.4258C13.1352 23.3491 13.2019 23.2709 13.2672 23.1912C13.2771 23.179 13.2866 23.1664 13.2965 23.1542C13.3587 23.0768 13.4197 22.9986 13.4789 22.9184C13.4861 22.9089 13.4934 22.8994 13.5006 22.8898C13.504 22.8853 13.5075 22.8807 13.5109 22.8761C13.5143 22.8807 13.5178 22.8849 13.5212 22.8898C13.5285 22.8994 13.5357 22.9089 13.543 22.9184C13.6021 22.9986 13.6631 23.0771 13.7253 23.1542C13.7352 23.1664 13.7448 23.179 13.7547 23.1912C13.8199 23.2709 13.8867 23.3491 13.9549 23.4258C13.9694 23.4422 13.9836 23.4582 13.998 23.4742C14.0671 23.5509 14.1377 23.6261 14.2098 23.6997C14.2197 23.71 14.2304 23.7199 14.2407 23.7302C14.3093 23.8 14.3795 23.8679 14.4512 23.9347C14.4619 23.9446 14.4726 23.9545 14.4833 23.9644C14.5588 24.0342 14.6359 24.1018 14.7144 24.1681C14.7309 24.1823 14.7476 24.1964 14.7648 24.2105C14.8434 24.2761 14.9231 24.3398 15.0044 24.402C15.0173 24.4119 15.0307 24.4214 15.044 24.4314C15.1219 24.4901 15.2008 24.5477 15.2813 24.6034C15.292 24.6106 15.3027 24.6183 15.3134 24.6259C15.3984 24.6839 15.485 24.74 15.5724 24.7945C15.5911 24.8063 15.6098 24.8182 15.6284 24.8296C15.7158 24.883 15.8039 24.9349 15.8936 24.9845C15.9088 24.9929 15.9245 25.0013 15.9397 25.0097C16.0267 25.0573 16.1144 25.1031 16.2033 25.147C16.2132 25.1519 16.2228 25.1569 16.2327 25.1619C16.3262 25.2076 16.4211 25.2507 16.5169 25.2927C16.5371 25.3015 16.5569 25.3103 16.5768 25.3186C16.6714 25.3591 16.7671 25.3976 16.864 25.4339C16.8812 25.4407 16.8987 25.4468 16.9163 25.4529C17.0117 25.488 17.1082 25.5216 17.2054 25.5529C17.2131 25.5552 17.2207 25.5578 17.2283 25.5605C17.3298 25.5925 17.4324 25.6215 17.5358 25.6494C17.556 25.6547 17.5766 25.6604 17.5972 25.6658C17.6987 25.6917 17.8005 25.7158 17.9035 25.7375C17.9226 25.7417 17.9413 25.7451 17.9604 25.7489C18.0649 25.7703 18.1694 25.7898 18.2755 25.8065C18.2797 25.8069 18.2842 25.8081 18.2884 25.8085C18.3968 25.8256 18.5059 25.839 18.6154 25.8512C18.6363 25.8531 18.6569 25.8558 18.6775 25.8577C18.7843 25.8683 18.8915 25.8767 18.9995 25.8828C19.0201 25.884 19.0403 25.8848 19.0609 25.8855C19.1734 25.8909 19.2867 25.8943 19.4004 25.8943C19.5145 25.8943 19.6274 25.8909 19.7403 25.8855C19.7605 25.8848 19.7811 25.884 19.8013 25.8828C19.9093 25.8767 20.0165 25.8683 20.1233 25.8577C20.1443 25.8558 20.1649 25.8535 20.1855 25.8512C20.2953 25.839 20.4044 25.8256 20.5128 25.8085C20.517 25.8081 20.5212 25.8069 20.5258 25.8065C20.6314 25.7898 20.7363 25.7703 20.8405 25.7489C20.8595 25.7451 20.8786 25.7417 20.8973 25.7375C21.0003 25.7158 21.1025 25.6917 21.2036 25.6658C21.2242 25.6604 21.2448 25.6547 21.2654 25.6494C21.3688 25.6215 21.4714 25.5925 21.5729 25.5605C21.5805 25.5578 21.5878 25.5552 21.5954 25.5529C21.6931 25.5216 21.7892 25.488 21.8849 25.4529C21.9021 25.4464 21.9196 25.4407 21.9372 25.4339C22.0337 25.3976 22.1295 25.3591 22.2241 25.3186C22.2443 25.3103 22.2641 25.3015 22.284 25.2927C22.3797 25.2507 22.4747 25.2076 22.5685 25.1619C22.5781 25.1569 22.588 25.1519 22.5975 25.147C22.6864 25.1031 22.7741 25.0573 22.8611 25.0097C22.8768 25.0013 22.8924 24.9929 22.9077 24.9845C22.9969 24.9349 23.085 24.883 23.1724 24.8296C23.1915 24.8182 23.2098 24.8063 23.2289 24.7945C23.3162 24.74 23.4028 24.6839 23.4879 24.6259C23.4986 24.6183 23.5092 24.6106 23.5199 24.6034C23.6 24.5477 23.679 24.4901 23.7572 24.4314C23.7702 24.4214 23.7835 24.4119 23.7965 24.402C23.8777 24.3398 23.9575 24.2761 24.0364 24.2105C24.0532 24.1964 24.07 24.1823 24.0868 24.1681C24.165 24.1018 24.2424 24.0342 24.3179 23.9644C24.3286 23.9545 24.3389 23.9446 24.3496 23.9347C24.4213 23.8679 24.4915 23.8 24.5606 23.7302C24.5709 23.7199 24.5812 23.71 24.5915 23.6997C24.6636 23.6261 24.7337 23.5509 24.8028 23.4742C24.8173 23.4582 24.8318 23.4422 24.8459 23.4258C24.9142 23.3491 24.9813 23.2709 25.0466 23.1912C25.0561 23.179 25.066 23.1664 25.0755 23.1542C25.1377 23.0768 25.1988 22.9986 25.2579 22.9184C25.2651 22.9089 25.2728 22.8994 25.2796 22.8898C25.2831 22.8853 25.2869 22.8807 25.2903 22.8761C25.2934 22.8807 25.2972 22.8849 25.3006 22.8898C25.3075 22.8994 25.3151 22.9089 25.3224 22.9184C25.3815 22.9986 25.4421 23.0771 25.5047 23.1542C25.5142 23.1664 25.5242 23.179 25.5337 23.1912C25.5989 23.2709 25.6661 23.3491 25.7343 23.4258C25.7485 23.4422 25.763 23.4582 25.7775 23.4742C25.8465 23.5509 25.9167 23.6261 25.9888 23.6997C25.9991 23.71 26.0094 23.7199 26.0197 23.7302C26.0887 23.8 26.1589 23.8679 26.2306 23.9347C26.2413 23.9446 26.2516 23.9545 26.2623 23.9644C26.3378 24.0342 26.4153 24.1018 26.4935 24.1681L26.5438 24.2105C26.6224 24.2761 26.7025 24.3398 26.7838 24.402C26.7967 24.4119 26.8101 24.4214 26.8231 24.4314C26.9013 24.4901 26.9802 24.5477 27.0603 24.6034C27.0714 24.6106 27.0817 24.6183 27.0924 24.6259C27.1774 24.6839 27.264 24.74 27.3514 24.7945C27.3705 24.8063 27.3892 24.8182 27.4079 24.8296C27.4948 24.883 27.5829 24.9349 27.6726 24.9845C27.6879 24.9929 27.7035 25.0013 27.7191 25.0097C27.8061 25.0573 27.8938 25.1031 27.9827 25.147C27.9923 25.1519 28.0022 25.1569 28.0117 25.1619C28.1056 25.2076 28.2005 25.2507 28.2963 25.2927C28.3161 25.3015 28.336 25.3103 28.3562 25.3186C28.4508 25.3591 28.5465 25.3976 28.6431 25.4339C28.6606 25.4407 28.6781 25.4468 28.6953 25.4529C28.7911 25.488 28.8872 25.5216 28.9848 25.5529C28.9925 25.5552 29.0001 25.5578 29.0074 25.5605C29.1088 25.5925 29.2114 25.6215 29.3148 25.6494C29.3354 25.6547 29.3556 25.6604 29.3766 25.6658C29.4777 25.6917 29.5799 25.7158 29.6829 25.7375C29.7016 25.7417 29.7207 25.7451 29.7398 25.7489C29.8439 25.7703 29.9488 25.7898 30.0545 25.8065C30.0591 25.8069 30.0633 25.8081 30.0675 25.8085C30.1758 25.8256 30.2849 25.839 30.3948 25.8512C30.4154 25.8531 30.436 25.8558 30.4569 25.8577C30.5638 25.8683 30.6709 25.8767 30.7789 25.8828C30.7991 25.884 30.8197 25.8848 30.8399 25.8855C30.9529 25.8909 31.0658 25.8943 31.1798 25.8943C31.2935 25.8943 31.4068 25.8909 31.5193 25.8855C31.5399 25.8848 31.5602 25.884 31.5807 25.8828C31.6887 25.8767 31.7959 25.8683 31.9027 25.8577C31.9233 25.8558 31.9439 25.8535 31.9649 25.8512C32.0744 25.839 32.1839 25.8256 32.2918 25.8085C32.296 25.8081 32.3006 25.8069 32.3048 25.8065C32.4104 25.7898 32.5154 25.7703 32.6199 25.7489C32.6389 25.7451 32.6576 25.7417 32.6767 25.7375C32.7797 25.7158 32.8819 25.6917 32.983 25.6658C33.0036 25.6604 33.0242 25.6547 33.0448 25.6494C33.1478 25.6215 33.2504 25.5925 33.3519 25.5605C33.3595 25.5578 33.3672 25.5552 33.3748 25.5529C33.4721 25.5216 33.5686 25.488 33.664 25.4529C33.6815 25.4464 33.6991 25.4407 33.7162 25.4339C33.8131 25.3976 33.9089 25.3591 34.0035 25.3186C34.0233 25.3103 34.0431 25.3015 34.0634 25.2927C34.1591 25.2507 34.2541 25.2076 34.3475 25.1619C34.3575 25.1569 34.367 25.1519 34.3769 25.147C34.4658 25.1031 34.5535 25.0573 34.6405 25.0097C34.6558 25.0013 34.6714 24.9929 34.6867 24.9845C34.7763 24.9349 34.8644 24.883 34.9518 24.8296C34.9705 24.8182 34.9892 24.8063 35.0079 24.7945C35.0952 24.74 35.1818 24.6839 35.2669 24.6259C35.2776 24.6183 35.2883 24.6106 35.2989 24.6034C35.3794 24.5477 35.4584 24.4901 35.5362 24.4314C35.5496 24.4214 35.5629 24.4119 35.5759 24.402C35.6571 24.3398 35.7369 24.2761 35.8154 24.2105C35.8326 24.1964 35.849 24.1823 35.8662 24.1681C35.9444 24.1018 36.0214 24.0342 36.097 23.9644C36.108 23.9545 36.1183 23.9446 36.129 23.9347C36.2003 23.8679 36.2709 23.8 36.3396 23.7302C36.3499 23.7199 36.3606 23.71 36.3705 23.6997C36.4426 23.6261 36.5132 23.5509 36.5822 23.4742C36.5967 23.4582 36.6108 23.4422 36.6253 23.4258C36.6936 23.3491 36.7603 23.2709 36.8256 23.1912C36.8355 23.179 36.845 23.1664 36.8549 23.1542C36.9171 23.0768 36.9782 22.9986 37.0373 22.9184C37.0445 22.9089 37.0518 22.8994 37.059 22.8898C37.0625 22.8853 37.0659 22.8807 37.0693 22.8761C37.0728 22.8807 37.0762 22.8849 37.0796 22.8898C37.0869 22.8994 37.0941 22.9089 37.1014 22.9184C37.1609 22.9986 37.2215 23.0771 37.2837 23.1542C37.2936 23.1664 37.3032 23.179 37.3131 23.1912C37.3783 23.2709 37.4451 23.3491 37.5134 23.4258C37.5279 23.4422 37.542 23.4582 37.5569 23.4742C37.6255 23.5509 37.6961 23.6261 37.7682 23.6997C37.7785 23.71 37.7888 23.7199 37.7991 23.7302C37.8678 23.8 37.9379 23.8679 38.0097 23.9347C38.0203 23.9446 38.031 23.9545 38.0417 23.9644C38.1172 24.0342 38.1943 24.1018 38.2729 24.1681C38.2893 24.1823 38.3064 24.1964 38.3232 24.2105C38.4018 24.2761 38.4815 24.3398 38.5628 24.402C38.5758 24.4119 38.5891 24.4214 38.6025 24.4314C38.6803 24.4901 38.7596 24.5477 38.8397 24.6034C38.8504 24.6106 38.8611 24.6183 38.8718 24.6259C38.9568 24.6839 39.0434 24.74 39.1308 24.7945C39.1495 24.8063 39.1682 24.8182 39.1869 24.8296C39.2742 24.883 39.3624 24.9349 39.452 24.9845C39.4673 24.9929 39.4829 25.0013 39.4982 25.0097C39.5851 25.0573 39.6729 25.1031 39.7621 25.147C39.7717 25.1519 39.7812 25.1569 39.7911 25.1619C39.8846 25.2076 39.9796 25.2507 40.0757 25.2927C40.0955 25.3015 40.1154 25.3103 40.1352 25.3186C40.2302 25.3591 40.3256 25.3976 40.4225 25.4339C40.4396 25.4407 40.4572 25.4468 40.4747 25.4529C40.5701 25.488 40.6666 25.5216 40.7639 25.5529C40.7715 25.5552 40.7791 25.5578 40.7868 25.5605C40.8882 25.5925 40.9908 25.6215 41.0942 25.6494C41.1148 25.6547 41.135 25.6604 41.1556 25.6658C41.2571 25.6917 41.3593 25.7158 41.462 25.7375C41.481 25.7417 41.5001 25.7451 41.5188 25.7489C41.6233 25.7703 41.7278 25.7898 41.8339 25.8065C41.8381 25.8069 41.8427 25.8081 41.8469 25.8085C41.9552 25.8256 42.0643 25.839 42.1742 25.8512C42.1948 25.8531 42.2154 25.8558 42.236 25.8577C42.3428 25.8683 42.45 25.8767 42.5579 25.8828C42.5785 25.884 42.5987 25.8848 42.6193 25.8855C42.7319 25.8909 42.8452 25.8943 42.9588 25.8943C42.9989 25.8943 43.039 25.8939 43.079 25.8931V41.7596H23.8472V32.6249C23.8472 30.2392 21.9063 28.2983 19.5202 28.2983H15.6742C13.2881 28.2983 11.3472 30.2392 11.3472 32.6249V41.7596H7.50124V25.8931C7.54129 25.8939 7.58134 25.8943 7.6214 25.8943C7.73508 25.8943 7.84837 25.8909 7.96091 25.8855ZM20.9625 41.7596H14.2319V32.6249C14.2319 31.83 14.8789 31.1826 15.6742 31.1826H19.5202C20.3156 31.1826 20.9625 31.83 20.9625 32.6249V41.7596ZM45.7222 48.0096H4.85689C3.92915 48.0096 3.17422 47.2547 3.17422 46.327C3.17422 45.3992 3.92915 44.6443 4.85689 44.6443H45.7222C46.6499 44.6443 47.4049 45.3992 47.4049 46.327C47.4049 47.2547 46.6499 48.0096 45.7222 48.0096Z" fill="#0B2F64"/>
<path d="M31.0589 36.952H34.9049C37.291 36.952 39.2319 35.0111 39.2319 32.625C39.2319 30.2393 37.291 28.2983 34.9049 28.2983H31.0589C28.6729 28.2983 26.7319 30.2393 26.7319 32.625C26.7319 35.0111 28.6729 36.952 31.0589 36.952ZM31.0589 31.1826H34.9049C35.7003 31.1826 36.3473 31.83 36.3473 32.625C36.3473 33.4203 35.7003 34.0673 34.9049 34.0673H31.0589C30.2636 34.0673 29.6166 33.4203 29.6166 32.625C29.6166 31.83 30.2636 31.1826 31.0589 31.1826Z" fill="#0B2F64"/>
<path d="M39.2318 8.58662C39.2318 7.79012 38.586 7.14429 37.7895 7.14429H12.7895C11.993 7.14429 11.3472 7.79012 11.3472 8.58662C11.3472 9.38313 11.993 10.029 12.7895 10.029H37.7895C38.586 10.029 39.2318 9.38313 39.2318 8.58662Z" fill="#0B2F64"/>
</g>
<defs>
<clipPath id="clip0">
<rect x="0.289551" y="0.894287" width="50" height="50" fill="white"/>
</clipPath>
</defs>
</svg>
