<svg width="54" height="54" viewBox="0 0 54 54" fill="none" xmlns="http://www.w3.org/2000/svg">
<path d="M11.5735 11.6831C9.60571 11.6831 7.78569 12.3061 6.45249 13.3066C5.12047 14.3062 4.25684 15.6986 4.25684 17.2331C4.25684 18.7676 5.12047 20.16 6.45249 21.1596C7.78569 22.1601 9.60571 22.7831 11.5735 22.7831C13.5413 22.7831 15.3613 22.1601 16.6945 21.1596C18.0265 20.16 18.8902 18.7676 18.8902 17.2331C18.8902 15.6986 18.0265 14.3062 16.6945 13.3066C15.3613 12.3061 13.5413 11.6831 11.5735 11.6831ZM11.5735 20.5164C10.2062 20.5164 8.93016 20.1163 8.00223 19.4974C7.06915 18.8749 6.5235 18.0589 6.5235 17.2331C6.5235 16.4073 7.06915 15.5913 8.00223 14.9689C8.93016 14.3499 10.2062 13.9498 11.5735 13.9498C12.9408 13.9498 14.2168 14.3499 15.1448 14.9689C16.0779 15.5913 16.6235 16.4073 16.6235 17.2331C16.6235 18.0589 16.0779 18.8749 15.1448 19.4974C14.2168 20.1163 12.9408 20.5164 11.5735 20.5164Z" fill="#0B2F64" stroke="#0B2F64" stroke-width="0.5"/>
<path d="M24.8238 28.0831C25.4497 28.0831 25.9571 27.5757 25.9571 26.9497C25.9571 26.3238 25.4497 25.8164 24.8238 25.8164C24.1978 25.8164 23.6904 26.3238 23.6904 26.9497C23.6904 27.5757 24.1978 28.0831 24.8238 28.0831Z" fill="#0B2F64" stroke="#0B2F64" stroke-width="0.5"/>
<path d="M0.727546 36.4134H0.723633V36.6634C0.723633 41.7092 5.63239 45.7467 11.5736 45.7467C15.5413 45.7467 18.8283 44.0254 20.7131 41.546C22.5531 39.1256 23.0522 35.9832 21.5332 33.0577L24.7238 31.3906L32.2404 35.4997C30.4509 37.07 28.9058 38.8862 27.7427 41.3235C26.5216 43.8821 25.7281 47.1112 25.5015 51.4363C25.4573 52.1775 25.824 52.8831 26.4561 53.2729C27.0884 53.6629 27.884 53.6736 28.5266 53.3008L28.5271 53.3005L31.0041 51.8563L33.5268 53.3951L33.5268 53.3952L33.5313 53.3978C34.1319 53.7472 34.8701 53.7627 35.485 53.4389C36.0998 53.1151 36.5046 52.4976 36.5563 51.8046L36.5566 51.8046L36.5569 51.7926C36.6124 49.6967 37.0749 47.6316 37.9187 45.7123C38.3676 44.878 39.1892 44.0675 40.1874 43.2609C40.8995 42.6853 41.6846 42.1247 42.4683 41.565C42.7502 41.3637 43.032 41.1625 43.3101 40.9607C44.482 41.3545 45.9768 41.7959 47.471 42.0379C49.0101 42.2872 50.5858 42.3315 51.8108 41.8611L51.8115 41.8608C52.5604 41.5706 53.0218 41.1842 53.3507 40.7339C53.615 40.3722 53.7912 39.9693 53.9623 39.5784C53.9979 39.497 54.0333 39.4162 54.0692 39.3364L54.0693 39.336C54.3124 38.7934 54.0947 38.1551 53.5706 37.874L49.2385 35.5458C51.4927 32.7984 52.5784 29.8992 52.457 26.9431C52.4942 23.8551 51.4202 20.8602 49.4365 18.5018L53.6695 15.9604L53.6707 15.9596C54.1614 15.6612 54.3513 15.043 54.1128 14.5205L0.727546 36.4134ZM0.727546 36.4134C0.823019 33.3698 2.65679 30.8358 5.26875 29.276C7.92535 27.6897 11.4071 27.0961 14.757 27.9864L16.6539 26.9467L14.7571 25.907C11.4288 26.7929 7.94746 26.2058 5.28578 24.6242C2.59713 23.0266 0.723633 20.3985 0.723633 17.23C0.723633 12.1841 5.63239 8.14669 11.5736 8.14669C15.5103 8.14669 18.8034 9.85679 20.7014 12.331C22.555 14.7475 23.0737 17.8927 21.5505 20.8437L24.7411 22.5028L32.2584 18.385C30.4724 16.8169 28.9297 14.9882 27.7679 12.543C26.5481 9.97571 25.7545 6.74208 25.528 2.43849L25.5279 2.43778C25.4912 1.69975 25.8611 1.00074 26.4919 0.615933C27.1228 0.231124 27.9135 0.222142 28.5529 0.592525L28.5551 0.593757L28.5551 0.593768L31.0044 2.0449L33.525 0.490505C33.5251 0.490456 33.5252 0.490407 33.5253 0.490358C34.1243 0.118236 34.8743 0.0860923 35.503 0.405608C36.1318 0.725165 36.548 1.35003 36.6004 2.05342L36.6013 2.06537L36.6011 2.06538C36.6567 4.16093 37.1191 6.22566 37.9624 8.14477C38.4118 8.96279 39.2234 9.76716 40.2189 10.5767C40.9719 11.1891 41.8134 11.7915 42.6606 12.3981C42.9009 12.5701 43.1416 12.7424 43.3809 12.9154C46.2183 11.9731 48.4997 11.5421 50.2184 11.6485C51.9718 11.757 53.1801 12.4313 53.7512 13.7268C53.7515 13.7274 53.7517 13.7279 53.7519 13.7284L54.1127 14.5203L0.727546 36.4134ZM34.734 48.5152C34.5363 49.5812 34.4333 50.5734 34.3805 51.2697L32.0823 49.8678L32.0809 49.8669C31.4421 49.4831 30.6438 49.4829 30.0048 49.8662C30.0045 49.8664 30.0041 49.8667 30.0037 49.8669L27.8269 51.1461C27.9682 47.8141 28.7916 44.5448 30.2478 41.541C31.3097 39.6762 32.7216 38.0345 34.4053 36.7057C35.2189 37.1529 35.8954 37.5262 36.4648 37.8402C37.784 38.5679 38.5276 38.9781 39.0652 39.2561C39.7389 39.6044 40.0978 39.7493 40.8421 40.0446C39.0809 41.2672 37.0094 42.7994 35.9745 44.6317L35.9421 44.689V44.7184C35.3452 45.8425 34.9703 47.2402 34.734 48.5152ZM30.881 28.2541L51.5669 39.4047C51.4364 39.5603 51.2627 39.6765 51.0652 39.7367L50.8881 39.7908V39.8212C50.3544 39.977 49.6745 40.0053 48.9264 39.9461C48.1042 39.881 47.2239 39.7124 46.4096 39.5143C45.5962 39.3164 44.854 39.0904 44.3092 38.9126C44.0369 38.8237 43.8142 38.7469 43.6568 38.6918C43.6017 38.6725 43.5549 38.656 43.5163 38.6424C43.4996 38.6364 43.4844 38.6311 43.4707 38.6263C43.4486 38.6185 43.4299 38.6119 43.4158 38.6071L43.4145 38.6067C43.4106 38.6053 43.4005 38.6018 43.3885 38.5982C40.8559 37.6874 40.837 37.6769 33.9414 33.8806C32.1861 32.9142 29.9853 31.7025 27.1839 30.1682L30.881 28.2541ZM30.2136 12.3989C28.7572 9.38866 27.9335 6.11342 27.7916 2.77552L29.9963 4.08033L29.9963 4.08034L29.9986 4.08169C30.6226 4.44194 31.3913 4.44194 32.0153 4.08169L32.0154 4.08178L32.0215 4.07798L34.3208 2.6601C34.3765 3.35886 34.4811 4.35353 34.6799 5.42143C34.9213 6.71875 35.3048 8.14198 35.9193 9.27552L35.921 9.2785C36.9424 11.1024 38.8923 12.547 40.9043 13.9967L40.9053 13.9974C43.2584 15.675 45.6398 17.4987 47.4051 19.6161C49.1668 21.7294 50.3022 24.1199 50.1905 26.9368L50.1901 26.9467L50.1905 26.9567C50.2914 29.4787 49.3737 31.9487 47.2471 34.4143L41.2834 31.2118C42.5229 30.0472 43.1209 29.187 43.4006 28.4833C43.6522 27.8503 43.6389 27.352 43.6278 26.9396C43.6258 26.8622 43.6238 26.7878 43.6236 26.7161C43.6655 26.0418 43.4041 25.3479 42.9898 24.6806C42.5719 24.0076 41.9833 23.3371 41.3354 22.7055C40.0397 21.4421 38.4751 20.3037 37.4785 19.5805L37.3377 19.478C34.4654 17.3872 31.9125 15.5289 30.2136 12.3989ZM15.7662 23.8744L15.7652 23.8739C15.3058 23.6242 14.7674 23.5626 14.2636 23.7022C11.586 24.4264 8.75645 23.99 6.60074 22.7738C4.44483 21.5576 2.9903 19.5808 2.9903 17.23C2.9903 13.5218 6.78955 10.4134 11.5736 10.4134C16.3577 10.4134 20.157 13.5218 20.157 17.23C20.157 18.4214 19.8456 19.0996 19.5774 19.6607C19.5683 19.6797 19.5592 19.6987 19.5501 19.7177C19.2884 20.2638 19.0446 20.7725 19.2845 21.5253C19.4384 22.0546 19.8024 22.4979 20.2918 22.7519L20.292 22.752L22.3843 23.835L19.0379 25.6721L15.7662 23.8744ZM34.0633 19.9977L34.1787 19.934C34.8496 20.4444 35.413 20.8586 35.955 21.2554C36.0088 21.2948 36.0623 21.334 36.1158 21.3731C36.5387 21.6827 36.9532 21.9861 37.402 22.3224L20.2924 31.1411L20.2922 31.1412C19.8039 31.3935 19.4397 31.8342 19.2839 32.3613L19.2838 32.3616C19.0644 33.1077 19.3021 33.6084 19.5575 34.1462C19.5684 34.1691 19.5793 34.1921 19.5902 34.2152C19.8535 34.7717 20.157 35.4485 20.157 36.6457C20.157 40.3539 16.3577 43.4624 11.5736 43.4624C6.78868 43.4624 2.9903 40.3709 2.9903 36.6634C2.9903 34.2779 4.46395 32.3035 6.62834 31.097C8.79297 29.8903 11.6203 29.4715 14.2537 30.1908C14.7561 30.3334 15.2943 30.2754 15.7548 30.0292L15.7571 30.028C24.3696 25.311 29.1948 22.6676 31.748 21.268C33.0245 20.5683 33.7332 20.1794 34.0633 19.9977ZM33.3107 26.9519L39.2891 23.8822C41.3232 25.7221 41.357 26.4782 41.357 26.611V27.3089C41.357 27.4459 41.3123 28.1934 39.1691 30.1065L33.3107 26.9519ZM51.6338 14.599L47.928 16.8257C47.1831 16.07 46.3995 15.3536 45.5804 14.6793C46.496 14.4034 47.7615 14.0864 48.9267 13.9821C49.6115 13.9209 50.2436 13.9349 50.7438 14.0632C51.1555 14.1688 51.4543 14.3446 51.6338 14.599Z" fill="#0B2F64" stroke="#0B2F64" stroke-width="0.5"/>
<path d="M15.0082 31.7715L15.0082 31.7715L15.0064 31.7708C12.486 30.749 9.81152 30.9824 7.76391 31.9556C5.72377 32.9252 4.25684 34.6589 4.25684 36.6665C4.25684 38.201 5.12047 39.5934 6.45249 40.593C7.78569 41.5935 9.60571 42.2165 11.5735 42.2165C13.5413 42.2165 15.3613 41.5935 16.6945 40.593C18.0265 39.5934 18.8902 38.201 18.8902 36.6665C18.8902 34.3562 17.0125 32.6021 15.0082 31.7715ZM11.5735 33.3832V33.3833L11.5806 33.3831C13.1905 33.3375 14.7497 33.9483 15.9002 35.0752C16.4388 35.6439 16.645 36.2158 16.6253 36.7472C16.6054 37.284 16.3537 37.8157 15.9088 38.2938C15.0149 39.2542 13.3813 39.9498 11.5735 39.9498C10.2062 39.9498 8.93016 39.5497 8.00223 38.9308C7.06915 38.3084 6.5235 37.4923 6.5235 36.6665C6.5235 35.8407 7.06915 35.0247 8.00223 34.4023C8.93016 33.7833 10.2062 33.3832 11.5735 33.3832Z" fill="#0B2F64" stroke="#0B2F64" stroke-width="0.5"/>
</svg>
