<svg width="66" height="66" viewBox="0 0 66 66" fill="none" xmlns="http://www.w3.org/2000/svg">
<path d="M28.3267 48.4243C27.724 48.4243 27.135 48.603 26.6339 48.9378C26.1329 49.2726 25.7423 49.7485 25.5117 50.3052C25.2811 50.8619 25.2208 51.4746 25.3383 52.0656C25.4559 52.6566 25.7461 53.1995 26.1722 53.6257C26.5983 54.0518 27.1412 54.342 27.7322 54.4595C28.3233 54.5771 28.9359 54.5167 29.4926 54.2861C30.0494 54.0555 30.5252 53.665 30.86 53.1639C31.1948 52.6629 31.3735 52.0738 31.3735 51.4712C31.3735 50.6631 31.0525 49.8881 30.4811 49.3167C29.9097 48.7453 29.1347 48.4243 28.3267 48.4243ZM28.3267 52.4868C28.1258 52.4868 27.9294 52.4273 27.7624 52.3157C27.5954 52.2041 27.4652 52.0454 27.3883 51.8599C27.3115 51.6743 27.2914 51.4701 27.3306 51.2731C27.3697 51.076 27.4665 50.8951 27.6085 50.753C27.7505 50.611 27.9315 50.5143 28.1285 50.4751C28.3255 50.4359 28.5297 50.456 28.7153 50.5329C28.9009 50.6097 29.0595 50.7399 29.1711 50.9069C29.2827 51.074 29.3423 51.2703 29.3423 51.4712C29.3423 51.7406 29.2353 51.9989 29.0448 52.1893C28.8544 52.3798 28.596 52.4868 28.3267 52.4868Z" fill="#0B2F64"/>
<path d="M52.7017 48.4243C52.099 48.4243 51.51 48.603 51.0089 48.9378C50.5079 49.2726 50.1173 49.7485 49.8867 50.3052C49.6561 50.8619 49.5958 51.4746 49.7133 52.0656C49.8309 52.6566 50.1211 53.1995 50.5472 53.6257C50.9733 54.0518 51.5162 54.342 52.1072 54.4595C52.6983 54.5771 53.3109 54.5167 53.8676 54.2861C54.4244 54.0555 54.9002 53.665 55.235 53.1639C55.5698 52.6629 55.7485 52.0738 55.7485 51.4712C55.7485 50.6631 55.4275 49.8881 54.8561 49.3167C54.2847 48.7453 53.5097 48.4243 52.7017 48.4243ZM52.7017 52.4868C52.5008 52.4868 52.3044 52.4273 52.1374 52.3157C51.9704 52.2041 51.8402 52.0454 51.7633 51.8599C51.6865 51.6743 51.6664 51.4701 51.7056 51.2731C51.7447 51.076 51.8415 50.8951 51.9835 50.753C52.1255 50.611 52.3065 50.5143 52.5035 50.4751C52.7005 50.4359 52.9047 50.456 53.0903 50.5329C53.2759 50.6097 53.4345 50.7399 53.5461 50.9069C53.6577 51.074 53.7173 51.2703 53.7173 51.4712C53.7173 51.7406 53.6103 51.9989 53.4198 52.1893C53.2294 52.3798 52.971 52.4868 52.7017 52.4868Z" fill="#0B2F64"/>
<path d="M60.8267 36.2368H58.5253C57.9628 36.2402 57.4122 36.3985 56.934 36.6946C56.4557 36.9906 56.0684 37.4127 55.8145 37.9146C55.2618 35.4307 53.8815 33.2083 51.9001 31.6117C49.9186 30.0152 47.4534 29.1392 44.9088 29.1274H36.1196C33.5749 29.1392 31.1098 30.0152 29.1283 31.6117C27.1468 33.2083 25.7665 35.4307 25.2138 37.9146C24.9599 37.4127 24.5726 36.9906 24.0943 36.6946C23.6161 36.3985 23.0655 36.2402 22.5031 36.2368H20.2017C19.3936 36.2368 18.6186 36.5578 18.0472 37.1292C17.4758 37.7006 17.1548 38.4756 17.1548 39.2837V40.2993C17.1548 41.1074 17.4758 41.8824 18.0472 42.4538C18.6186 43.0252 19.3936 43.3462 20.2017 43.3462H21.8124L22.4066 43.9403C21.6916 44.3097 21.0746 44.8436 20.6065 45.4982C20.1384 46.1528 19.8325 46.9093 19.7142 47.7053L18.8438 53.799C18.7478 54.4672 18.7862 55.1477 18.9566 55.8009C19.1271 56.454 19.4262 57.0665 19.8365 57.6026C20.2467 58.1386 20.7598 58.5874 21.3457 58.9226C21.9316 59.2577 22.5785 59.4726 23.2485 59.5546V60.6118C23.2485 61.4199 23.5695 62.1949 24.1409 62.7663C24.7123 63.3377 25.4873 63.6587 26.2954 63.6587H30.3579C31.166 63.6587 31.941 63.3377 32.5124 62.7663C33.0838 62.1949 33.4048 61.4199 33.4048 60.6118V59.5962H47.6235V60.6118C47.6235 61.4199 47.9445 62.1949 48.5159 62.7663C49.0873 63.3377 49.8623 63.6587 50.6704 63.6587H54.7329C55.541 63.6587 56.316 63.3377 56.8874 62.7663C57.4588 62.1949 57.7798 61.4199 57.7798 60.6118V59.5546C58.4498 59.4726 59.0967 59.2577 59.6826 58.9226C60.2685 58.5874 60.7816 58.1386 61.1919 57.6026C61.6021 57.0665 61.9012 56.454 62.0717 55.8009C62.2421 55.1477 62.2805 54.4672 62.1846 53.799L61.3142 47.7053C61.1958 46.9093 60.89 46.1528 60.4218 45.4982C59.9537 44.8436 59.3367 44.3097 58.6217 43.9403L59.2159 43.3462H60.8267C61.6347 43.3462 62.4097 43.0252 62.9811 42.4538C63.5525 41.8824 63.8735 41.1074 63.8735 40.2993V39.2837C63.8735 38.4756 63.5525 37.7006 62.9811 37.1292C62.4097 36.5578 61.6347 36.2368 60.8267 36.2368ZM27.0703 39.0074C27.3903 36.833 28.4793 34.8453 30.1397 33.4052C31.8 31.9651 33.9217 31.1681 36.1196 31.1587H44.9088C47.1066 31.1681 49.2283 31.9651 50.8886 33.4052C52.549 34.8453 53.638 36.833 53.958 39.0074L54.5775 43.3462H26.4508L27.0703 39.0074ZM20.2017 41.3149C19.9323 41.3149 19.674 41.2079 19.4835 41.0175C19.293 40.827 19.186 40.5687 19.186 40.2993V39.2837C19.186 39.0143 19.293 38.756 19.4835 38.5655C19.674 38.3751 19.9323 38.2681 20.2017 38.2681H22.5031C22.7474 38.2683 22.9835 38.3567 23.168 38.5169C23.3525 38.6772 23.4731 38.8986 23.5075 39.1405L24.0153 42.6738L22.954 41.6125C22.8594 41.5178 22.7469 41.4428 22.6232 41.3917C22.4994 41.3407 22.3668 41.3146 22.2329 41.3149H20.2017ZM31.3735 60.6118C31.3735 60.8812 31.2665 61.1395 31.0761 61.33C30.8856 61.5204 30.6273 61.6274 30.3579 61.6274H26.2954C26.026 61.6274 25.7677 61.5204 25.5773 61.33C25.3868 61.1395 25.2798 60.8812 25.2798 60.6118V59.5962H31.3735V60.6118ZM55.7485 60.6118C55.7485 60.8812 55.6415 61.1395 55.4511 61.33C55.2606 61.5204 55.0023 61.6274 54.7329 61.6274H50.6704C50.4011 61.6274 50.1427 61.5204 49.9523 61.33C49.7618 61.1395 49.6548 60.8812 49.6548 60.6118V59.5962H55.7485V60.6118ZM60.1746 54.0874C60.2363 54.5196 60.2044 54.9599 60.0811 55.3787C59.9579 55.7974 59.746 56.1848 59.46 56.5145C59.174 56.8443 58.8204 57.1087 58.4233 57.29C58.0262 57.4712 57.5947 57.565 57.1582 57.5649H23.8701C23.4336 57.565 23.0022 57.4712 22.605 57.29C22.2079 57.1087 21.8544 56.8443 21.5683 56.5145C21.2823 56.1848 21.0705 55.7974 20.9472 55.3787C20.8239 54.9599 20.792 54.5196 20.8537 54.0874L21.7241 47.9937C21.8307 47.2689 22.1938 46.6063 22.7472 46.1263C23.3007 45.6463 24.0079 45.3806 24.7405 45.3774H56.2878C57.0204 45.3806 57.7277 45.6463 58.2811 46.1263C58.8346 46.6063 59.1976 47.2689 59.3042 47.9937L60.1746 54.0874ZM61.8423 40.2993C61.8423 40.5687 61.7353 40.827 61.5448 41.0175C61.3544 41.2079 61.096 41.3149 60.8267 41.3149H58.7954C58.5261 41.315 58.2678 41.422 58.0774 41.6125L57.016 42.6738L57.5238 39.1395C57.5585 38.8982 57.6786 38.6775 57.8625 38.5175C58.0463 38.3575 58.2816 38.269 58.5253 38.2681H60.8267C61.096 38.2681 61.3544 38.3751 61.5448 38.5655C61.7353 38.756 61.8423 39.0143 61.8423 39.2837V40.2993Z" fill="#0B2F64"/>
<path d="M46.6079 49.4399H34.4204C34.2595 49.4399 34.1008 49.4781 33.9576 49.5514C33.8143 49.6247 33.6905 49.731 33.5964 49.8615C33.5023 49.9921 33.4405 50.1431 33.4162 50.3022C33.3919 50.4612 33.4057 50.6238 33.4566 50.7765L34.4722 53.8234C34.5396 54.0257 34.669 54.2017 34.8419 54.3264C35.0149 54.451 35.2228 54.5181 35.436 54.5181H45.5923C45.8055 54.5181 46.0134 54.451 46.1864 54.3264C46.3594 54.2017 46.4887 54.0257 46.5561 53.8234L47.5717 50.7765C47.6226 50.6238 47.6364 50.4612 47.6121 50.3022C47.5878 50.1431 47.5261 49.9921 47.4319 49.8615C47.3378 49.731 47.214 49.6247 47.0707 49.5514C46.9275 49.4781 46.7688 49.4399 46.6079 49.4399ZM44.86 52.4868H36.1683L35.8291 51.4712H45.1992L44.86 52.4868Z" fill="#0B2F64"/>
<path d="M14.1079 54.7049V27.0962H20.2017C20.471 27.0962 20.7293 26.9892 20.9198 26.7987C21.1103 26.6083 21.2173 26.3499 21.2173 26.0806V7.79932C21.2173 7.52996 21.1103 7.27163 20.9198 7.08116C20.7293 6.89069 20.471 6.78369 20.2017 6.78369H3.95166C3.6823 6.78369 3.42397 6.89069 3.2335 7.08116C3.04304 7.27163 2.93604 7.52996 2.93604 7.79932V26.0806C2.93604 26.3499 3.04304 26.6083 3.2335 26.7987C3.42397 26.9892 3.6823 27.0962 3.95166 27.0962H9.02979V54.7049C8.43777 54.9142 7.92488 55.3013 7.56128 55.8133C7.19768 56.3252 7.00114 56.937 6.99854 57.5649V62.6431C6.99854 62.9124 7.10554 63.1708 7.29601 63.3612C7.48647 63.5517 7.7448 63.6587 8.01416 63.6587H15.1235C15.3929 63.6587 15.6512 63.5517 15.8417 63.3612C16.0322 63.1708 16.1392 62.9124 16.1392 62.6431V57.5649C16.1366 56.937 15.94 56.3252 15.5764 55.8133C15.2128 55.3013 14.6999 54.9142 14.1079 54.7049ZM4.96729 8.81494H19.186V25.0649H4.96729V8.81494ZM12.0767 27.0962V54.5181H11.061V27.0962H12.0767ZM14.1079 61.6274H9.02979V57.5649C9.02979 57.2956 9.13679 57.0373 9.32726 56.8468C9.51772 56.6563 9.77605 56.5493 10.0454 56.5493H13.0923C13.3616 56.5493 13.62 56.6563 13.8104 56.8468C14.0009 57.0373 14.1079 57.2956 14.1079 57.5649V61.6274Z" fill="#0B2F64"/>
<path d="M11.061 22.0181V18.9712H13.0923C14.1697 18.9712 15.203 18.5432 15.9649 17.7813C16.7268 17.0194 17.1548 15.9861 17.1548 14.9087C17.1548 13.8312 16.7268 12.7979 15.9649 12.0361C15.203 11.2742 14.1697 10.8462 13.0923 10.8462H10.0454C9.77605 10.8462 9.51772 10.9532 9.32726 11.1437C9.13679 11.3341 9.02979 11.5925 9.02979 11.8618V22.0181C9.02979 22.2874 9.13679 22.5458 9.32726 22.7362C9.51772 22.9267 9.77605 23.0337 10.0454 23.0337C10.3148 23.0337 10.5731 22.9267 10.7636 22.7362C10.954 22.5458 11.061 22.2874 11.061 22.0181ZM11.061 12.8774H13.0923C13.631 12.8774 14.1477 13.0914 14.5286 13.4724C14.9095 13.8533 15.1235 14.37 15.1235 14.9087C15.1235 15.4474 14.9095 15.9641 14.5286 16.345C14.1477 16.7259 13.631 16.9399 13.0923 16.9399H11.061V12.8774Z" fill="#0B2F64"/>
<path d="M36.1541 33.4875C35.9637 33.2971 35.7054 33.1902 35.4361 33.1902C35.1668 33.1902 34.9085 33.2971 34.718 33.4875L29.6399 38.5657C29.5429 38.6594 29.4655 38.7714 29.4123 38.8953C29.3591 39.0192 29.331 39.1525 29.3299 39.2874C29.3287 39.4222 29.3544 39.556 29.4055 39.6808C29.4565 39.8056 29.5319 39.919 29.6273 40.0144C29.7227 40.1097 29.8361 40.1851 29.9609 40.2362C30.0857 40.2873 30.2194 40.313 30.3543 40.3118C30.4891 40.3106 30.6224 40.2826 30.7463 40.2294C30.8702 40.1761 30.9823 40.0988 31.076 40.0018L36.1541 34.9236C36.3445 34.7332 36.4515 34.4749 36.4515 34.2056C36.4515 33.9363 36.3445 33.678 36.1541 33.4875Z" fill="#0B2F64"/>
<path d="M39.7961 33.4875L34.718 38.5656C34.621 38.6593 34.5436 38.7714 34.4904 38.8953C34.4372 39.0192 34.4092 39.1525 34.408 39.2873C34.4068 39.4222 34.4325 39.5559 34.4836 39.6807C34.5347 39.8055 34.6101 39.9189 34.7054 40.0143C34.8008 40.1097 34.9142 40.1851 35.039 40.2361C35.1638 40.2872 35.2976 40.3129 35.4324 40.3117C35.5673 40.3106 35.7005 40.2825 35.8244 40.2293C35.9484 40.1761 36.0604 40.0987 36.1541 40.0017L41.2322 34.9236C41.4172 34.732 41.5196 34.4755 41.5173 34.2092C41.515 33.9429 41.4082 33.6882 41.2199 33.4999C41.0316 33.3116 40.7768 33.2047 40.5105 33.2024C40.2442 33.2001 39.9877 33.3025 39.7961 33.4875Z" fill="#0B2F64"/>
</svg>
