<svg width="53" height="53" viewBox="0 0 53 53" fill="none" xmlns="http://www.w3.org/2000/svg">
<g clip-path="url(#clip0)">
<path d="M52.962 12.161C52.962 8.90452 50.0254 6.05156 45.3388 4.02074C40.6378 1.98368 34.1164 0.744287 26.812 0.744287C19.5076 0.744287 12.9862 1.98368 8.28522 4.02074C3.59859 6.05156 0.662012 8.90452 0.662012 12.161C0.662012 15.0226 2.93666 17.5705 6.65968 19.5219C2.80823 21.5254 0.662012 24.0907 0.662012 26.8943C0.662012 29.6976 2.80447 32.2586 6.64863 34.261C2.80439 36.2636 0.662012 38.8303 0.662012 41.6276C0.662012 44.884 3.59859 47.737 8.28522 49.7678C12.9862 51.8049 19.5076 53.0443 26.812 53.0443C34.1164 53.0443 40.6378 51.8049 45.3388 49.7678C50.0254 47.737 52.962 44.884 52.962 41.6276C52.962 38.8303 50.8196 36.2644 46.9753 34.261C50.8196 32.2575 52.962 29.6916 52.962 26.8943C52.962 24.0967 50.8159 21.5257 46.9643 19.5219C50.6874 17.5705 52.962 15.0226 52.962 12.161ZM50.9287 41.6276C50.9287 42.8619 50.2654 44.0664 49.0358 45.1862C47.8067 46.3056 46.0246 47.3275 43.8233 48.1923C39.4219 49.9215 33.3745 51.011 26.812 51.011C20.2495 51.011 14.2021 49.9215 9.80068 48.1923C7.59946 47.3275 5.81737 46.3056 4.58819 45.1862C3.35863 44.0664 2.69535 42.8619 2.69535 41.6276C2.69535 40.5216 3.26321 39.3945 4.36159 38.3155C5.44952 37.2468 7.04755 36.2364 9.08926 35.3566C9.75013 35.6174 10.4411 35.8585 11.1532 36.0852C9.09184 36.8201 7.39071 37.6778 6.18036 38.5843C4.89425 39.5476 4.12868 40.5921 4.12868 41.6276C4.12868 42.1891 4.58386 42.6443 5.14535 42.6443C5.70683 42.6443 6.16201 42.1891 6.16201 41.6276C6.16201 41.5592 6.19025 41.4577 6.26886 41.3224C6.34631 41.1892 6.46662 41.0336 6.63475 40.8602C6.97087 40.5133 7.48746 40.1057 8.2008 39.6729C9.62144 38.8111 11.8088 37.8578 14.8661 37.0886C18.793 37.9194 22.7973 38.3292 26.8111 38.311C32.8493 38.4125 38.8551 37.4109 44.5333 35.3556C46.5757 36.2356 48.1743 37.2466 49.2625 38.3158C50.3608 39.3949 50.9287 40.522 50.9287 41.6276ZM50.9287 26.8943C50.9287 28.0277 50.3337 29.1828 49.1831 30.2856C48.033 31.3879 46.3393 32.4259 44.1747 33.3207C39.5452 35.2257 33.3795 36.2776 26.812 36.2776C20.2445 36.2776 14.0788 35.2257 9.44934 33.3215C7.28472 32.4264 5.59104 31.3881 4.44098 30.2857C3.29036 29.1828 2.69535 28.0277 2.69535 26.8943C2.69535 25.7891 3.26218 24.6628 4.35871 23.5846C5.44477 22.5167 7.04013 21.507 9.07869 20.6277C9.73009 20.8867 10.4138 21.1307 11.125 21.3595C9.06978 22.0963 7.37521 22.9539 6.17011 23.8592C4.88994 24.8209 4.12868 25.8624 4.12868 26.8943C4.12868 27.4558 4.58386 27.911 5.14535 27.911C5.70683 27.911 6.16201 27.4558 6.16201 26.8943C6.16201 26.8262 6.19014 26.7251 6.26856 26.5902C6.34581 26.4573 6.46583 26.3021 6.63356 26.129C6.96888 25.7828 7.48423 25.3758 8.19581 24.9433C9.61291 24.082 11.7947 23.1279 14.8437 22.3544C18.7777 23.1884 22.7896 23.5985 26.811 23.5776C32.8529 23.6914 38.8638 22.691 44.5429 20.6267C46.5826 21.5062 48.1788 22.5165 49.2653 23.5849C50.3619 24.6633 50.9287 25.7895 50.9287 26.8943ZM26.812 21.5443C20.2495 21.5443 14.2021 20.4549 9.80068 18.7257C7.59946 17.8608 5.81737 16.8389 4.58819 15.7195C3.35863 14.5997 2.69535 13.3952 2.69535 12.161C2.69535 10.9267 3.35863 9.72219 4.58819 8.60242C5.81737 7.48299 7.59946 6.46106 9.80068 5.59625C14.2021 3.86703 20.2495 2.77762 26.812 2.77762C33.3745 2.77762 39.4219 3.86703 43.8233 5.59625C46.0246 6.46106 47.8067 7.48299 49.0358 8.60242C50.2654 9.72219 50.9287 10.9267 50.9287 12.161C50.9287 13.3952 50.2654 14.5997 49.0358 15.7195C47.8067 16.8389 46.0246 17.8608 43.8233 18.7257C39.4219 20.4549 33.3745 21.5443 26.812 21.5443Z" fill="#0B2F64" stroke="#0B2F64" stroke-width="0.3"/>
<path d="M48.4786 11.1442C47.9172 11.1442 47.462 11.5994 47.462 12.1609C47.462 12.2949 47.376 12.4965 47.1543 12.7583C46.9372 13.0147 46.6072 13.3083 46.1628 13.6237C45.2746 14.254 43.9452 14.9596 42.1927 15.6203C38.6888 16.9413 33.5069 18.0775 26.812 18.0775C26.2505 18.0775 25.7953 18.5327 25.7953 19.0942C25.7953 19.6557 26.2505 20.1109 26.812 20.1109C33.7055 20.1109 39.3581 18.9533 43.2924 17.3927C45.2589 16.6127 46.8017 15.7296 47.8559 14.8355C48.9044 13.9462 49.4953 13.023 49.4953 12.1609C49.4953 11.5994 49.0401 11.1442 48.4786 11.1442Z" fill="#0B2F64" stroke="#0B2F64" stroke-width="0.3"/>
<path d="M27.8288 5.22775C27.8288 4.66626 27.3736 4.21108 26.8121 4.21108C19.9186 4.21108 14.266 5.36861 10.3318 6.92923C8.36527 7.70929 6.82239 8.5923 5.76821 9.48646C4.71975 10.3758 4.12881 11.2989 4.12881 12.1611C4.12881 12.7226 4.58399 13.1778 5.14547 13.1778C5.70696 13.1778 6.16214 12.7226 6.16214 12.1611C6.16214 12.0271 6.24809 11.8255 6.46981 11.5636C6.68694 11.3072 7.01688 11.0136 7.46134 10.6982C8.34955 10.068 9.67893 9.36233 11.4315 8.70163C14.9353 7.38068 20.1172 6.24442 26.8121 6.24442C27.3736 6.24442 27.8288 5.78924 27.8288 5.22775Z" fill="#0B2F64" stroke="#0B2F64" stroke-width="0.3"/>
<path d="M25.7953 33.8276C25.7953 34.3891 26.2505 34.8443 26.812 34.8443C33.7055 34.8443 39.3581 33.6867 43.2924 32.1261C45.2589 31.3461 46.8017 30.463 47.8559 29.5689C48.9044 28.6796 49.4953 27.7564 49.4953 26.8943C49.4953 26.3328 49.0401 25.8776 48.4786 25.8776C47.9172 25.8776 47.462 26.3328 47.462 26.8943C47.462 27.0283 47.376 27.2299 47.1543 27.4917C46.9372 27.7481 46.6072 28.0417 46.1628 28.3571C45.2746 28.9874 43.9452 29.693 42.1927 30.3537C38.6888 31.6747 33.5069 32.8109 26.812 32.8109C26.2505 32.8109 25.7953 33.2661 25.7953 33.8276Z" fill="#0B2F64" stroke="#0B2F64" stroke-width="0.3"/>
<path d="M26.812 47.5443C26.2505 47.5443 25.7953 47.9995 25.7953 48.561C25.7953 49.1225 26.2505 49.5777 26.812 49.5777C33.7055 49.5777 39.3581 48.4201 43.2924 46.8595C45.2589 46.0795 46.8017 45.1964 47.8559 44.3023C48.9044 43.413 49.4953 42.4898 49.4953 41.6277C49.4953 41.0662 49.0401 40.611 48.4786 40.611C47.9172 40.611 47.462 41.0662 47.462 41.6277C47.462 41.7617 47.376 41.9633 47.1543 42.2251C46.9372 42.4815 46.6072 42.7751 46.1628 43.0905C45.2746 43.7208 43.9452 44.4264 42.1927 45.0871C38.6888 46.4081 33.5069 47.5443 26.812 47.5443Z" fill="#0B2F64" stroke="#0B2F64" stroke-width="0.3"/>
<path d="M8.61203 29.6443C9.17352 29.6443 9.6287 29.1891 9.6287 28.6276C9.6287 28.0662 9.17352 27.611 8.61203 27.611C8.05054 27.611 7.59536 28.0662 7.59536 28.6276C7.59536 29.1891 8.05054 29.6443 8.61203 29.6443Z" fill="#0B2F64" stroke="#0B2F64" stroke-width="0.3"/>
<path d="M12.9453 32.2444C13.5068 32.2444 13.9619 31.7892 13.9619 31.2278C13.9619 30.6663 13.5068 30.2111 12.9453 30.2111C12.3838 30.2111 11.9286 30.6663 11.9286 31.2278C11.9286 31.7892 12.3838 32.2444 12.9453 32.2444Z" fill="#0B2F64" stroke="#0B2F64" stroke-width="0.3"/>
<path d="M16.4121 30.511C16.9736 30.511 17.4287 30.0558 17.4287 29.4944C17.4287 28.9329 16.9736 28.4777 16.4121 28.4777C15.8506 28.4777 15.3954 28.9329 15.3954 29.4944C15.3954 30.0558 15.8506 30.511 16.4121 30.511Z" fill="#0B2F64" stroke="#0B2F64" stroke-width="0.3"/>
<path d="M19.8786 33.9776C20.4401 33.9776 20.8953 33.5224 20.8953 32.9609C20.8953 32.3994 20.4401 31.9442 19.8786 31.9442C19.3171 31.9442 18.862 32.3994 18.862 32.9609C18.862 33.5224 19.3171 33.9776 19.8786 33.9776Z" fill="#0B2F64" stroke="#0B2F64" stroke-width="0.3"/>
<path d="M22.4787 30.511C23.0402 30.511 23.4954 30.0558 23.4954 29.4944C23.4954 28.9329 23.0402 28.4777 22.4787 28.4777C21.9172 28.4777 21.4621 28.9329 21.4621 29.4944C21.4621 30.0558 21.9172 30.511 22.4787 30.511Z" fill="#0B2F64" stroke="#0B2F64" stroke-width="0.3"/>
<path d="M27.6787 31.3777C28.2402 31.3777 28.6954 30.9225 28.6954 30.361C28.6954 29.7996 28.2402 29.3444 27.6787 29.3444C27.1172 29.3444 26.662 29.7996 26.662 30.361C26.662 30.9225 27.1172 31.3777 27.6787 31.3777Z" fill="#0B2F64" stroke="#0B2F64" stroke-width="0.3"/>
<path d="M31.1455 27.9109C31.707 27.9109 32.1621 27.4557 32.1621 26.8943C32.1621 26.3328 31.707 25.8776 31.1455 25.8776C30.584 25.8776 30.1288 26.3328 30.1288 26.8943C30.1288 27.4557 30.584 27.9109 31.1455 27.9109Z" fill="#0B2F64" stroke="#0B2F64" stroke-width="0.3"/>
<path d="M38.9453 28.7776C39.5068 28.7776 39.9619 28.3224 39.9619 27.761C39.9619 27.1995 39.5068 26.7443 38.9453 26.7443C38.3838 26.7443 37.9286 27.1995 37.9286 27.761C37.9286 28.3224 38.3838 28.7776 38.9453 28.7776Z" fill="#0B2F64" stroke="#0B2F64" stroke-width="0.3"/>
<path d="M34.612 31.3777C35.1735 31.3777 35.6287 30.9225 35.6287 30.361C35.6287 29.7996 35.1735 29.3444 34.612 29.3444C34.0505 29.3444 33.5954 29.7996 33.5954 30.361C33.5954 30.9225 34.0505 31.3777 34.612 31.3777Z" fill="#0B2F64" stroke="#0B2F64" stroke-width="0.3"/>
<path d="M36.3454 26.1775C36.9069 26.1775 37.3621 25.7223 37.3621 25.1609C37.3621 24.5994 36.9069 24.1442 36.3454 24.1442C35.7839 24.1442 35.3288 24.5994 35.3288 25.1609C35.3288 25.7223 35.7839 26.1775 36.3454 26.1775Z" fill="#0B2F64" stroke="#0B2F64" stroke-width="0.3"/>
<path d="M41.5454 25.3108C42.1069 25.3108 42.562 24.8556 42.562 24.2942C42.562 23.7327 42.1069 23.2775 41.5454 23.2775C40.9839 23.2775 40.5287 23.7327 40.5287 24.2942C40.5287 24.8556 40.9839 25.3108 41.5454 25.3108Z" fill="#0B2F64" stroke="#0B2F64" stroke-width="0.3"/>
<path d="M45.8786 25.3108C46.4401 25.3108 46.8953 24.8556 46.8953 24.2942C46.8953 23.7327 46.4401 23.2775 45.8786 23.2775C45.3171 23.2775 44.862 23.7327 44.862 24.2942C44.862 24.8556 45.3171 25.3108 45.8786 25.3108Z" fill="#0B2F64" stroke="#0B2F64" stroke-width="0.3"/>
<path d="M43.2788 28.7776C43.8403 28.7776 44.2954 28.3224 44.2954 27.761C44.2954 27.1995 43.8403 26.7443 43.2788 26.7443C42.7173 26.7443 42.2621 27.1995 42.2621 27.761C42.2621 28.3224 42.7173 28.7776 43.2788 28.7776Z" fill="#0B2F64" stroke="#0B2F64" stroke-width="0.3"/>
<path d="M25.9453 27.9109C26.5068 27.9109 26.9619 27.4557 26.9619 26.8943C26.9619 26.3328 26.5068 25.8776 25.9453 25.8776C25.3838 25.8776 24.9286 26.3328 24.9286 26.8943C24.9286 27.4557 25.3838 27.9109 25.9453 27.9109Z" fill="#0B2F64" stroke="#0B2F64" stroke-width="0.3"/>
<path d="M20.7453 27.0445C21.3068 27.0445 21.762 26.5893 21.762 26.0278C21.762 25.4663 21.3068 25.0111 20.7453 25.0111C20.1838 25.0111 19.7287 25.4663 19.7287 26.0278C19.7287 26.5893 20.1838 27.0445 20.7453 27.0445Z" fill="#0B2F64" stroke="#0B2F64" stroke-width="0.3"/>
<path d="M16.4121 26.1775C16.9736 26.1775 17.4287 25.7223 17.4287 25.1609C17.4287 24.5994 16.9736 24.1442 16.4121 24.1442C15.8506 24.1442 15.3954 24.5994 15.3954 25.1609C15.3954 25.7223 15.8506 26.1775 16.4121 26.1775Z" fill="#0B2F64" stroke="#0B2F64" stroke-width="0.3"/>
<path d="M12.0786 27.0445C12.6401 27.0445 13.0952 26.5893 13.0952 26.0278C13.0952 25.4663 12.6401 25.0111 12.0786 25.0111C11.5171 25.0111 11.0619 25.4663 11.0619 26.0278C11.0619 26.5893 11.5171 27.0445 12.0786 27.0445Z" fill="#0B2F64" stroke="#0B2F64" stroke-width="0.3"/>
</g>
<defs>
<clipPath id="clip0">
<rect x="0.812012" y="0.894287" width="52" height="52" fill="white"/>
</clipPath>
</defs>
</svg>
