<svg width="102" height="90" viewBox="0 0 102 90" fill="none" xmlns="http://www.w3.org/2000/svg">
<path d="M42.1574 23.8594C44.2966 23.5389 46.6721 22.7337 48.6991 23.8994C49.6605 24.3841 50.0611 25.4337 50.4858 26.3551C51.7116 26.3511 52.9374 26.3511 54.1632 26.335C54.6519 25.6741 55.0125 24.7807 55.8497 24.4883C57.2237 24.0637 58.6859 24.2519 60.088 24.3841C59.2868 26.2229 57.2037 26.2749 55.4771 26.2108C55.8858 26.5514 56.3024 26.8838 56.6709 27.2684C56.711 27.8933 56.6349 28.5183 56.6188 29.1432C57.5242 29.7 57.8567 30.6294 57.8006 31.6629C58.5858 31.4706 59.3789 31.3024 60.1801 31.1822C59.6994 31.7991 59.1065 32.3359 58.3574 32.6043C53.5823 34.5913 48.0061 34.5873 43.231 32.6083C42.4739 32.3399 41.873 31.7951 41.4043 31.1582C42.4899 31.2864 43.5194 31.6549 44.5209 32.0675C44.8975 31.3825 45.278 30.6975 45.6586 30.0125C45.2941 29.5157 44.9415 29.015 44.6491 28.4742C44.9696 27.5168 45.4623 26.6315 45.8669 25.7101C45.5144 26.1508 45.1779 26.6034 44.8654 27.0681C44.2004 27.0922 43.5074 27.1923 42.8785 26.9239C42.538 25.9264 42.4298 24.8729 42.1574 23.8594ZM43.8159 24.4683C43.7958 25.1493 43.7678 25.8303 43.7277 26.5113C44.2085 25.9545 44.5369 25.0531 45.4182 25.0972C46.0312 25.0932 46.9125 25.2735 46.9685 26.0266C46.6921 26.9359 46.2074 27.7611 45.8148 28.6184C46.2715 28.9309 46.7322 29.2393 47.1929 29.5478C46.628 30.5933 46.0512 31.6389 45.5625 32.7285C46.5479 31.6709 47.289 30.4011 48.3466 29.4076C49.7407 29.0911 51.2068 29.2033 52.6249 29.2954C53.7626 29.6159 54.8082 30.2488 55.8217 30.8457C56.1181 31.4106 56.3304 32.0195 56.5708 32.6123C56.5387 31.9273 56.5067 31.2463 56.4746 30.5613C55.3129 29.8242 55.1527 28.5663 55.4972 27.3125C53.7546 27.1843 52 27.3085 50.2614 27.1442C48.8794 27.0721 49.0596 25.2174 48.0221 24.6205C46.7482 23.8153 45.1899 24.2359 43.8159 24.4683ZM49.0516 30.1086C48.3546 31.022 47.6536 31.9313 46.9605 32.8447C49.6886 33.2733 52.4487 33.2172 55.1767 32.8046C55.0766 32.3399 54.9804 31.8752 54.8843 31.4146C54.039 31.03 53.2138 30.6094 52.4166 30.1447C51.295 30.1126 50.1733 30.1206 49.0516 30.1086Z" fill="white"/>
<path d="M35.1831 40.2757C35.7639 39.803 36.5451 39.9993 37.162 40.2837C39.2811 41.4174 40.9917 43.8089 40.2986 46.3006C41.9491 47.6987 43.4794 49.7698 42.6501 52.0451C42.1534 52.1974 41.6567 52.3576 41.1639 52.5218C40.0262 54.9094 38.9687 57.333 37.7228 59.6644C37.2822 59.0115 36.8936 58.3224 36.6693 57.5653C35.812 54.7932 35.0028 52.0051 34.1335 49.237C33.6007 47.4583 31.8141 46.0643 32.1746 44.0533C32.3348 42.8315 33.797 42.8395 34.7144 43.0198C34.6863 42.1184 34.2617 40.8846 35.1831 40.2757ZM35.8561 41.3613C35.0308 42.9036 36.3448 44.6061 37.6788 45.3272C38.3678 45.8119 39.5856 45.4073 39.4213 44.4419C39.3492 42.8034 37.6227 40.7003 35.8561 41.3613ZM33.4805 44.2536C32.3749 46.0282 34.7584 49.0207 36.7294 48.1874C37.3783 47.1419 36.7374 45.864 35.9602 45.0868C35.3473 44.4579 34.3699 43.6888 33.4805 44.2536ZM38.6562 46.9336C37.875 47.1339 37.9391 48.2355 38.1675 48.8404C38.6482 49.958 39.6176 51.0677 40.8915 51.2199C42.1534 51.1799 42.0012 49.5134 41.4804 48.7563C40.8755 47.8309 39.87 46.6652 38.6562 46.9336ZM35.0989 49.4733C35.9202 52.0812 36.7013 54.7011 37.5105 57.313C38.3077 55.6305 39.1009 53.9399 39.9061 52.2575C38.2075 51.5083 36.5972 50.571 35.0989 49.4733Z" fill="white"/>
<path d="M62.3833 43.0838C63.4488 42.2706 64.6787 41.7058 65.8284 41.0248C66.0367 41.173 66.4493 41.4775 66.6576 41.6257C68.28 41.0688 69.9064 41.7218 71.4487 42.2306C70.8077 44.1574 70.0947 46.0602 69.2975 47.927C69.0371 47.8869 68.5164 47.8068 68.256 47.7668C68.1558 50.615 68.5003 53.5153 68.0877 56.3395C65.4678 58.1181 62.6396 59.6163 59.8515 61.1306C59.7874 58.2984 59.8235 55.4662 59.8275 52.63C59.4389 53.0947 59.0543 53.5593 58.6818 54.036C57.9887 53.0025 57.1876 52.0251 56.6748 50.8874C58.0729 47.935 60.5846 45.7518 62.3833 43.0838ZM65.6801 42.5831C65.1994 43.0398 64.6146 43.8289 64.8549 44.518C65.5239 44.522 66.1528 42.9596 65.6801 42.5831ZM66.7137 42.7313C66.285 43.7728 65.9846 44.8825 65.3837 45.8439C65.1434 45.88 64.6626 45.9521 64.4223 45.9881C64.4623 49.8018 64.4303 53.6194 64.4423 57.4371C65.4398 56.8642 66.4333 56.2874 67.4307 55.7145C67.4347 52.9945 67.4147 50.2785 67.4388 47.5585C66.914 47.4303 66.4132 47.218 65.9485 46.9415C66.1048 46.7012 66.4092 46.2125 66.5655 45.9721C67.3987 46.1844 68.2359 46.3967 69.0732 46.609C69.5018 45.4714 69.9345 44.3337 70.3631 43.192C69.1773 42.8555 67.9555 42.4829 66.7137 42.7313ZM63.6051 43.8209C64.0658 44.2496 64.7908 43.4884 64.4623 43.0157C64.0137 42.6792 63.1925 43.3362 63.6051 43.8209ZM62.0388 44.3257C62.2551 44.9065 62.5115 45.4674 62.7558 46.0362C62.9801 45.6797 63.2045 45.3272 63.4208 44.9666C62.9601 44.7503 62.4994 44.538 62.0388 44.3257ZM57.6923 50.5228C58.1209 51.1598 58.5496 51.8007 58.9742 52.4417C59.8996 51.1558 60.7408 49.7978 61.8545 48.6561C62.0187 49.7537 61.2175 50.5869 60.6607 51.4322C60.6447 54.1602 60.6567 56.8923 60.6527 59.6243C61.6382 59.0595 62.6196 58.4866 63.6051 57.9218C63.6171 54.02 63.581 50.1182 63.6251 46.2165C63.2846 46.6731 62.9561 47.1338 62.6396 47.6065C62.195 47.0297 61.7583 46.4528 61.3257 45.868C59.8675 47.2139 58.826 48.9125 57.6923 50.5228Z" fill="white"/>
<path d="M29.1301 12.1941C30.7004 11.4289 32.0744 10.147 33.829 9.83856C35.4915 10.0028 36.7814 11.2366 38.2355 11.9497C39.5856 12.843 41.3281 13.3558 42.2094 14.7979C42.578 16.0558 42.3136 17.4058 42.3737 18.6997C44.4447 17.542 46.4237 16.196 48.5909 15.2225C50.4737 14.5335 52.6369 14.8059 54.3274 15.8635C59.2467 18.7037 64.17 21.5399 69.0853 24.3841C69.1133 23.5108 69.0172 22.6215 69.2054 21.7602C69.7022 20.4423 71.0722 19.8254 72.2059 19.1524C74.1528 18.0828 76.0315 16.885 78.0025 15.8515C78.9559 15.3147 80.1256 15.4669 81.043 16.0157C83.1741 17.2175 85.2812 18.4714 87.4084 19.6771C88.4259 20.27 89.6197 21.1193 89.5996 22.4332C89.6277 25.3736 89.6197 28.3179 89.6036 31.2623C89.6397 32.6964 88.2977 33.5657 87.2001 34.1946C84.9608 35.4285 82.8056 36.8105 80.5382 37.9803C79.056 38.7133 77.5658 37.7199 76.324 36.9788C76.356 42.8114 76.348 48.6441 76.336 54.4767C76.3841 56.9604 74.7336 59.0555 72.6706 60.2533C73.8804 61.0224 75.6189 61.4951 76.1197 62.9853C76.2559 65.2326 76.1597 67.492 76.1718 69.7433C76.3039 71.0452 75.0461 71.7663 74.0807 72.3191C72.4983 73.1724 71.0041 74.1939 69.3737 74.947C67.9315 75.592 66.6256 74.3541 65.4078 73.7412C63.9657 72.7598 62.135 72.219 61.0574 70.7889C60.6247 69.5831 60.9091 68.2451 60.8531 66.9832C58.5456 68.3292 56.2422 69.6912 53.9068 70.9932C51.9198 72.1389 49.356 72.0467 47.4131 70.853C43.1829 68.4013 38.9246 65.9897 34.7183 63.4981C34.6623 64.5156 34.8505 65.6693 34.1415 66.5105C33.14 67.8365 31.5256 68.4414 30.1556 69.2946C28.1887 70.4043 26.2618 71.582 24.2829 72.6757C23.1252 73.3246 21.655 73.2285 20.5373 72.5395C17.9054 71.0172 15.2735 69.4989 12.6376 67.9807C11.536 67.3197 10.3703 66.3022 10.3943 64.9081C10.3823 61.427 10.3863 57.9458 10.3943 54.4647C10.3542 52.9625 11.6562 51.9129 12.8379 51.2319C15.5099 49.7297 18.1378 48.1473 20.8137 46.6531C22.2599 45.8119 23.9544 46.3567 25.2764 47.1659C25.2203 42.1264 25.2403 37.0789 25.2563 32.0395C25.2483 29.5037 27.0029 27.4086 29.1461 26.2629C28.0565 25.642 26.8547 25.1412 25.9614 24.2319C25.1682 23.4347 25.4606 22.2289 25.4005 21.2274C25.4847 19.1403 25.2563 17.0332 25.5207 14.9581C26.2057 13.516 27.8802 13.0193 29.1301 12.1941ZM27.6799 14.7218C29.7189 15.8555 31.6418 17.2335 33.801 18.1308C36.0763 17.3978 38.0032 15.8435 40.1023 14.7218C38.1274 13.516 36.1925 12.182 34.0534 11.2887C31.7259 11.9016 29.775 13.5561 27.6799 14.7218ZM26.8507 16.1119C26.8627 18.4593 26.6424 20.8268 26.9428 23.1583C27.9683 24.1878 29.3504 24.7366 30.5802 25.4777C31.4255 24.997 32.2707 24.5163 33.116 24.0276C33.0599 22.6055 33.3483 21.1113 32.9077 19.7412C31.089 18.247 28.8777 17.2976 26.8507 16.1119ZM35.6397 19.1243C34.1094 19.8534 34.8225 21.8043 34.6502 23.1503C36.7574 21.9205 38.8725 20.7027 40.9876 19.4889C40.9876 18.3672 40.9716 17.2495 40.9476 16.1319C39.1489 17.0733 37.3703 18.0587 35.6397 19.1243ZM49.1397 16.909C43.3712 20.0497 37.7508 23.4828 32.0223 26.7035C31.1571 27.2123 30.2036 27.6489 29.5627 28.4501C29.7189 29.68 31.137 29.9964 32.0063 30.6173C37.4304 33.726 42.8424 36.8586 48.2504 39.9952C49.6965 40.8926 51.5873 40.9887 53.0735 40.1314C58.9262 36.7665 64.7628 33.3694 70.6235 30.0165C71.2284 29.6439 71.9855 29.2673 72.0296 28.4541C71.3085 27.5768 70.243 27.1122 69.2896 26.5433C63.9416 23.4828 58.6137 20.3942 53.2818 17.3096C52.052 16.5685 50.4857 16.3482 49.1397 16.909ZM71.6491 21.2274C74.2128 22.6736 76.6244 24.5243 79.4166 25.4817C82.1286 24.4202 84.5361 22.6976 87.0398 21.2274C84.5321 19.7613 82.1246 18.0307 79.4126 16.9731C76.6204 17.9386 74.2088 19.7813 71.6491 21.2274ZM70.6075 23.0101C70.5915 23.7512 70.5755 24.4883 70.5594 25.2294C72.3581 26.2949 74.4612 27.1923 75.5228 29.1071C76.5924 30.9739 76.328 33.2012 76.34 35.2602C77.005 35.6208 77.674 35.9773 78.347 36.3258C78.387 33.6899 78.4671 31.05 78.367 28.4141C78.4752 27.3605 77.4056 26.8718 76.6725 26.3911C74.6575 25.2494 72.6746 24.0516 70.6075 23.0101ZM82.1406 26.331C81.3674 26.8317 80.2538 27.3245 80.3379 28.4221C80.2418 31.046 80.3259 33.6739 80.3539 36.3018C82.7455 35.088 85.097 33.774 87.3523 32.3239C88.1936 31.8872 88.1415 30.8817 88.1575 30.0725C88.1615 27.7211 88.1535 25.3736 88.0974 23.0221C86.0584 24.0276 84.1195 25.2173 82.1406 26.331ZM27.4275 32.408C26.9228 32.7765 27.1231 33.5176 27.0269 34.0544C27.0309 40.5921 27.047 47.1338 27.0229 53.6715C27.0109 54.9494 27.1551 56.3595 28.0805 57.3289C29.0379 58.3064 30.2998 58.8952 31.4615 59.5802C36.5531 62.5006 41.6366 65.4329 46.7041 68.3853C47.301 68.6857 47.9099 69.0903 48.6069 69.0423C49.2959 68.5375 49.1517 67.6402 49.2038 66.8951C49.1557 60.2212 49.2158 53.5393 49.1758 46.8654C49.2559 45.1268 48.1943 43.5685 46.6841 42.7874C40.9155 39.4544 35.139 36.1415 29.3824 32.7926C28.7976 32.5923 27.9723 31.8231 27.4275 32.408ZM72.7707 32.5001C67.0422 35.7369 61.3818 39.0899 55.6614 42.3387C54.6879 42.9116 53.6344 43.4844 53.0255 44.4779C52.4326 45.4193 52.3965 46.569 52.3885 47.6506C52.4085 54.0601 52.4126 60.4696 52.3885 66.8831C52.4366 67.6362 52.2683 68.5535 52.9854 69.0583C54.4476 68.9301 55.6013 67.8725 56.8712 67.2236C61.9587 64.2712 67.0663 61.3509 72.1538 58.3985C73.5839 57.6454 74.5774 56.1512 74.5413 54.5087C74.5814 47.8188 74.5213 41.1289 74.5654 34.435C74.5413 33.726 74.6054 32.9608 74.2209 32.3279C73.7081 32.1436 73.2234 32.2037 72.7707 32.5001ZM20.4772 48.7963C18.1578 50.2264 15.6942 51.4202 13.4749 53.0065C15.5299 54.3846 17.7412 55.5142 19.8523 56.7961C20.7096 57.2728 21.5468 57.8737 22.5363 58.026C23.6419 57.8417 24.5673 57.1406 25.5367 56.6239C25.0961 54.4567 25.2924 52.2414 25.2403 50.0501C25.4526 48.8564 24.0706 48.5199 23.2534 48.0872C22.2719 47.6105 21.3185 48.3596 20.4772 48.7963ZM12.217 55.1176C12.0608 58.2503 12.1169 61.3949 12.1449 64.5316C12.0407 65.7694 13.3266 66.3222 14.1999 66.867C16.6035 68.157 18.8669 69.7153 21.3706 70.8129C21.4026 67.6282 21.4587 64.4354 21.3706 61.2507C21.3906 60.1571 20.2449 59.6724 19.4677 59.1676C17.0401 57.8377 14.7167 56.3114 12.217 55.1176ZM23.678 61.6834C23.666 64.7279 23.6499 67.7764 23.714 70.8209C26.1296 69.7513 28.3209 68.2491 30.6443 67.0032C31.4295 66.4985 32.4149 66.1139 32.8436 65.2286C33.0118 64.3353 32.9597 63.4259 32.9878 62.5246C30.8526 61.2507 28.5732 60.1811 26.6784 58.5467C25.4927 59.3439 23.4977 59.9047 23.678 61.6834ZM65.6562 64.2311C66.6216 64.7159 67.5309 65.505 68.6366 65.6012C70.6155 64.8761 72.326 63.5782 74.1407 62.5286C73.2354 61.9838 72.322 61.443 71.4087 60.9102C69.4939 62.0159 67.571 63.1175 65.6562 64.2311ZM69.3456 67.2316C69.0091 69.3347 69.2615 71.4819 69.2615 73.601C71.0882 72.4834 73.1393 71.6702 74.7617 70.2521C75.1542 68.1489 74.8618 65.9777 74.8939 63.8506C73.0351 64.9442 70.936 65.7454 69.3456 67.2316ZM62.1149 66.2421C62.0949 67.528 61.9787 68.83 62.183 70.1078C63.7253 71.6902 65.9126 72.4473 67.7793 73.577C67.7633 71.5059 67.9796 69.4188 67.6992 67.3598C66.9221 66.2021 65.4158 65.7774 64.2741 65.0403C63.5571 65.4409 62.836 65.8415 62.1149 66.2421Z" fill="#0B2F64"/>
<path d="M27.6802 14.7218C29.7753 13.5561 31.7262 11.9016 34.0536 11.2887C36.1928 12.182 38.1277 13.516 40.1026 14.7218C38.0035 15.8434 36.0766 17.3977 33.8012 18.1308C31.642 17.2335 29.7192 15.8555 27.6802 14.7218Z" fill="#EF003D"/>
<path d="M26.8509 16.1118C28.8779 17.2976 31.0891 18.247 32.9078 19.7412C33.3485 21.1112 33.0601 22.6054 33.1161 24.0275C32.2709 24.5163 31.4256 24.997 30.5804 25.4777C29.3506 24.7366 27.9685 24.1878 26.943 23.1583C26.6426 20.8268 26.8629 18.4593 26.8509 16.1118Z" fill="#EF003D"/>
<path d="M35.6401 19.1243C37.3707 18.0588 39.1493 17.0733 40.948 16.1319C40.972 17.2496 40.9881 18.3672 40.9881 19.4889C38.8729 20.7027 36.7578 21.9205 34.6507 23.1503C34.8229 21.8043 34.1099 19.8534 35.6401 19.1243Z" fill="#EF003D"/>
<path d="M72.7709 32.5001C73.2235 32.2037 73.7083 32.1436 74.221 32.3279C74.6056 32.9608 74.5415 33.7259 74.5655 34.435C74.5215 41.1289 74.5815 47.8188 74.5415 54.5087C74.5775 56.1512 73.5841 57.6454 72.1539 58.3985C67.0664 61.3509 61.9588 64.2712 56.8713 67.2235C55.6014 67.8725 54.4477 68.9301 52.9856 69.0583C52.2685 68.5535 52.4367 67.6362 52.3887 66.883C52.4127 60.4695 52.4087 54.0601 52.3887 47.6506C52.3967 46.569 52.4327 45.4193 53.0256 44.4779C53.6345 43.4844 54.6881 42.9115 55.6615 42.3387C61.382 39.0899 67.0424 35.7369 72.7709 32.5001ZM62.3835 43.0838C60.5848 45.7517 58.0731 47.935 56.675 50.8874C57.1878 52.025 57.989 53.0025 58.682 54.036C59.0545 53.5593 59.4391 53.0946 59.8277 52.6299C59.8237 55.4661 59.7876 58.2983 59.8517 61.1305C62.6399 59.6163 65.468 58.1181 68.0879 56.3394C68.5005 53.5152 68.156 50.6149 68.2562 47.7667C68.5166 47.8068 69.0373 47.8869 69.2977 47.927C70.0949 46.0602 70.808 44.1574 71.4489 42.2305C69.9066 41.7218 68.2802 41.0688 66.6578 41.6256C66.4495 41.4774 66.0369 41.173 65.8286 41.0247C64.6789 41.7058 63.4491 42.2706 62.3835 43.0838Z" fill="#EF003D"/>
<path d="M65.6803 42.5831C66.153 42.9596 65.5241 44.5219 64.8551 44.5179C64.6148 43.8289 65.1996 43.0397 65.6803 42.5831Z" fill="#EF003D"/>
<path d="M66.7138 42.7313C67.9556 42.4829 69.1774 42.8555 70.3632 43.192C69.9345 44.3337 69.5019 45.4713 69.0732 46.609C68.236 46.3967 67.3988 46.1844 66.5655 45.9721C66.4093 46.2124 66.1049 46.7012 65.9486 46.9415C66.4133 47.2179 66.9141 47.4303 67.4388 47.5584C67.4148 50.2785 67.4348 52.9945 67.4308 55.7145C66.4333 56.2874 65.4399 56.8642 64.4424 57.4371C64.4304 53.6194 64.4624 49.8018 64.4224 45.9881C64.6627 45.9521 65.1434 45.88 65.3838 45.8439C65.9847 44.8825 66.2851 43.7728 66.7138 42.7313Z" fill="#EF003D"/>
<path d="M63.6053 43.8209C63.1926 43.3362 64.0139 42.6792 64.4625 43.0157C64.791 43.4884 64.0659 44.2496 63.6053 43.8209Z" fill="#EF003D"/>
<path d="M62.0391 44.3256C62.4997 44.5379 62.9604 44.7503 63.4211 44.9666C63.2048 45.3271 62.9805 45.6796 62.7561 46.0362C62.5118 45.4673 62.2554 44.9065 62.0391 44.3256Z" fill="#EF003D"/>
<path d="M57.6924 50.5228C58.8261 48.9124 59.8676 47.2139 61.3258 45.8679C61.7584 46.4528 62.1951 47.0296 62.6397 47.6065C62.9562 47.1338 63.2847 46.6731 63.6252 46.2164C63.5811 50.1182 63.6172 54.02 63.6052 57.9218C62.6197 58.4866 61.6382 59.0595 60.6528 59.6243C60.6568 56.8923 60.6448 54.1602 60.6608 51.4322C61.2176 50.5869 62.0188 49.7537 61.8546 48.656C60.7409 49.7977 59.8997 51.1558 58.9743 52.4417C58.5497 51.8007 58.121 51.1598 57.6924 50.5228Z" fill="#EF003D"/>
<path d="M49.14 16.9091C50.486 16.3482 52.0523 16.5686 53.2821 17.3097C58.614 20.3942 63.9419 23.4828 69.2898 26.5433C70.2433 27.1122 71.3088 27.5769 72.0299 28.4542C71.9858 29.2674 71.2287 29.6439 70.6238 30.0165C64.7631 33.3695 58.9265 36.7665 53.0738 40.1315C51.5876 40.9887 49.6968 40.8926 48.2507 39.9953C42.8427 36.8586 37.4306 33.726 32.0066 30.6174C31.1373 29.9965 29.7192 29.68 29.563 28.4502C30.2039 27.649 31.1574 27.2123 32.0226 26.7036C37.7511 23.4828 43.3714 20.0497 49.14 16.9091ZM42.1576 23.8594C42.43 24.8729 42.5382 25.9264 42.8787 26.9239C43.5076 27.1923 44.2007 27.0922 44.8657 27.0681C45.1781 26.6034 45.5146 26.1508 45.8671 25.7101C45.4625 26.6315 44.9698 27.5168 44.6493 28.4742C44.9418 29.015 45.2943 29.5157 45.6588 30.0125C45.2783 30.6975 44.8977 31.3825 44.5211 32.0675C43.5197 31.6549 42.4901 31.2864 41.4045 31.1582C41.8732 31.7951 42.4741 32.3399 43.2312 32.6083C48.0063 34.5873 53.5826 34.5913 58.3576 32.6043C59.1068 32.3359 59.6996 31.7991 60.1804 31.1822C59.3792 31.3024 58.586 31.4706 57.8008 31.6629C57.8569 30.6294 57.5244 29.7 56.6191 29.1432C56.6351 28.5183 56.7112 27.8933 56.6711 27.2684C56.3026 26.8839 55.886 26.5514 55.4774 26.2109C57.2039 26.2749 59.287 26.2229 60.0882 24.3841C58.6861 24.252 57.224 24.0637 55.8499 24.4883C55.0127 24.7807 54.6522 25.6741 54.1634 26.335C52.9376 26.3511 51.7118 26.3511 50.486 26.3551C50.0614 25.4337 49.6608 24.3841 48.6993 23.8994C46.6723 22.7337 44.2968 23.5389 42.1576 23.8594Z" fill="#FBA727"/>
<path d="M43.8162 24.4683C45.1902 24.236 46.7485 23.8153 48.0224 24.6205C49.0599 25.2174 48.8797 27.0722 50.2617 27.1443C52.0003 27.3085 53.7549 27.1843 55.4975 27.3125C55.1529 28.5664 55.3132 29.8242 56.4749 30.5613C56.507 31.2463 56.539 31.9274 56.571 32.6124C56.3307 32.0195 56.1184 31.4106 55.8219 30.8458C54.8084 30.2489 53.7629 29.6159 52.6252 29.2955C51.2071 29.2033 49.7409 29.0912 48.3469 29.4076C47.2893 30.4011 46.5482 31.671 45.5627 32.7285C46.0515 31.6389 46.6283 30.5934 47.1932 29.5478C46.7325 29.2394 46.2718 28.9309 45.8151 28.6185C46.2077 27.7612 46.6924 26.936 46.9688 26.0266C46.9127 25.2735 46.0314 25.0932 45.4185 25.0972C44.5372 25.0532 44.2087 25.9545 43.728 26.5113C43.7681 25.8303 43.7961 25.1493 43.8162 24.4683Z" fill="#FBA727"/>
<path d="M49.0515 30.1086C50.1732 30.1207 51.2949 30.1126 52.4165 30.1447C53.2137 30.6094 54.0389 31.03 54.8842 31.4146C54.9803 31.8753 55.0765 32.3399 55.1766 32.8046C52.4486 33.2172 49.6885 33.2733 46.9604 32.8447C47.6535 31.9313 48.3545 31.022 49.0515 30.1086Z" fill="#FBA727"/>
<path d="M20.4775 48.7963C21.3187 48.3597 22.2721 47.6106 23.2536 48.0873C24.0708 48.5199 25.4528 48.8564 25.2405 50.0502C25.2926 52.2414 25.0963 54.4567 25.537 56.6239C24.5675 57.1407 23.6422 57.8417 22.5365 58.026C21.5471 57.8738 20.7098 57.2729 19.8525 56.7962C17.7414 55.5143 15.5301 54.3846 13.4751 53.0066C15.6944 51.4202 18.158 50.2264 20.4775 48.7963Z" fill="#FBA727"/>
<path d="M12.2171 55.1177C14.7168 56.3114 17.0403 57.8377 19.4678 59.1677C20.245 59.6724 21.3907 60.1571 21.3707 61.2508C21.4588 64.4355 21.4027 67.6282 21.3707 70.8129C18.867 69.7153 16.6036 68.157 14.2 66.8671C13.3267 66.3223 12.0408 65.7695 12.145 64.5316C12.117 61.395 12.0609 58.2503 12.2171 55.1177Z" fill="#FBA727"/>
<path d="M23.6779 61.6834C23.4977 59.9048 25.4926 59.3439 26.6784 58.5468C28.5732 60.1812 30.8526 61.2508 32.9877 62.5246C32.9597 63.426 33.0118 64.3353 32.8435 65.2286C32.4149 66.114 31.4294 66.4985 30.6442 67.0033C28.3208 68.2491 26.1296 69.7513 23.714 70.8209C23.6499 67.7764 23.6659 64.7279 23.6779 61.6834Z" fill="#FBA727"/>
<path d="M71.6494 21.2274C74.2092 19.7813 76.6208 17.9386 79.4129 16.9731C82.1249 18.0307 84.5325 19.7613 87.0402 21.2274C84.5365 22.6976 82.1289 24.4202 79.4169 25.4818C76.6248 24.5243 74.2132 22.6736 71.6494 21.2274Z" fill="#00D06E"/>
<path d="M70.6076 23.0101C72.6747 24.0516 74.6576 25.2494 76.6726 26.3911C77.4057 26.8718 78.4753 27.3605 78.3671 28.4141C78.4673 31.05 78.3872 33.6899 78.3471 36.3258C77.6741 35.9773 77.0051 35.6208 76.3401 35.2602C76.3281 33.2012 76.5925 30.9739 75.5229 29.1071C74.4613 27.1923 72.3582 26.2949 70.5596 25.2294C70.5756 24.4883 70.5916 23.7512 70.6076 23.0101Z" fill="#00D06E"/>
<path d="M82.1405 26.331C84.1194 25.2173 86.0583 24.0276 88.0973 23.0221C88.1534 25.3736 88.1614 27.7211 88.1574 30.0725C88.1414 30.8817 88.1935 31.8872 87.3522 32.3239C85.0969 33.774 82.7454 35.088 80.3538 36.3018C80.3258 33.6739 80.2417 31.046 80.3378 28.4221C80.2537 27.3245 81.3673 26.8317 82.1405 26.331Z" fill="#00D06E"/>
<path d="M27.4277 32.408C27.9725 31.8231 28.7978 32.5923 29.3826 32.7926C35.1391 36.1415 40.9157 39.4544 46.6842 42.7874C48.1945 43.5685 49.2561 45.1268 49.1759 46.8654C49.216 53.5393 49.1559 60.2212 49.204 66.8951C49.1519 67.6402 49.2961 68.5375 48.6071 69.0423C47.9101 69.0903 47.3012 68.6857 46.7043 68.3853C41.6368 65.4329 36.5532 62.5006 31.4617 59.5803C30.3 58.8952 29.0381 58.3064 28.0807 57.3289C27.1553 56.3595 27.0111 54.9494 27.0231 53.6715C27.0472 47.1338 27.0311 40.5921 27.0271 34.0544C27.1233 33.5177 26.923 32.7766 27.4277 32.408ZM35.1832 40.2757C34.2618 40.8846 34.6865 42.1184 34.7145 43.0197C33.7972 42.8395 32.335 42.8314 32.1748 44.0533C31.8142 46.0642 33.6009 47.4583 34.1337 49.2369C35.0029 52.005 35.8121 54.7932 36.6694 57.5653C36.8937 58.3224 37.2823 59.0114 37.723 59.6644C38.9688 57.3329 40.0264 54.9093 41.1641 52.5218C41.6568 52.3576 42.1535 52.1973 42.6503 52.0451C43.4795 49.7697 41.9492 47.6987 40.2988 46.3006C40.9918 43.8089 39.2813 41.4173 37.1621 40.2837C36.5452 39.9992 35.7641 39.803 35.1832 40.2757Z" fill="#009AE7"/>
<path d="M35.8563 41.3613C37.6229 40.7003 39.3495 42.8034 39.4216 44.4418C39.5858 45.4072 38.368 45.8118 37.679 45.3271C36.345 44.6061 35.0311 42.9035 35.8563 41.3613Z" fill="#009AE7"/>
<path d="M33.4805 44.2536C34.3698 43.6887 35.3473 44.4579 35.9602 45.0868C36.7373 45.864 37.3783 47.1418 36.7293 48.1874C34.7584 49.0206 32.3749 46.0282 33.4805 44.2536Z" fill="#009AE7"/>
<path d="M38.6562 46.9335C39.87 46.6651 40.8755 47.8308 41.4804 48.7562C42.0011 49.5133 42.1534 51.1798 40.8915 51.2199C39.6176 51.0676 38.6482 49.958 38.1675 48.8403C37.9391 48.2354 37.875 47.1338 38.6562 46.9335Z" fill="#009AE7"/>
<path d="M35.0991 49.4733C36.5973 50.5709 38.2077 51.5083 39.9062 52.2574C39.101 53.9399 38.3079 55.6304 37.5107 57.3129C36.7015 54.701 35.9203 52.0811 35.0991 49.4733Z" fill="#009AE7"/>
<path d="M65.6562 64.2311C67.5711 63.1175 69.4939 62.0159 71.4088 60.9102C72.3221 61.443 73.2355 61.9838 74.1408 62.5286C72.3261 63.5782 70.6156 64.8761 68.6367 65.6012C67.531 65.505 66.6217 64.7159 65.6562 64.2311Z" fill="#009AE7"/>
<path d="M69.3459 67.2316C70.9362 65.7454 73.0353 64.9442 74.8941 63.8506C74.862 65.9777 75.1545 68.149 74.7619 70.2521C73.1395 71.6702 71.0885 72.4834 69.2618 73.601C69.2618 71.4819 69.0094 69.3347 69.3459 67.2316Z" fill="#009AE7"/>
<path d="M62.1149 66.2421C62.836 65.8415 63.5571 65.4409 64.2741 65.0403C65.4158 65.7774 66.9221 66.2021 67.6992 67.3598C67.9796 69.4188 67.7633 71.5059 67.7793 73.577C65.9126 72.4473 63.7253 71.6902 62.183 70.1078C61.9787 68.83 62.0949 67.528 62.1149 66.2421Z" fill="#009AE7"/>
</svg>
